<svg width="973" height="420" viewBox="0 0 973 420" fill="none" xmlns="http://www.w3.org/2000/svg">
<rect width="973" height="420" fill="white"/>
<rect x="64" y="101" width="57" height="57" rx="15" fill="#EFEFEF"/>
<rect x="133" y="101" width="776" height="57" rx="15" fill="#EFEFEF"/>
<path d="M160.386 129.955V135H157.966V123.364H160.318V127.812H160.42C160.617 127.297 160.936 126.894 161.375 126.602C161.814 126.307 162.366 126.159 163.028 126.159C163.634 126.159 164.163 126.292 164.614 126.557C165.068 126.818 165.42 127.195 165.67 127.688C165.924 128.176 166.049 128.761 166.045 129.443V135H163.625V129.875C163.629 129.337 163.492 128.919 163.216 128.619C162.943 128.32 162.561 128.17 162.068 128.17C161.739 128.17 161.447 128.241 161.193 128.381C160.943 128.521 160.746 128.725 160.602 128.994C160.462 129.259 160.39 129.58 160.386 129.955ZM172.592 126.273V128.091H167.337V126.273H172.592ZM168.53 124.182H170.95V132.318C170.95 132.542 170.984 132.716 171.053 132.841C171.121 132.962 171.215 133.047 171.337 133.097C171.462 133.146 171.606 133.17 171.768 133.17C171.882 133.17 171.996 133.161 172.109 133.142C172.223 133.119 172.31 133.102 172.371 133.091L172.751 134.892C172.63 134.93 172.46 134.973 172.24 135.023C172.02 135.076 171.753 135.108 171.439 135.119C170.856 135.142 170.344 135.064 169.905 134.886C169.469 134.708 169.13 134.432 168.888 134.057C168.645 133.682 168.526 133.208 168.53 132.636V124.182ZM178.811 126.273V128.091H173.555V126.273H178.811ZM174.749 124.182H177.169V132.318C177.169 132.542 177.203 132.716 177.271 132.841C177.339 132.962 177.434 133.047 177.555 133.097C177.68 133.146 177.824 133.17 177.987 133.17C178.101 133.17 178.214 133.161 178.328 133.142C178.442 133.119 178.529 133.102 178.589 133.091L178.97 134.892C178.849 134.93 178.679 134.973 178.459 135.023C178.239 135.076 177.972 135.108 177.658 135.119C177.074 135.142 176.563 135.064 176.124 134.886C175.688 134.708 175.349 134.432 175.107 134.057C174.864 133.682 174.745 133.208 174.749 132.636V124.182ZM180.388 138.273V126.273H182.774V127.739H182.882C182.988 127.504 183.142 127.265 183.342 127.023C183.547 126.777 183.812 126.572 184.138 126.409C184.467 126.242 184.876 126.159 185.365 126.159C186.001 126.159 186.589 126.326 187.126 126.659C187.664 126.989 188.094 127.487 188.416 128.153C188.738 128.816 188.899 129.648 188.899 130.648C188.899 131.621 188.742 132.443 188.428 133.114C188.117 133.78 187.693 134.286 187.155 134.631C186.621 134.972 186.022 135.142 185.359 135.142C184.89 135.142 184.49 135.064 184.161 134.909C183.835 134.754 183.568 134.559 183.359 134.324C183.151 134.085 182.992 133.845 182.882 133.602H182.808V138.273H180.388ZM182.757 130.636C182.757 131.155 182.829 131.608 182.973 131.994C183.117 132.381 183.325 132.682 183.598 132.898C183.871 133.11 184.202 133.216 184.592 133.216C184.986 133.216 185.32 133.108 185.592 132.892C185.865 132.672 186.071 132.369 186.212 131.983C186.356 131.593 186.428 131.144 186.428 130.636C186.428 130.133 186.357 129.689 186.217 129.307C186.077 128.924 185.871 128.625 185.598 128.409C185.325 128.193 184.99 128.085 184.592 128.085C184.198 128.085 183.865 128.189 183.592 128.398C183.323 128.606 183.117 128.902 182.973 129.284C182.829 129.667 182.757 130.117 182.757 130.636ZM197.774 128.761L195.558 128.898C195.52 128.708 195.439 128.538 195.314 128.386C195.189 128.231 195.024 128.108 194.82 128.017C194.619 127.922 194.378 127.875 194.098 127.875C193.723 127.875 193.407 127.955 193.149 128.114C192.892 128.269 192.763 128.477 192.763 128.739C192.763 128.947 192.846 129.123 193.013 129.267C193.179 129.411 193.465 129.527 193.871 129.614L195.45 129.932C196.299 130.106 196.931 130.386 197.348 130.773C197.765 131.159 197.973 131.667 197.973 132.295C197.973 132.867 197.804 133.369 197.467 133.801C197.134 134.233 196.676 134.57 196.092 134.812C195.513 135.051 194.844 135.17 194.087 135.17C192.931 135.17 192.011 134.93 191.325 134.449C190.643 133.964 190.244 133.305 190.126 132.472L192.507 132.347C192.579 132.699 192.753 132.968 193.03 133.153C193.306 133.335 193.661 133.426 194.092 133.426C194.517 133.426 194.857 133.345 195.115 133.182C195.376 133.015 195.509 132.801 195.513 132.54C195.509 132.32 195.416 132.14 195.234 132C195.053 131.856 194.772 131.746 194.393 131.67L192.882 131.369C192.03 131.199 191.395 130.903 190.979 130.483C190.566 130.062 190.359 129.527 190.359 128.875C190.359 128.314 190.511 127.831 190.814 127.426C191.121 127.021 191.551 126.708 192.104 126.489C192.661 126.269 193.312 126.159 194.058 126.159C195.161 126.159 196.028 126.392 196.661 126.858C197.297 127.324 197.668 127.958 197.774 128.761ZM200.912 135.148C200.537 135.148 200.215 135.015 199.946 134.75C199.681 134.481 199.548 134.159 199.548 133.784C199.548 133.413 199.681 133.095 199.946 132.83C200.215 132.564 200.537 132.432 200.912 132.432C201.276 132.432 201.594 132.564 201.866 132.83C202.139 133.095 202.276 133.413 202.276 133.784C202.276 134.034 202.211 134.263 202.082 134.472C201.957 134.676 201.793 134.841 201.588 134.966C201.384 135.087 201.158 135.148 200.912 135.148ZM200.912 129.034C200.537 129.034 200.215 128.902 199.946 128.636C199.681 128.371 199.548 128.049 199.548 127.67C199.548 127.299 199.681 126.983 199.946 126.722C200.215 126.456 200.537 126.324 200.912 126.324C201.276 126.324 201.594 126.456 201.866 126.722C202.139 126.983 202.276 127.299 202.276 127.67C202.276 127.924 202.211 128.155 202.082 128.364C201.957 128.568 201.793 128.731 201.588 128.852C201.384 128.973 201.158 129.034 200.912 129.034ZM209.331 122.818L205.581 136.75H203.496L207.246 122.818H209.331ZM215.565 122.818L211.815 136.75H209.73L213.48 122.818H215.565Z" fill="#38B54C"/>
<path d="M216.732 135V126.273H219.078V127.795H219.169C219.328 127.254 219.595 126.845 219.97 126.568C220.345 126.288 220.777 126.148 221.266 126.148C221.387 126.148 221.518 126.155 221.658 126.17C221.798 126.186 221.921 126.206 222.027 126.233V128.381C221.913 128.347 221.756 128.316 221.555 128.29C221.355 128.263 221.171 128.25 221.004 128.25C220.648 128.25 220.33 128.328 220.05 128.483C219.773 128.634 219.554 128.847 219.391 129.119C219.232 129.392 219.152 129.706 219.152 130.062V135H216.732ZM226.815 135.17C225.933 135.17 225.17 134.983 224.526 134.608C223.885 134.229 223.391 133.703 223.043 133.028C222.694 132.35 222.52 131.564 222.52 130.67C222.52 129.769 222.694 128.981 223.043 128.307C223.391 127.629 223.885 127.102 224.526 126.727C225.17 126.348 225.933 126.159 226.815 126.159C227.698 126.159 228.459 126.348 229.099 126.727C229.743 127.102 230.24 127.629 230.588 128.307C230.937 128.981 231.111 129.769 231.111 130.67C231.111 131.564 230.937 132.35 230.588 133.028C230.24 133.703 229.743 134.229 229.099 134.608C228.459 134.983 227.698 135.17 226.815 135.17ZM226.827 133.295C227.228 133.295 227.563 133.182 227.832 132.955C228.101 132.723 228.304 132.409 228.44 132.011C228.58 131.614 228.651 131.161 228.651 130.653C228.651 130.146 228.58 129.693 228.44 129.295C228.304 128.898 228.101 128.583 227.832 128.352C227.563 128.121 227.228 128.006 226.827 128.006C226.421 128.006 226.08 128.121 225.804 128.352C225.531 128.583 225.325 128.898 225.185 129.295C225.048 129.693 224.98 130.146 224.98 130.653C224.98 131.161 225.048 131.614 225.185 132.011C225.325 132.409 225.531 132.723 225.804 132.955C226.08 133.182 226.421 133.295 226.827 133.295ZM235.173 135.165C234.616 135.165 234.12 135.068 233.685 134.875C233.249 134.678 232.904 134.388 232.651 134.006C232.401 133.619 232.276 133.138 232.276 132.562C232.276 132.078 232.365 131.67 232.543 131.341C232.721 131.011 232.963 130.746 233.27 130.545C233.577 130.345 233.925 130.193 234.315 130.091C234.709 129.989 235.122 129.917 235.554 129.875C236.062 129.822 236.471 129.773 236.781 129.727C237.092 129.678 237.317 129.606 237.457 129.511C237.598 129.417 237.668 129.277 237.668 129.091V129.057C237.668 128.697 237.554 128.419 237.327 128.222C237.103 128.025 236.785 127.926 236.372 127.926C235.937 127.926 235.59 128.023 235.332 128.216C235.075 128.405 234.904 128.644 234.821 128.932L232.582 128.75C232.696 128.22 232.92 127.761 233.253 127.375C233.586 126.985 234.016 126.686 234.543 126.477C235.073 126.265 235.687 126.159 236.384 126.159C236.868 126.159 237.332 126.216 237.776 126.33C238.223 126.443 238.618 126.619 238.963 126.858C239.312 127.097 239.586 127.403 239.787 127.778C239.988 128.15 240.088 128.595 240.088 129.114V135H237.793V133.79H237.724C237.584 134.062 237.397 134.303 237.162 134.511C236.927 134.716 236.645 134.877 236.315 134.994C235.986 135.108 235.605 135.165 235.173 135.165ZM235.866 133.494C236.223 133.494 236.537 133.424 236.81 133.284C237.082 133.14 237.296 132.947 237.452 132.705C237.607 132.462 237.685 132.187 237.685 131.881V130.955C237.609 131.004 237.505 131.049 237.372 131.091C237.243 131.129 237.098 131.165 236.935 131.199C236.772 131.229 236.609 131.258 236.446 131.284C236.283 131.307 236.135 131.328 236.003 131.347C235.719 131.388 235.471 131.455 235.259 131.545C235.046 131.636 234.882 131.759 234.764 131.915C234.647 132.066 234.588 132.256 234.588 132.483C234.588 132.812 234.707 133.064 234.946 133.239C235.188 133.409 235.495 133.494 235.866 133.494ZM241.966 135V126.273H244.312V127.795H244.403C244.563 127.254 244.83 126.845 245.205 126.568C245.58 126.288 246.011 126.148 246.5 126.148C246.621 126.148 246.752 126.155 246.892 126.17C247.032 126.186 247.155 126.206 247.261 126.233V128.381C247.148 128.347 246.991 128.316 246.79 128.29C246.589 128.263 246.405 128.25 246.239 128.25C245.883 128.25 245.564 128.328 245.284 128.483C245.008 128.634 244.788 128.847 244.625 129.119C244.466 129.392 244.386 129.706 244.386 130.062V135H241.966ZM248.513 135V126.273H250.933V135H248.513ZM249.729 125.148C249.369 125.148 249.06 125.028 248.803 124.79C248.549 124.547 248.422 124.258 248.422 123.92C248.422 123.587 248.549 123.301 248.803 123.062C249.06 122.82 249.369 122.699 249.729 122.699C250.089 122.699 250.395 122.82 250.649 123.062C250.907 123.301 251.036 123.587 251.036 123.92C251.036 124.258 250.907 124.547 250.649 124.79C250.395 125.028 250.089 125.148 249.729 125.148ZM255.293 129.955V135H252.872V126.273H255.179V127.812H255.281C255.474 127.305 255.798 126.903 256.253 126.608C256.707 126.309 257.259 126.159 257.906 126.159C258.512 126.159 259.041 126.292 259.491 126.557C259.942 126.822 260.293 127.201 260.543 127.693C260.793 128.182 260.918 128.765 260.918 129.443V135H258.497V129.875C258.501 129.341 258.365 128.924 258.088 128.625C257.812 128.322 257.431 128.17 256.946 128.17C256.62 128.17 256.332 128.241 256.082 128.381C255.836 128.521 255.643 128.725 255.503 128.994C255.366 129.259 255.296 129.58 255.293 129.955ZM266.757 138.455C265.973 138.455 265.301 138.347 264.74 138.131C264.183 137.919 263.74 137.629 263.411 137.261C263.081 136.894 262.867 136.481 262.768 136.023L265.007 135.722C265.075 135.896 265.183 136.059 265.331 136.21C265.479 136.362 265.674 136.483 265.916 136.574C266.162 136.669 266.462 136.716 266.814 136.716C267.34 136.716 267.774 136.587 268.115 136.33C268.46 136.076 268.632 135.65 268.632 135.051V133.455H268.53C268.424 133.697 268.265 133.926 268.053 134.142C267.84 134.358 267.568 134.534 267.234 134.67C266.901 134.807 266.503 134.875 266.041 134.875C265.386 134.875 264.789 134.723 264.251 134.42C263.717 134.114 263.291 133.646 262.973 133.017C262.659 132.384 262.501 131.585 262.501 130.619C262.501 129.631 262.662 128.805 262.984 128.142C263.306 127.479 263.734 126.983 264.268 126.653C264.806 126.324 265.395 126.159 266.036 126.159C266.524 126.159 266.933 126.242 267.263 126.409C267.592 126.572 267.857 126.777 268.058 127.023C268.263 127.265 268.42 127.504 268.53 127.739H268.621V126.273H271.024V135.085C271.024 135.828 270.842 136.449 270.479 136.949C270.115 137.449 269.611 137.824 268.967 138.074C268.327 138.328 267.59 138.455 266.757 138.455ZM266.808 133.057C267.198 133.057 267.528 132.96 267.797 132.767C268.07 132.57 268.278 132.29 268.422 131.926C268.57 131.559 268.643 131.119 268.643 130.608C268.643 130.097 268.571 129.653 268.428 129.278C268.284 128.9 268.075 128.606 267.803 128.398C267.53 128.189 267.198 128.085 266.808 128.085C266.411 128.085 266.075 128.193 265.803 128.409C265.53 128.621 265.323 128.917 265.183 129.295C265.043 129.674 264.973 130.112 264.973 130.608C264.973 131.112 265.043 131.547 265.183 131.915C265.327 132.278 265.534 132.561 265.803 132.761C266.075 132.958 266.411 133.057 266.808 133.057ZM280.212 128.761L277.996 128.898C277.958 128.708 277.876 128.538 277.751 128.386C277.626 128.231 277.462 128.108 277.257 128.017C277.056 127.922 276.816 127.875 276.536 127.875C276.161 127.875 275.844 127.955 275.587 128.114C275.329 128.269 275.2 128.477 275.2 128.739C275.2 128.947 275.284 129.123 275.45 129.267C275.617 129.411 275.903 129.527 276.308 129.614L277.888 129.932C278.736 130.106 279.369 130.386 279.786 130.773C280.202 131.159 280.411 131.667 280.411 132.295C280.411 132.867 280.242 133.369 279.905 133.801C279.571 134.233 279.113 134.57 278.53 134.812C277.95 135.051 277.282 135.17 276.524 135.17C275.369 135.17 274.448 134.93 273.763 134.449C273.081 133.964 272.681 133.305 272.564 132.472L274.945 132.347C275.017 132.699 275.191 132.968 275.467 133.153C275.744 133.335 276.098 133.426 276.53 133.426C276.954 133.426 277.295 133.345 277.553 133.182C277.814 133.015 277.946 132.801 277.95 132.54C277.946 132.32 277.854 132.14 277.672 132C277.49 131.856 277.21 131.746 276.831 131.67L275.32 131.369C274.467 131.199 273.833 130.903 273.416 130.483C273.003 130.062 272.797 129.527 272.797 128.875C272.797 128.314 272.948 127.831 273.251 127.426C273.558 127.021 273.988 126.708 274.541 126.489C275.098 126.269 275.75 126.159 276.496 126.159C277.598 126.159 278.465 126.392 279.098 126.858C279.734 127.324 280.106 127.958 280.212 128.761ZM286.577 126.273V128.091H281.321V126.273H286.577ZM282.514 124.182H284.935V132.318C284.935 132.542 284.969 132.716 285.037 132.841C285.105 132.962 285.2 133.047 285.321 133.097C285.446 133.146 285.59 133.17 285.753 133.17C285.866 133.17 285.98 133.161 286.094 133.142C286.207 133.119 286.295 133.102 286.355 133.091L286.736 134.892C286.615 134.93 286.444 134.973 286.224 135.023C286.005 135.076 285.738 135.108 285.423 135.119C284.84 135.142 284.329 135.064 283.889 134.886C283.454 134.708 283.115 134.432 282.872 134.057C282.63 133.682 282.51 133.208 282.514 132.636V124.182ZM290.642 135.165C290.085 135.165 289.589 135.068 289.153 134.875C288.718 134.678 288.373 134.388 288.119 134.006C287.869 133.619 287.744 133.138 287.744 132.562C287.744 132.078 287.833 131.67 288.011 131.341C288.189 131.011 288.432 130.746 288.739 130.545C289.045 130.345 289.394 130.193 289.784 130.091C290.178 129.989 290.591 129.917 291.023 129.875C291.53 129.822 291.939 129.773 292.25 129.727C292.561 129.678 292.786 129.606 292.926 129.511C293.066 129.417 293.136 129.277 293.136 129.091V129.057C293.136 128.697 293.023 128.419 292.795 128.222C292.572 128.025 292.254 127.926 291.841 127.926C291.405 127.926 291.059 128.023 290.801 128.216C290.544 128.405 290.373 128.644 290.29 128.932L288.051 128.75C288.165 128.22 288.388 127.761 288.722 127.375C289.055 126.985 289.485 126.686 290.011 126.477C290.542 126.265 291.155 126.159 291.852 126.159C292.337 126.159 292.801 126.216 293.244 126.33C293.691 126.443 294.087 126.619 294.432 126.858C294.78 127.097 295.055 127.403 295.256 127.778C295.456 128.15 295.557 128.595 295.557 129.114V135H293.261V133.79H293.193C293.053 134.062 292.866 134.303 292.631 134.511C292.396 134.716 292.114 134.877 291.784 134.994C291.455 135.108 291.074 135.165 290.642 135.165ZM291.335 133.494C291.691 133.494 292.006 133.424 292.278 133.284C292.551 133.14 292.765 132.947 292.92 132.705C293.076 132.462 293.153 132.187 293.153 131.881V130.955C293.078 131.004 292.973 131.049 292.841 131.091C292.712 131.129 292.566 131.165 292.403 131.199C292.241 131.229 292.078 131.258 291.915 131.284C291.752 131.307 291.604 131.328 291.472 131.347C291.188 131.388 290.939 131.455 290.727 131.545C290.515 131.636 290.35 131.759 290.233 131.915C290.116 132.066 290.057 132.256 290.057 132.483C290.057 132.812 290.176 133.064 290.415 133.239C290.657 133.409 290.964 133.494 291.335 133.494ZM297.435 135V126.273H299.781V127.795H299.872C300.031 127.254 300.298 126.845 300.673 126.568C301.048 126.288 301.48 126.148 301.969 126.148C302.09 126.148 302.221 126.155 302.361 126.17C302.501 126.186 302.624 126.206 302.73 126.233V128.381C302.616 128.347 302.459 128.316 302.259 128.29C302.058 128.263 301.874 128.25 301.707 128.25C301.351 128.25 301.033 128.328 300.753 128.483C300.476 128.634 300.257 128.847 300.094 129.119C299.935 129.392 299.855 129.706 299.855 130.062V135H297.435ZM311.243 128.761L309.027 128.898C308.989 128.708 308.908 128.538 308.783 128.386C308.658 128.231 308.493 128.108 308.288 128.017C308.088 127.922 307.847 127.875 307.567 127.875C307.192 127.875 306.875 127.955 306.618 128.114C306.36 128.269 306.232 128.477 306.232 128.739C306.232 128.947 306.315 129.123 306.482 129.267C306.648 129.411 306.934 129.527 307.339 129.614L308.919 129.932C309.768 130.106 310.4 130.386 310.817 130.773C311.233 131.159 311.442 131.667 311.442 132.295C311.442 132.867 311.273 133.369 310.936 133.801C310.603 134.233 310.144 134.57 309.561 134.812C308.982 135.051 308.313 135.17 307.555 135.17C306.4 135.17 305.48 134.93 304.794 134.449C304.112 133.964 303.713 133.305 303.595 132.472L305.976 132.347C306.048 132.699 306.222 132.968 306.499 133.153C306.775 133.335 307.129 133.426 307.561 133.426C307.985 133.426 308.326 133.345 308.584 133.182C308.845 133.015 308.978 132.801 308.982 132.54C308.978 132.32 308.885 132.14 308.703 132C308.521 131.856 308.241 131.746 307.862 131.67L306.351 131.369C305.499 131.199 304.864 130.903 304.447 130.483C304.035 130.062 303.828 129.527 303.828 128.875C303.828 128.314 303.98 127.831 304.283 127.426C304.589 127.021 305.019 126.708 305.572 126.489C306.129 126.269 306.781 126.159 307.527 126.159C308.629 126.159 309.497 126.392 310.129 126.858C310.766 127.324 311.137 127.958 311.243 128.761ZM314.381 135.148C314.006 135.148 313.684 135.015 313.415 134.75C313.15 134.481 313.017 134.159 313.017 133.784C313.017 133.413 313.15 133.095 313.415 132.83C313.684 132.564 314.006 132.432 314.381 132.432C314.744 132.432 315.063 132.564 315.335 132.83C315.608 133.095 315.744 133.413 315.744 133.784C315.744 134.034 315.68 134.263 315.551 134.472C315.426 134.676 315.261 134.841 315.057 134.966C314.852 135.087 314.627 135.148 314.381 135.148ZM321.675 135.17C320.781 135.17 320.012 134.981 319.368 134.602C318.728 134.22 318.235 133.689 317.891 133.011C317.55 132.333 317.379 131.553 317.379 130.67C317.379 129.777 317.552 128.992 317.896 128.318C318.245 127.64 318.739 127.112 319.379 126.733C320.019 126.35 320.781 126.159 321.663 126.159C322.425 126.159 323.091 126.297 323.663 126.574C324.235 126.85 324.688 127.239 325.021 127.739C325.355 128.239 325.538 128.826 325.572 129.5H323.288C323.224 129.064 323.054 128.714 322.777 128.449C322.504 128.18 322.146 128.045 321.703 128.045C321.328 128.045 321 128.148 320.72 128.352C320.444 128.553 320.228 128.847 320.072 129.233C319.917 129.619 319.839 130.087 319.839 130.636C319.839 131.193 319.915 131.667 320.067 132.057C320.222 132.447 320.44 132.744 320.72 132.949C321 133.153 321.328 133.256 321.703 133.256C321.98 133.256 322.228 133.199 322.447 133.085C322.671 132.972 322.855 132.807 322.999 132.591C323.146 132.371 323.243 132.108 323.288 131.801H325.572C325.535 132.468 325.353 133.055 325.027 133.562C324.705 134.066 324.26 134.46 323.692 134.744C323.124 135.028 322.451 135.17 321.675 135.17ZM331.065 135.17C330.183 135.17 329.42 134.983 328.776 134.608C328.135 134.229 327.641 133.703 327.293 133.028C326.944 132.35 326.77 131.564 326.77 130.67C326.77 129.769 326.944 128.981 327.293 128.307C327.641 127.629 328.135 127.102 328.776 126.727C329.42 126.348 330.183 126.159 331.065 126.159C331.948 126.159 332.709 126.348 333.349 126.727C333.993 127.102 334.49 127.629 334.838 128.307C335.187 128.981 335.361 129.769 335.361 130.67C335.361 131.564 335.187 132.35 334.838 133.028C334.49 133.703 333.993 134.229 333.349 134.608C332.709 134.983 331.948 135.17 331.065 135.17ZM331.077 133.295C331.478 133.295 331.813 133.182 332.082 132.955C332.351 132.723 332.554 132.409 332.69 132.011C332.83 131.614 332.901 131.161 332.901 130.653C332.901 130.146 332.83 129.693 332.69 129.295C332.554 128.898 332.351 128.583 332.082 128.352C331.813 128.121 331.478 128.006 331.077 128.006C330.671 128.006 330.33 128.121 330.054 128.352C329.781 128.583 329.575 128.898 329.435 129.295C329.298 129.693 329.23 130.146 329.23 130.653C329.23 131.161 329.298 131.614 329.435 132.011C329.575 132.409 329.781 132.723 330.054 132.955C330.33 133.182 330.671 133.295 331.077 133.295ZM336.935 135V126.273H339.241V127.812H339.344C339.526 127.301 339.829 126.898 340.253 126.602C340.677 126.307 341.185 126.159 341.776 126.159C342.374 126.159 342.884 126.309 343.304 126.608C343.724 126.903 344.005 127.305 344.145 127.812H344.236C344.414 127.312 344.736 126.913 345.202 126.614C345.671 126.311 346.226 126.159 346.866 126.159C347.681 126.159 348.342 126.419 348.849 126.938C349.361 127.453 349.616 128.184 349.616 129.131V135H347.202V129.608C347.202 129.123 347.073 128.759 346.815 128.517C346.558 128.275 346.236 128.153 345.849 128.153C345.41 128.153 345.067 128.294 344.821 128.574C344.575 128.85 344.452 129.216 344.452 129.67V135H342.105V129.557C342.105 129.129 341.982 128.788 341.736 128.534C341.493 128.28 341.173 128.153 340.776 128.153C340.507 128.153 340.264 128.222 340.048 128.358C339.836 128.491 339.668 128.678 339.543 128.92C339.418 129.159 339.355 129.439 339.355 129.761V135H336.935ZM356.597 122.818L352.847 136.75H350.761L354.511 122.818H356.597ZM362.172 135L364.081 123.364H365.899L363.99 135H362.172ZM356.962 132.114L357.263 130.295H366.354L366.053 132.114H356.962ZM358.081 135L359.99 123.364H361.808L359.899 135H358.081ZM357.626 128.068L357.933 126.25H367.024L366.717 128.068H357.626ZM373.222 122.818L369.472 136.75H367.386L371.136 122.818H373.222ZM379.03 126.273V128.091H373.774V126.273H379.03ZM374.967 124.182H377.388V132.318C377.388 132.542 377.422 132.716 377.49 132.841C377.558 132.962 377.653 133.047 377.774 133.097C377.899 133.146 378.043 133.17 378.206 133.17C378.32 133.17 378.433 133.161 378.547 133.142C378.661 133.119 378.748 133.102 378.808 133.091L379.189 134.892C379.068 134.93 378.897 134.973 378.678 135.023C378.458 135.076 378.191 135.108 377.876 135.119C377.293 135.142 376.782 135.064 376.342 134.886C375.907 134.708 375.568 134.432 375.325 134.057C375.083 133.682 374.964 133.208 374.967 132.636V124.182ZM380.607 135V126.273H382.953V127.795H383.044C383.203 127.254 383.47 126.845 383.845 126.568C384.22 126.288 384.652 126.148 385.141 126.148C385.262 126.148 385.393 126.155 385.533 126.17C385.673 126.186 385.796 126.206 385.902 126.233V128.381C385.788 128.347 385.631 128.316 385.43 128.29C385.23 128.263 385.046 128.25 384.879 128.25C384.523 128.25 384.205 128.328 383.925 128.483C383.648 128.634 383.429 128.847 383.266 129.119C383.107 129.392 383.027 129.706 383.027 130.062V135H380.607ZM389.442 126.273L391.044 129.324L392.686 126.273H395.169L392.641 130.636L395.237 135H392.766L391.044 131.983L389.351 135H386.851L389.442 130.636L386.942 126.273H389.442ZM403.271 135V136.835H395.629V135H403.271ZM407.447 135.142C406.785 135.142 406.184 134.972 405.646 134.631C405.112 134.286 404.688 133.78 404.374 133.114C404.063 132.443 403.908 131.621 403.908 130.648C403.908 129.648 404.069 128.816 404.391 128.153C404.713 127.487 405.141 126.989 405.675 126.659C406.213 126.326 406.802 126.159 407.442 126.159C407.93 126.159 408.338 126.242 408.663 126.409C408.993 126.572 409.258 126.777 409.459 127.023C409.663 127.265 409.819 127.504 409.925 127.739H409.999V123.364H412.413V135H410.027V133.602H409.925C409.811 133.845 409.65 134.085 409.442 134.324C409.237 134.559 408.97 134.754 408.641 134.909C408.315 135.064 407.917 135.142 407.447 135.142ZM408.214 133.216C408.605 133.216 408.934 133.11 409.203 132.898C409.476 132.682 409.684 132.381 409.828 131.994C409.976 131.608 410.05 131.155 410.05 130.636C410.05 130.117 409.978 129.667 409.834 129.284C409.69 128.902 409.482 128.606 409.209 128.398C408.936 128.189 408.605 128.085 408.214 128.085C407.817 128.085 407.482 128.193 407.209 128.409C406.936 128.625 406.73 128.924 406.589 129.307C406.449 129.689 406.379 130.133 406.379 130.636C406.379 131.144 406.449 131.593 406.589 131.983C406.733 132.369 406.94 132.672 407.209 132.892C407.482 133.108 407.817 133.216 408.214 133.216ZM418.381 135.17C417.483 135.17 416.71 134.989 416.062 134.625C415.419 134.258 414.922 133.739 414.574 133.068C414.225 132.394 414.051 131.597 414.051 130.676C414.051 129.778 414.225 128.991 414.574 128.312C414.922 127.634 415.413 127.106 416.045 126.727C416.682 126.348 417.428 126.159 418.284 126.159C418.86 126.159 419.396 126.252 419.892 126.438C420.392 126.619 420.828 126.894 421.199 127.261C421.574 127.629 421.866 128.091 422.074 128.648C422.282 129.201 422.386 129.848 422.386 130.591V131.256H415.017V129.756H420.108C420.108 129.407 420.032 129.098 419.881 128.83C419.729 128.561 419.519 128.35 419.25 128.199C418.985 128.044 418.676 127.966 418.324 127.966C417.956 127.966 417.631 128.051 417.347 128.222C417.066 128.388 416.847 128.614 416.688 128.898C416.528 129.178 416.447 129.491 416.443 129.835V131.261C416.443 131.693 416.523 132.066 416.682 132.381C416.845 132.695 417.074 132.938 417.369 133.108C417.665 133.278 418.015 133.364 418.42 133.364C418.689 133.364 418.936 133.326 419.159 133.25C419.383 133.174 419.574 133.061 419.733 132.909C419.892 132.758 420.013 132.572 420.097 132.352L422.335 132.5C422.222 133.038 421.989 133.508 421.636 133.909C421.288 134.307 420.837 134.617 420.284 134.841C419.735 135.061 419.1 135.17 418.381 135.17ZM428.608 126.273V128.091H423.352V126.273H428.608ZM424.545 124.182H426.966V132.318C426.966 132.542 427 132.716 427.068 132.841C427.136 132.962 427.231 133.047 427.352 133.097C427.477 133.146 427.621 133.17 427.784 133.17C427.898 133.17 428.011 133.161 428.125 133.142C428.239 133.119 428.326 133.102 428.386 133.091L428.767 134.892C428.646 134.93 428.475 134.973 428.256 135.023C428.036 135.076 427.769 135.108 427.455 135.119C426.871 135.142 426.36 135.064 425.92 134.886C425.485 134.708 425.146 134.432 424.903 134.057C424.661 133.682 424.542 133.208 424.545 132.636V124.182ZM432.673 135.165C432.116 135.165 431.62 135.068 431.185 134.875C430.749 134.678 430.404 134.388 430.151 134.006C429.901 133.619 429.776 133.138 429.776 132.562C429.776 132.078 429.865 131.67 430.043 131.341C430.221 131.011 430.463 130.746 430.77 130.545C431.077 130.345 431.425 130.193 431.815 130.091C432.209 129.989 432.622 129.917 433.054 129.875C433.562 129.822 433.971 129.773 434.281 129.727C434.592 129.678 434.817 129.606 434.957 129.511C435.098 129.417 435.168 129.277 435.168 129.091V129.057C435.168 128.697 435.054 128.419 434.827 128.222C434.603 128.025 434.285 127.926 433.872 127.926C433.437 127.926 433.09 128.023 432.832 128.216C432.575 128.405 432.404 128.644 432.321 128.932L430.082 128.75C430.196 128.22 430.42 127.761 430.753 127.375C431.086 126.985 431.516 126.686 432.043 126.477C432.573 126.265 433.187 126.159 433.884 126.159C434.368 126.159 434.832 126.216 435.276 126.33C435.723 126.443 436.118 126.619 436.463 126.858C436.812 127.097 437.086 127.403 437.287 127.778C437.488 128.15 437.588 128.595 437.588 129.114V135H435.293V133.79H435.224C435.084 134.062 434.897 134.303 434.662 134.511C434.427 134.716 434.145 134.877 433.815 134.994C433.486 135.108 433.105 135.165 432.673 135.165ZM433.366 133.494C433.723 133.494 434.037 133.424 434.31 133.284C434.582 133.14 434.796 132.947 434.952 132.705C435.107 132.462 435.185 132.187 435.185 131.881V130.955C435.109 131.004 435.005 131.049 434.872 131.091C434.743 131.129 434.598 131.165 434.435 131.199C434.272 131.229 434.109 131.258 433.946 131.284C433.783 131.307 433.635 131.328 433.503 131.347C433.219 131.388 432.971 131.455 432.759 131.545C432.546 131.636 432.382 131.759 432.264 131.915C432.147 132.066 432.088 132.256 432.088 132.483C432.088 132.812 432.207 133.064 432.446 133.239C432.688 133.409 432.995 133.494 433.366 133.494ZM439.466 135V126.273H441.886V135H439.466ZM440.682 125.148C440.322 125.148 440.013 125.028 439.756 124.79C439.502 124.547 439.375 124.258 439.375 123.92C439.375 123.587 439.502 123.301 439.756 123.062C440.013 122.82 440.322 122.699 440.682 122.699C441.042 122.699 441.348 122.82 441.602 123.062C441.86 123.301 441.989 123.587 441.989 123.92C441.989 124.258 441.86 124.547 441.602 124.79C441.348 125.028 441.042 125.148 440.682 125.148ZM446.246 123.364V135H443.825V123.364H446.246ZM449.599 135.148C449.224 135.148 448.902 135.015 448.634 134.75C448.368 134.481 448.236 134.159 448.236 133.784C448.236 133.413 448.368 133.095 448.634 132.83C448.902 132.564 449.224 132.432 449.599 132.432C449.963 132.432 450.281 132.564 450.554 132.83C450.827 133.095 450.963 133.413 450.963 133.784C450.963 134.034 450.899 134.263 450.77 134.472C450.645 134.676 450.48 134.841 450.276 134.966C450.071 135.087 449.846 135.148 449.599 135.148ZM452.95 138.273V126.273H455.337V127.739H455.445C455.551 127.504 455.704 127.265 455.905 127.023C456.109 126.777 456.375 126.572 456.7 126.409C457.03 126.242 457.439 126.159 457.928 126.159C458.564 126.159 459.151 126.326 459.689 126.659C460.227 126.989 460.657 127.487 460.979 128.153C461.301 128.816 461.462 129.648 461.462 130.648C461.462 131.621 461.304 132.443 460.99 133.114C460.679 133.78 460.255 134.286 459.717 134.631C459.183 134.972 458.585 135.142 457.922 135.142C457.452 135.142 457.053 135.064 456.723 134.909C456.397 134.754 456.13 134.559 455.922 134.324C455.714 134.085 455.554 133.845 455.445 133.602H455.371V138.273H452.95ZM455.32 130.636C455.32 131.155 455.392 131.608 455.536 131.994C455.679 132.381 455.888 132.682 456.161 132.898C456.433 133.11 456.765 133.216 457.155 133.216C457.549 133.216 457.882 133.108 458.155 132.892C458.428 132.672 458.634 132.369 458.774 131.983C458.918 131.593 458.99 131.144 458.99 130.636C458.99 130.133 458.92 129.689 458.78 129.307C458.64 128.924 458.433 128.625 458.161 128.409C457.888 128.193 457.553 128.085 457.155 128.085C456.761 128.085 456.428 128.189 456.155 128.398C455.886 128.606 455.679 128.902 455.536 129.284C455.392 129.667 455.32 130.117 455.32 130.636ZM465.496 129.955V135H463.075V123.364H465.428V127.812H465.53C465.727 127.297 466.045 126.894 466.484 126.602C466.924 126.307 467.475 126.159 468.138 126.159C468.744 126.159 469.272 126.292 469.723 126.557C470.178 126.818 470.53 127.195 470.78 127.688C471.034 128.176 471.159 128.761 471.155 129.443V135H468.734V129.875C468.738 129.337 468.602 128.919 468.325 128.619C468.053 128.32 467.67 128.17 467.178 128.17C466.848 128.17 466.556 128.241 466.303 128.381C466.053 128.521 465.856 128.725 465.712 128.994C465.571 129.259 465.5 129.58 465.496 129.955ZM473.06 138.273V126.273H475.446V127.739H475.554C475.66 127.504 475.813 127.265 476.014 127.023C476.219 126.777 476.484 126.572 476.81 126.409C477.139 126.242 477.548 126.159 478.037 126.159C478.673 126.159 479.26 126.326 479.798 126.659C480.336 126.989 480.766 127.487 481.088 128.153C481.41 128.816 481.571 129.648 481.571 130.648C481.571 131.621 481.414 132.443 481.099 133.114C480.789 133.78 480.365 134.286 479.827 134.631C479.293 134.972 478.694 135.142 478.031 135.142C477.562 135.142 477.162 135.064 476.832 134.909C476.507 134.754 476.24 134.559 476.031 134.324C475.823 134.085 475.664 133.845 475.554 133.602H475.48V138.273H473.06ZM475.429 130.636C475.429 131.155 475.501 131.608 475.645 131.994C475.789 132.381 475.997 132.682 476.27 132.898C476.543 133.11 476.874 133.216 477.264 133.216C477.658 133.216 477.991 133.108 478.264 132.892C478.537 132.672 478.743 132.369 478.884 131.983C479.027 131.593 479.099 131.144 479.099 130.636C479.099 130.133 479.029 129.689 478.889 129.307C478.749 128.924 478.543 128.625 478.27 128.409C477.997 128.193 477.662 128.085 477.264 128.085C476.87 128.085 476.537 128.189 476.264 128.398C475.995 128.606 475.789 128.902 475.645 129.284C475.501 129.667 475.429 130.117 475.429 130.636ZM485.264 131.511V131.318C485.268 130.655 485.327 130.127 485.44 129.733C485.558 129.339 485.728 129.021 485.952 128.778C486.175 128.536 486.444 128.316 486.759 128.119C486.993 127.968 487.204 127.811 487.389 127.648C487.575 127.485 487.723 127.305 487.832 127.108C487.942 126.907 487.997 126.684 487.997 126.438C487.997 126.176 487.935 125.947 487.81 125.75C487.685 125.553 487.516 125.402 487.304 125.295C487.096 125.189 486.865 125.136 486.611 125.136C486.365 125.136 486.132 125.191 485.912 125.301C485.692 125.407 485.512 125.566 485.372 125.778C485.232 125.987 485.156 126.246 485.145 126.557H482.827C482.846 125.799 483.027 125.174 483.372 124.682C483.717 124.186 484.173 123.816 484.741 123.574C485.31 123.328 485.937 123.205 486.622 123.205C487.376 123.205 488.043 123.33 488.622 123.58C489.202 123.826 489.656 124.184 489.986 124.653C490.315 125.123 490.48 125.689 490.48 126.352C490.48 126.795 490.406 127.189 490.259 127.534C490.115 127.875 489.912 128.178 489.651 128.443C489.389 128.705 489.08 128.941 488.724 129.153C488.425 129.331 488.179 129.517 487.986 129.71C487.796 129.903 487.654 130.127 487.56 130.381C487.469 130.634 487.421 130.947 487.418 131.318V131.511H485.264ZM486.389 135.148C486.01 135.148 485.687 135.015 485.418 134.75C485.152 134.481 485.022 134.159 485.026 133.784C485.022 133.413 485.152 133.095 485.418 132.83C485.687 132.564 486.01 132.432 486.389 132.432C486.749 132.432 487.065 132.564 487.338 132.83C487.611 133.095 487.749 133.413 487.753 133.784C487.749 134.034 487.683 134.263 487.554 134.472C487.429 134.676 487.264 134.841 487.06 134.966C486.855 135.087 486.632 135.148 486.389 135.148ZM492.185 135V126.273H494.605V135H492.185ZM493.401 125.148C493.041 125.148 492.732 125.028 492.474 124.79C492.221 124.547 492.094 124.258 492.094 123.92C492.094 123.587 492.221 123.301 492.474 123.062C492.732 122.82 493.041 122.699 493.401 122.699C493.76 122.699 494.067 122.82 494.321 123.062C494.579 123.301 494.707 123.587 494.707 123.92C494.707 124.258 494.579 124.547 494.321 124.79C494.067 125.028 493.76 125.148 493.401 125.148ZM499.76 135.142C499.097 135.142 498.497 134.972 497.959 134.631C497.425 134.286 497 133.78 496.686 133.114C496.375 132.443 496.22 131.621 496.22 130.648C496.22 129.648 496.381 128.816 496.703 128.153C497.025 127.487 497.453 126.989 497.987 126.659C498.525 126.326 499.114 126.159 499.754 126.159C500.243 126.159 500.65 126.242 500.976 126.409C501.305 126.572 501.571 126.777 501.771 127.023C501.976 127.265 502.131 127.504 502.237 127.739H502.311V123.364H504.726V135H502.339V133.602H502.237C502.124 133.845 501.963 134.085 501.754 134.324C501.55 134.559 501.283 134.754 500.953 134.909C500.627 135.064 500.23 135.142 499.76 135.142ZM500.527 133.216C500.917 133.216 501.247 133.11 501.516 132.898C501.788 132.682 501.997 132.381 502.141 131.994C502.288 131.608 502.362 131.155 502.362 130.636C502.362 130.117 502.29 129.667 502.146 129.284C502.002 128.902 501.794 128.606 501.521 128.398C501.249 128.189 500.917 128.085 500.527 128.085C500.129 128.085 499.794 128.193 499.521 128.409C499.249 128.625 499.042 128.924 498.902 129.307C498.762 129.689 498.692 130.133 498.692 130.636C498.692 131.144 498.762 131.593 498.902 131.983C499.046 132.369 499.252 132.672 499.521 132.892C499.794 133.108 500.129 133.216 500.527 133.216ZM507.261 129.466V127.449H515.108V129.466H507.261ZM507.261 133.239V131.222H515.108V133.239H507.261Z" fill="#8C8C8C"/>
<path d="M521.818 135.159C521.015 135.159 520.299 135.011 519.67 134.716C519.045 134.42 518.549 134.013 518.182 133.494C517.814 132.975 517.623 132.381 517.608 131.71H519.994C520.021 132.161 520.21 132.527 520.562 132.807C520.915 133.087 521.333 133.227 521.818 133.227C522.205 133.227 522.545 133.142 522.841 132.972C523.14 132.797 523.373 132.557 523.54 132.25C523.71 131.939 523.795 131.583 523.795 131.182C523.795 130.773 523.708 130.413 523.534 130.102C523.364 129.792 523.127 129.549 522.824 129.375C522.521 129.201 522.174 129.112 521.784 129.108C521.443 129.108 521.112 129.178 520.79 129.318C520.472 129.458 520.223 129.65 520.045 129.892L517.858 129.5L518.409 123.364H525.523V125.375H520.438L520.136 128.29H520.205C520.409 128.002 520.718 127.763 521.131 127.574C521.544 127.384 522.006 127.29 522.517 127.29C523.218 127.29 523.843 127.455 524.392 127.784C524.941 128.114 525.375 128.566 525.693 129.142C526.011 129.714 526.169 130.373 526.165 131.119C526.169 131.903 525.987 132.6 525.619 133.21C525.256 133.816 524.746 134.294 524.091 134.642C523.439 134.987 522.682 135.159 521.818 135.159ZM532.182 135.159C531.333 135.159 530.578 135.013 529.915 134.722C529.256 134.426 528.735 134.021 528.352 133.506C527.973 132.987 527.778 132.388 527.767 131.71H530.244C530.259 131.994 530.352 132.244 530.523 132.46C530.697 132.672 530.928 132.837 531.216 132.955C531.504 133.072 531.828 133.131 532.188 133.131C532.562 133.131 532.894 133.064 533.182 132.932C533.47 132.799 533.695 132.616 533.858 132.381C534.021 132.146 534.102 131.875 534.102 131.568C534.102 131.258 534.015 130.983 533.841 130.744C533.67 130.502 533.424 130.312 533.102 130.176C532.784 130.04 532.405 129.972 531.966 129.972H530.881V128.165H531.966C532.337 128.165 532.665 128.1 532.949 127.972C533.237 127.843 533.46 127.665 533.619 127.438C533.778 127.206 533.858 126.938 533.858 126.631C533.858 126.339 533.788 126.083 533.648 125.864C533.511 125.64 533.318 125.466 533.068 125.341C532.822 125.216 532.534 125.153 532.205 125.153C531.871 125.153 531.566 125.214 531.29 125.335C531.013 125.453 530.792 125.621 530.625 125.841C530.458 126.061 530.369 126.318 530.358 126.614H528C528.011 125.943 528.203 125.352 528.574 124.841C528.945 124.33 529.445 123.93 530.074 123.642C530.706 123.35 531.42 123.205 532.216 123.205C533.019 123.205 533.722 123.35 534.324 123.642C534.926 123.934 535.394 124.328 535.727 124.824C536.064 125.316 536.231 125.869 536.227 126.483C536.231 127.134 536.028 127.678 535.619 128.114C535.214 128.549 534.686 128.826 534.034 128.943V129.034C534.89 129.144 535.542 129.441 535.989 129.926C536.439 130.407 536.663 131.009 536.659 131.733C536.663 132.396 536.472 132.985 536.085 133.5C535.703 134.015 535.174 134.42 534.5 134.716C533.826 135.011 533.053 135.159 532.182 135.159ZM543.143 126.273V128.091H537.757V126.273H543.143ZM538.99 135V125.642C538.99 125.009 539.113 124.485 539.359 124.068C539.609 123.652 539.95 123.339 540.382 123.131C540.814 122.922 541.304 122.818 541.854 122.818C542.225 122.818 542.564 122.847 542.871 122.903C543.181 122.96 543.412 123.011 543.564 123.057L543.132 124.875C543.037 124.845 542.92 124.816 542.78 124.79C542.643 124.763 542.503 124.75 542.359 124.75C542.003 124.75 541.755 124.833 541.615 125C541.475 125.163 541.405 125.392 541.405 125.688V135H538.99ZM549.315 126.273V128.091H543.929V126.273H549.315ZM545.162 135V125.642C545.162 125.009 545.285 124.485 545.531 124.068C545.781 123.652 546.122 123.339 546.554 123.131C546.986 122.922 547.476 122.818 548.026 122.818C548.397 122.818 548.736 122.847 549.043 122.903C549.353 122.96 549.584 123.011 549.736 123.057L549.304 124.875C549.209 124.845 549.092 124.816 548.952 124.79C548.815 124.763 548.675 124.75 548.531 124.75C548.175 124.75 547.927 124.833 547.787 125C547.647 125.163 547.577 125.392 547.577 125.688V135H545.162ZM550.771 135V133.227L554.913 129.392C555.266 129.051 555.561 128.744 555.8 128.472C556.042 128.199 556.226 127.932 556.351 127.67C556.476 127.405 556.538 127.119 556.538 126.812C556.538 126.472 556.461 126.178 556.305 125.932C556.15 125.682 555.938 125.491 555.669 125.358C555.4 125.222 555.095 125.153 554.754 125.153C554.398 125.153 554.088 125.225 553.822 125.369C553.557 125.513 553.353 125.72 553.209 125.989C553.065 126.258 552.993 126.578 552.993 126.949H550.658C550.658 126.187 550.83 125.527 551.175 124.966C551.519 124.405 552.002 123.972 552.624 123.665C553.245 123.358 553.961 123.205 554.771 123.205C555.605 123.205 556.33 123.352 556.947 123.648C557.569 123.939 558.052 124.345 558.396 124.864C558.741 125.383 558.913 125.977 558.913 126.648C558.913 127.087 558.826 127.521 558.652 127.949C558.482 128.377 558.177 128.852 557.737 129.375C557.298 129.894 556.679 130.517 555.879 131.244L554.18 132.909V132.989H559.067V135H550.771ZM563.361 135.165C562.804 135.165 562.308 135.068 561.872 134.875C561.437 134.678 561.092 134.388 560.838 134.006C560.588 133.619 560.463 133.138 560.463 132.562C560.463 132.078 560.552 131.67 560.73 131.341C560.908 131.011 561.151 130.746 561.457 130.545C561.764 130.345 562.113 130.193 562.503 130.091C562.897 129.989 563.31 129.917 563.741 129.875C564.249 129.822 564.658 129.773 564.969 129.727C565.279 129.678 565.505 129.606 565.645 129.511C565.785 129.417 565.855 129.277 565.855 129.091V129.057C565.855 128.697 565.741 128.419 565.514 128.222C565.291 128.025 564.973 127.926 564.56 127.926C564.124 127.926 563.777 128.023 563.52 128.216C563.262 128.405 563.092 128.644 563.009 128.932L560.77 128.75C560.884 128.22 561.107 127.761 561.44 127.375C561.774 126.985 562.204 126.686 562.73 126.477C563.26 126.265 563.874 126.159 564.571 126.159C565.056 126.159 565.52 126.216 565.963 126.33C566.41 126.443 566.806 126.619 567.151 126.858C567.499 127.097 567.774 127.403 567.974 127.778C568.175 128.15 568.276 128.595 568.276 129.114V135H565.98V133.79H565.912C565.772 134.062 565.584 134.303 565.349 134.511C565.115 134.716 564.832 134.877 564.503 134.994C564.173 135.108 563.793 135.165 563.361 135.165ZM564.054 133.494C564.41 133.494 564.724 133.424 564.997 133.284C565.27 133.14 565.484 132.947 565.639 132.705C565.795 132.462 565.872 132.187 565.872 131.881V130.955C565.796 131.004 565.692 131.049 565.56 131.091C565.431 131.129 565.285 131.165 565.122 131.199C564.959 131.229 564.796 131.258 564.634 131.284C564.471 131.307 564.323 131.328 564.19 131.347C563.906 131.388 563.658 131.455 563.446 131.545C563.234 131.636 563.069 131.759 562.952 131.915C562.834 132.066 562.776 132.256 562.776 132.483C562.776 132.812 562.895 133.064 563.134 133.239C563.376 133.409 563.683 133.494 564.054 133.494ZM574.341 123.205C574.939 123.205 575.515 123.305 576.068 123.506C576.625 123.706 577.121 124.027 577.557 124.466C577.996 124.905 578.343 125.489 578.597 126.216C578.854 126.939 578.985 127.828 578.989 128.881C578.989 129.869 578.877 130.752 578.653 131.528C578.434 132.301 578.117 132.958 577.705 133.5C577.292 134.042 576.794 134.455 576.21 134.739C575.627 135.019 574.975 135.159 574.256 135.159C573.479 135.159 572.794 135.009 572.199 134.71C571.604 134.407 571.125 133.996 570.761 133.477C570.402 132.955 570.184 132.367 570.108 131.716H572.534C572.629 132.14 572.828 132.47 573.131 132.705C573.434 132.936 573.809 133.051 574.256 133.051C575.013 133.051 575.589 132.722 575.983 132.062C576.377 131.4 576.576 130.492 576.58 129.341H576.5C576.326 129.682 576.091 129.975 575.795 130.222C575.5 130.464 575.161 130.652 574.778 130.784C574.4 130.917 573.996 130.983 573.568 130.983C572.883 130.983 572.271 130.822 571.733 130.5C571.195 130.178 570.771 129.735 570.46 129.17C570.15 128.606 569.994 127.962 569.994 127.239C569.991 126.458 570.17 125.763 570.534 125.153C570.898 124.544 571.405 124.066 572.057 123.722C572.712 123.373 573.473 123.201 574.341 123.205ZM574.358 125.136C573.975 125.136 573.634 125.227 573.335 125.409C573.04 125.591 572.805 125.835 572.631 126.142C572.46 126.449 572.377 126.792 572.381 127.17C572.381 127.553 572.464 127.898 572.631 128.205C572.801 128.508 573.032 128.75 573.324 128.932C573.619 129.11 573.956 129.199 574.335 129.199C574.619 129.199 574.883 129.146 575.125 129.04C575.367 128.934 575.578 128.788 575.756 128.602C575.938 128.413 576.08 128.195 576.182 127.949C576.284 127.703 576.335 127.441 576.335 127.165C576.331 126.797 576.244 126.46 576.074 126.153C575.903 125.847 575.669 125.6 575.369 125.415C575.07 125.229 574.733 125.136 574.358 125.136ZM584.693 135.17C583.795 135.17 583.023 134.989 582.375 134.625C581.731 134.258 581.235 133.739 580.886 133.068C580.538 132.394 580.364 131.597 580.364 130.676C580.364 129.778 580.538 128.991 580.886 128.312C581.235 127.634 581.725 127.106 582.358 126.727C582.994 126.348 583.741 126.159 584.597 126.159C585.172 126.159 585.708 126.252 586.205 126.438C586.705 126.619 587.14 126.894 587.511 127.261C587.886 127.629 588.178 128.091 588.386 128.648C588.595 129.201 588.699 129.848 588.699 130.591V131.256H581.33V129.756H586.42C586.42 129.407 586.345 129.098 586.193 128.83C586.042 128.561 585.831 128.35 585.562 128.199C585.297 128.044 584.989 127.966 584.636 127.966C584.269 127.966 583.943 128.051 583.659 128.222C583.379 128.388 583.159 128.614 583 128.898C582.841 129.178 582.759 129.491 582.756 129.835V131.261C582.756 131.693 582.835 132.066 582.994 132.381C583.157 132.695 583.386 132.938 583.682 133.108C583.977 133.278 584.328 133.364 584.733 133.364C585.002 133.364 585.248 133.326 585.472 133.25C585.695 133.174 585.886 133.061 586.045 132.909C586.205 132.758 586.326 132.572 586.409 132.352L588.648 132.5C588.534 133.038 588.301 133.508 587.949 133.909C587.6 134.307 587.15 134.617 586.597 134.841C586.047 135.061 585.413 135.17 584.693 135.17ZM595.716 129.261V131.182H590.409V129.261H595.716ZM602.472 126.273V128.091H597.085V126.273H602.472ZM598.318 135V125.642C598.318 125.009 598.441 124.485 598.688 124.068C598.938 123.652 599.278 123.339 599.71 123.131C600.142 122.922 600.633 122.818 601.182 122.818C601.553 122.818 601.892 122.847 602.199 122.903C602.509 122.96 602.741 123.011 602.892 123.057L602.46 124.875C602.366 124.845 602.248 124.816 602.108 124.79C601.972 124.763 601.831 124.75 601.688 124.75C601.331 124.75 601.083 124.833 600.943 125C600.803 125.163 600.733 125.392 600.733 125.688V135H598.318ZM602.751 132.955V131.017L607.609 123.364H609.28V126.045H608.291L605.229 130.892V130.983H612.132V132.955H602.751ZM608.337 135V132.364L608.382 131.506V123.364H610.689V135H608.337ZM618.112 135.159C617.237 135.159 616.459 135.017 615.777 134.733C615.099 134.445 614.567 134.053 614.18 133.557C613.794 133.061 613.601 132.498 613.601 131.869C613.601 131.384 613.711 130.939 613.93 130.534C614.154 130.125 614.457 129.786 614.839 129.517C615.222 129.244 615.65 129.07 616.124 128.994V128.915C615.502 128.79 614.999 128.489 614.612 128.011C614.226 127.53 614.033 126.972 614.033 126.335C614.033 125.733 614.209 125.197 614.561 124.727C614.913 124.254 615.396 123.883 616.01 123.614C616.627 123.341 617.328 123.205 618.112 123.205C618.896 123.205 619.595 123.341 620.209 123.614C620.826 123.886 621.311 124.259 621.663 124.733C622.016 125.203 622.194 125.737 622.197 126.335C622.194 126.975 621.997 127.534 621.607 128.011C621.216 128.489 620.716 128.79 620.107 128.915V128.994C620.572 129.07 620.995 129.244 621.374 129.517C621.756 129.786 622.059 130.125 622.283 130.534C622.51 130.939 622.625 131.384 622.629 131.869C622.625 132.498 622.43 133.061 622.044 133.557C621.658 134.053 621.124 134.445 620.442 134.733C619.764 135.017 618.987 135.159 618.112 135.159ZM618.112 133.352C618.502 133.352 618.843 133.282 619.135 133.142C619.427 132.998 619.654 132.801 619.817 132.551C619.983 132.297 620.067 132.006 620.067 131.676C620.067 131.339 619.982 131.042 619.811 130.784C619.641 130.523 619.41 130.318 619.118 130.17C618.826 130.019 618.491 129.943 618.112 129.943C617.737 129.943 617.402 130.019 617.107 130.17C616.811 130.318 616.578 130.523 616.408 130.784C616.241 131.042 616.158 131.339 616.158 131.676C616.158 132.006 616.239 132.297 616.402 132.551C616.565 132.801 616.794 132.998 617.089 133.142C617.385 133.282 617.726 133.352 618.112 133.352ZM618.112 128.153C618.438 128.153 618.728 128.087 618.982 127.955C619.235 127.822 619.434 127.638 619.578 127.403C619.722 127.169 619.794 126.898 619.794 126.591C619.794 126.288 619.722 126.023 619.578 125.795C619.434 125.564 619.237 125.384 618.987 125.256C618.737 125.123 618.446 125.057 618.112 125.057C617.783 125.057 617.491 125.123 617.237 125.256C616.983 125.384 616.785 125.564 616.641 125.795C616.5 126.023 616.43 126.288 616.43 126.591C616.43 126.898 616.502 127.169 616.646 127.403C616.79 127.638 616.989 127.822 617.243 127.955C617.497 128.087 617.786 128.153 618.112 128.153ZM629.412 123.364V135H626.952V125.699H626.884L624.219 127.369V125.188L627.099 123.364H629.412ZM637.638 128.222V130.142H632.331V128.222H637.638ZM639.501 132.955V131.017L644.359 123.364H646.03V126.045H645.041L641.979 130.892V130.983H648.882V132.955H639.501ZM645.087 135V132.364L645.132 131.506V123.364H647.439V135H645.087ZM654.862 135.159C653.987 135.159 653.209 135.017 652.527 134.733C651.849 134.445 651.317 134.053 650.93 133.557C650.544 133.061 650.351 132.498 650.351 131.869C650.351 131.384 650.461 130.939 650.68 130.534C650.904 130.125 651.207 129.786 651.589 129.517C651.972 129.244 652.4 129.07 652.874 128.994V128.915C652.252 128.79 651.749 128.489 651.362 128.011C650.976 127.53 650.783 126.972 650.783 126.335C650.783 125.733 650.959 125.197 651.311 124.727C651.663 124.254 652.146 123.883 652.76 123.614C653.377 123.341 654.078 123.205 654.862 123.205C655.646 123.205 656.345 123.341 656.959 123.614C657.576 123.886 658.061 124.259 658.413 124.733C658.766 125.203 658.944 125.737 658.947 126.335C658.944 126.975 658.747 127.534 658.357 128.011C657.966 128.489 657.466 128.79 656.857 128.915V128.994C657.322 129.07 657.745 129.244 658.124 129.517C658.506 129.786 658.809 130.125 659.033 130.534C659.26 130.939 659.375 131.384 659.379 131.869C659.375 132.498 659.18 133.061 658.794 133.557C658.408 134.053 657.874 134.445 657.192 134.733C656.514 135.017 655.737 135.159 654.862 135.159ZM654.862 133.352C655.252 133.352 655.593 133.282 655.885 133.142C656.177 132.998 656.404 132.801 656.567 132.551C656.733 132.297 656.817 132.006 656.817 131.676C656.817 131.339 656.732 131.042 656.561 130.784C656.391 130.523 656.16 130.318 655.868 130.17C655.576 130.019 655.241 129.943 654.862 129.943C654.487 129.943 654.152 130.019 653.857 130.17C653.561 130.318 653.328 130.523 653.158 130.784C652.991 131.042 652.908 131.339 652.908 131.676C652.908 132.006 652.989 132.297 653.152 132.551C653.315 132.801 653.544 132.998 653.839 133.142C654.135 133.282 654.476 133.352 654.862 133.352ZM654.862 128.153C655.188 128.153 655.478 128.087 655.732 127.955C655.985 127.822 656.184 127.638 656.328 127.403C656.472 127.169 656.544 126.898 656.544 126.591C656.544 126.288 656.472 126.023 656.328 125.795C656.184 125.564 655.987 125.384 655.737 125.256C655.487 125.123 655.196 125.057 654.862 125.057C654.533 125.057 654.241 125.123 653.987 125.256C653.733 125.384 653.535 125.564 653.391 125.795C653.25 126.023 653.18 126.288 653.18 126.591C653.18 126.898 653.252 127.169 653.396 127.403C653.54 127.638 653.739 127.822 653.993 127.955C654.247 128.087 654.536 128.153 654.862 128.153ZM665.065 135.17C664.171 135.17 663.402 134.981 662.759 134.602C662.118 134.22 661.626 133.689 661.281 133.011C660.94 132.333 660.77 131.553 660.77 130.67C660.77 129.777 660.942 128.992 661.287 128.318C661.635 127.64 662.13 127.112 662.77 126.733C663.41 126.35 664.171 126.159 665.054 126.159C665.815 126.159 666.482 126.297 667.054 126.574C667.626 126.85 668.079 127.239 668.412 127.739C668.745 128.239 668.929 128.826 668.963 129.5H666.679C666.615 129.064 666.444 128.714 666.168 128.449C665.895 128.18 665.537 128.045 665.094 128.045C664.719 128.045 664.391 128.148 664.111 128.352C663.834 128.553 663.618 128.847 663.463 129.233C663.308 129.619 663.23 130.087 663.23 130.636C663.23 131.193 663.306 131.667 663.457 132.057C663.613 132.447 663.83 132.744 664.111 132.949C664.391 133.153 664.719 133.256 665.094 133.256C665.37 133.256 665.618 133.199 665.838 133.085C666.062 132.972 666.245 132.807 666.389 132.591C666.537 132.371 666.634 132.108 666.679 131.801H668.963C668.925 132.468 668.743 133.055 668.418 133.562C668.096 134.066 667.651 134.46 667.082 134.744C666.514 135.028 665.842 135.17 665.065 135.17ZM674.956 135.159C674.357 135.155 673.78 135.055 673.223 134.858C672.67 134.661 672.174 134.341 671.734 133.898C671.295 133.455 670.946 132.867 670.689 132.136C670.435 131.405 670.308 130.508 670.308 129.443C670.312 128.466 670.424 127.593 670.643 126.824C670.867 126.051 671.185 125.396 671.598 124.858C672.015 124.32 672.513 123.911 673.092 123.631C673.672 123.347 674.321 123.205 675.041 123.205C675.818 123.205 676.503 123.356 677.098 123.659C677.693 123.958 678.17 124.366 678.53 124.881C678.893 125.396 679.113 125.973 679.189 126.614H676.763C676.668 126.208 676.469 125.89 676.166 125.659C675.863 125.428 675.488 125.312 675.041 125.312C674.284 125.312 673.708 125.642 673.314 126.301C672.924 126.96 672.725 127.856 672.717 128.989H672.797C672.971 128.644 673.206 128.35 673.501 128.108C673.801 127.862 674.14 127.674 674.518 127.545C674.901 127.413 675.304 127.347 675.729 127.347C676.418 127.347 677.032 127.509 677.57 127.835C678.107 128.157 678.532 128.6 678.842 129.165C679.153 129.729 679.308 130.375 679.308 131.102C679.308 131.89 679.125 132.591 678.757 133.205C678.393 133.818 677.884 134.299 677.229 134.648C676.577 134.992 675.82 135.163 674.956 135.159ZM674.945 133.227C675.323 133.227 675.662 133.136 675.962 132.955C676.261 132.773 676.496 132.527 676.666 132.216C676.837 131.905 676.922 131.557 676.922 131.17C676.922 130.784 676.837 130.437 676.666 130.131C676.5 129.824 676.268 129.58 675.973 129.398C675.678 129.216 675.34 129.125 674.962 129.125C674.678 129.125 674.414 129.178 674.172 129.284C673.933 129.39 673.723 129.538 673.541 129.727C673.363 129.917 673.223 130.136 673.121 130.386C673.018 130.633 672.967 130.896 672.967 131.176C672.967 131.551 673.053 131.894 673.223 132.205C673.397 132.515 673.632 132.763 673.928 132.949C674.227 133.134 674.566 133.227 674.945 133.227ZM686.513 129.261V131.182H681.206V129.261H686.513ZM691.064 135.165C690.507 135.165 690.011 135.068 689.575 134.875C689.14 134.678 688.795 134.388 688.541 134.006C688.291 133.619 688.166 133.138 688.166 132.562C688.166 132.078 688.255 131.67 688.433 131.341C688.611 131.011 688.854 130.746 689.161 130.545C689.467 130.345 689.816 130.193 690.206 130.091C690.6 129.989 691.013 129.917 691.445 129.875C691.952 129.822 692.361 129.773 692.672 129.727C692.982 129.678 693.208 129.606 693.348 129.511C693.488 129.417 693.558 129.277 693.558 129.091V129.057C693.558 128.697 693.445 128.419 693.217 128.222C692.994 128.025 692.676 127.926 692.263 127.926C691.827 127.926 691.481 128.023 691.223 128.216C690.965 128.405 690.795 128.644 690.712 128.932L688.473 128.75C688.587 128.22 688.81 127.761 689.143 127.375C689.477 126.985 689.907 126.686 690.433 126.477C690.964 126.265 691.577 126.159 692.274 126.159C692.759 126.159 693.223 126.216 693.666 126.33C694.113 126.443 694.509 126.619 694.854 126.858C695.202 127.097 695.477 127.403 695.678 127.778C695.878 128.15 695.979 128.595 695.979 129.114V135H693.683V133.79H693.615C693.475 134.062 693.287 134.303 693.053 134.511C692.818 134.716 692.536 134.877 692.206 134.994C691.876 135.108 691.496 135.165 691.064 135.165ZM691.757 133.494C692.113 133.494 692.428 133.424 692.7 133.284C692.973 133.14 693.187 132.947 693.342 132.705C693.498 132.462 693.575 132.187 693.575 131.881V130.955C693.5 131.004 693.395 131.049 693.263 131.091C693.134 131.129 692.988 131.165 692.825 131.199C692.662 131.229 692.5 131.258 692.337 131.284C692.174 131.307 692.026 131.328 691.893 131.347C691.609 131.388 691.361 131.455 691.149 131.545C690.937 131.636 690.772 131.759 690.655 131.915C690.537 132.066 690.479 132.256 690.479 132.483C690.479 132.812 690.598 133.064 690.837 133.239C691.079 133.409 691.386 133.494 691.757 133.494ZM702.3 135.159C701.701 135.155 701.124 135.055 700.567 134.858C700.014 134.661 699.518 134.341 699.078 133.898C698.639 133.455 698.29 132.867 698.033 132.136C697.779 131.405 697.652 130.508 697.652 129.443C697.656 128.466 697.768 127.593 697.987 126.824C698.211 126.051 698.529 125.396 698.942 124.858C699.358 124.32 699.857 123.911 700.436 123.631C701.016 123.347 701.665 123.205 702.385 123.205C703.161 123.205 703.847 123.356 704.442 123.659C705.036 123.958 705.514 124.366 705.874 124.881C706.237 125.396 706.457 125.973 706.533 126.614H704.107C704.012 126.208 703.813 125.89 703.51 125.659C703.207 125.428 702.832 125.312 702.385 125.312C701.627 125.312 701.052 125.642 700.658 126.301C700.268 126.96 700.069 127.856 700.061 128.989H700.141C700.315 128.644 700.55 128.35 700.845 128.108C701.144 127.862 701.483 127.674 701.862 127.545C702.245 127.413 702.648 127.347 703.072 127.347C703.762 127.347 704.375 127.509 704.913 127.835C705.451 128.157 705.875 128.6 706.186 129.165C706.497 129.729 706.652 130.375 706.652 131.102C706.652 131.89 706.468 132.591 706.101 133.205C705.737 133.818 705.228 134.299 704.572 134.648C703.921 134.992 703.163 135.163 702.3 135.159ZM702.288 133.227C702.667 133.227 703.006 133.136 703.305 132.955C703.605 132.773 703.839 132.527 704.01 132.216C704.18 131.905 704.266 131.557 704.266 131.17C704.266 130.784 704.18 130.437 704.01 130.131C703.843 129.824 703.612 129.58 703.317 129.398C703.021 129.216 702.684 129.125 702.305 129.125C702.021 129.125 701.758 129.178 701.516 129.284C701.277 129.39 701.067 129.538 700.885 129.727C700.707 129.917 700.567 130.136 700.464 130.386C700.362 130.633 700.311 130.896 700.311 131.176C700.311 131.551 700.396 131.894 700.567 132.205C700.741 132.515 700.976 132.763 701.271 132.949C701.571 133.134 701.91 133.227 702.288 133.227ZM712.646 135.159C711.843 135.159 711.127 135.011 710.499 134.716C709.874 134.42 709.377 134.013 709.01 133.494C708.643 132.975 708.451 132.381 708.436 131.71H710.822C710.849 132.161 711.038 132.527 711.391 132.807C711.743 133.087 712.161 133.227 712.646 133.227C713.033 133.227 713.374 133.142 713.669 132.972C713.968 132.797 714.201 132.557 714.368 132.25C714.538 131.939 714.624 131.583 714.624 131.182C714.624 130.773 714.536 130.413 714.362 130.102C714.192 129.792 713.955 129.549 713.652 129.375C713.349 129.201 713.002 129.112 712.612 129.108C712.271 129.108 711.94 129.178 711.618 129.318C711.3 129.458 711.052 129.65 710.874 129.892L708.686 129.5L709.237 123.364H716.351V125.375H711.266L710.964 128.29H711.033C711.237 128.002 711.546 127.763 711.959 127.574C712.372 127.384 712.834 127.29 713.345 127.29C714.046 127.29 714.671 127.455 715.22 127.784C715.769 128.114 716.203 128.566 716.521 129.142C716.839 129.714 716.997 130.373 716.993 131.119C716.997 131.903 716.815 132.6 716.447 133.21C716.084 133.816 715.574 134.294 714.919 134.642C714.268 134.987 713.51 135.159 712.646 135.159ZM723.175 135.159C722.576 135.155 721.999 135.055 721.442 134.858C720.889 134.661 720.393 134.341 719.953 133.898C719.514 133.455 719.165 132.867 718.908 132.136C718.654 131.405 718.527 130.508 718.527 129.443C718.531 128.466 718.643 127.593 718.862 126.824C719.086 126.051 719.404 125.396 719.817 124.858C720.233 124.32 720.732 123.911 721.311 123.631C721.891 123.347 722.54 123.205 723.26 123.205C724.036 123.205 724.722 123.356 725.317 123.659C725.911 123.958 726.389 124.366 726.749 124.881C727.112 125.396 727.332 125.973 727.408 126.614H724.982C724.887 126.208 724.688 125.89 724.385 125.659C724.082 125.428 723.707 125.312 723.26 125.312C722.502 125.312 721.927 125.642 721.533 126.301C721.143 126.96 720.944 127.856 720.936 128.989H721.016C721.19 128.644 721.425 128.35 721.72 128.108C722.019 127.862 722.358 127.674 722.737 127.545C723.12 127.413 723.523 127.347 723.947 127.347C724.637 127.347 725.25 127.509 725.788 127.835C726.326 128.157 726.75 128.6 727.061 129.165C727.372 129.729 727.527 130.375 727.527 131.102C727.527 131.89 727.343 132.591 726.976 133.205C726.612 133.818 726.103 134.299 725.447 134.648C724.796 134.992 724.038 135.163 723.175 135.159ZM723.163 133.227C723.542 133.227 723.881 133.136 724.18 132.955C724.48 132.773 724.714 132.527 724.885 132.216C725.055 131.905 725.141 131.557 725.141 131.17C725.141 130.784 725.055 130.437 724.885 130.131C724.718 129.824 724.487 129.58 724.192 129.398C723.896 129.216 723.559 129.125 723.18 129.125C722.896 129.125 722.633 129.178 722.391 129.284C722.152 129.39 721.942 129.538 721.76 129.727C721.582 129.917 721.442 130.136 721.339 130.386C721.237 130.633 721.186 130.896 721.186 131.176C721.186 131.551 721.271 131.894 721.442 132.205C721.616 132.515 721.851 132.763 722.146 132.949C722.446 133.134 722.785 133.227 723.163 133.227ZM734.732 128.222V130.142H729.425V128.222H734.732ZM736.443 135V133.227L740.585 129.392C740.938 129.051 741.233 128.744 741.472 128.472C741.714 128.199 741.898 127.932 742.023 127.67C742.148 127.405 742.21 127.119 742.21 126.812C742.21 126.472 742.133 126.178 741.977 125.932C741.822 125.682 741.61 125.491 741.341 125.358C741.072 125.222 740.767 125.153 740.426 125.153C740.07 125.153 739.759 125.225 739.494 125.369C739.229 125.513 739.025 125.72 738.881 125.989C738.737 126.258 738.665 126.578 738.665 126.949H736.33C736.33 126.187 736.502 125.527 736.847 124.966C737.191 124.405 737.674 123.972 738.295 123.665C738.917 123.358 739.633 123.205 740.443 123.205C741.277 123.205 742.002 123.352 742.619 123.648C743.241 123.939 743.723 124.345 744.068 124.864C744.413 125.383 744.585 125.977 744.585 126.648C744.585 127.087 744.498 127.521 744.324 127.949C744.153 128.377 743.848 128.852 743.409 129.375C742.97 129.894 742.35 130.517 741.551 131.244L739.852 132.909V132.989H744.739V135H736.443ZM751.084 135.256C750.107 135.252 749.266 135.011 748.561 134.534C747.86 134.057 747.321 133.366 746.942 132.46C746.567 131.555 746.381 130.466 746.385 129.193C746.385 127.924 746.572 126.843 746.947 125.949C747.326 125.055 747.866 124.375 748.567 123.909C749.271 123.439 750.11 123.205 751.084 123.205C752.057 123.205 752.894 123.439 753.595 123.909C754.3 124.379 754.841 125.061 755.22 125.955C755.599 126.845 755.786 127.924 755.783 129.193C755.783 130.47 755.593 131.561 755.214 132.466C754.839 133.371 754.302 134.062 753.601 134.54C752.9 135.017 752.061 135.256 751.084 135.256ZM751.084 133.216C751.75 133.216 752.283 132.881 752.68 132.21C753.078 131.54 753.275 130.534 753.271 129.193C753.271 128.311 753.18 127.576 752.999 126.989C752.821 126.402 752.567 125.96 752.237 125.665C751.911 125.369 751.527 125.222 751.084 125.222C750.421 125.222 749.891 125.553 749.493 126.216C749.095 126.879 748.894 127.871 748.891 129.193C748.891 130.087 748.98 130.833 749.158 131.432C749.339 132.027 749.595 132.473 749.925 132.773C750.254 133.068 750.641 133.216 751.084 133.216ZM762.599 123.364V135H760.139V125.699H760.071L757.406 127.369V125.188L760.287 123.364H762.599ZM769.666 135.159C768.818 135.159 768.062 135.013 767.399 134.722C766.74 134.426 766.219 134.021 765.837 133.506C765.458 132.987 765.263 132.388 765.251 131.71H767.729C767.744 131.994 767.837 132.244 768.007 132.46C768.181 132.672 768.412 132.837 768.7 132.955C768.988 133.072 769.312 133.131 769.672 133.131C770.047 133.131 770.378 133.064 770.666 132.932C770.954 132.799 771.179 132.616 771.342 132.381C771.505 132.146 771.587 131.875 771.587 131.568C771.587 131.258 771.5 130.983 771.325 130.744C771.155 130.502 770.909 130.312 770.587 130.176C770.268 130.04 769.89 129.972 769.45 129.972H768.365V128.165H769.45C769.821 128.165 770.149 128.1 770.433 127.972C770.721 127.843 770.945 127.665 771.104 127.438C771.263 127.206 771.342 126.938 771.342 126.631C771.342 126.339 771.272 126.083 771.132 125.864C770.996 125.64 770.803 125.466 770.553 125.341C770.306 125.216 770.018 125.153 769.689 125.153C769.356 125.153 769.051 125.214 768.774 125.335C768.498 125.453 768.276 125.621 768.109 125.841C767.943 126.061 767.854 126.318 767.842 126.614H765.484C765.496 125.943 765.687 125.352 766.058 124.841C766.429 124.33 766.929 123.93 767.558 123.642C768.191 123.35 768.905 123.205 769.7 123.205C770.503 123.205 771.206 123.35 771.808 123.642C772.411 123.934 772.878 124.328 773.212 124.824C773.549 125.316 773.715 125.869 773.712 126.483C773.715 127.134 773.513 127.678 773.104 128.114C772.698 128.549 772.17 128.826 771.518 128.943V129.034C772.375 129.144 773.026 129.441 773.473 129.926C773.924 130.407 774.147 131.009 774.143 131.733C774.147 132.396 773.956 132.985 773.57 133.5C773.187 134.015 772.659 134.42 771.984 134.716C771.31 135.011 770.537 135.159 769.666 135.159ZM776.372 135L781.196 125.455V125.375H775.577V123.364H783.741V125.403L778.912 135H776.372ZM789.482 123.205C790.08 123.205 790.656 123.305 791.209 123.506C791.766 123.706 792.262 124.027 792.697 124.466C793.137 124.905 793.483 125.489 793.737 126.216C793.995 126.939 794.125 127.828 794.129 128.881C794.129 129.869 794.018 130.752 793.794 131.528C793.574 132.301 793.258 132.958 792.845 133.5C792.432 134.042 791.934 134.455 791.351 134.739C790.768 135.019 790.116 135.159 789.396 135.159C788.62 135.159 787.934 135.009 787.339 134.71C786.745 134.407 786.266 133.996 785.902 133.477C785.542 132.955 785.324 132.367 785.249 131.716H787.675C787.769 132.14 787.968 132.47 788.271 132.705C788.574 132.936 788.949 133.051 789.396 133.051C790.154 133.051 790.73 132.722 791.124 132.062C791.518 131.4 791.716 130.492 791.72 129.341H791.641C791.466 129.682 791.232 129.975 790.936 130.222C790.641 130.464 790.302 130.652 789.919 130.784C789.54 130.917 789.137 130.983 788.709 130.983C788.023 130.983 787.411 130.822 786.874 130.5C786.336 130.178 785.911 129.735 785.601 129.17C785.29 128.606 785.135 127.962 785.135 127.239C785.131 126.458 785.311 125.763 785.675 125.153C786.038 124.544 786.546 124.066 787.197 123.722C787.853 123.373 788.614 123.201 789.482 123.205ZM789.499 125.136C789.116 125.136 788.775 125.227 788.476 125.409C788.18 125.591 787.946 125.835 787.771 126.142C787.601 126.449 787.518 126.792 787.521 127.17C787.521 127.553 787.605 127.898 787.771 128.205C787.942 128.508 788.173 128.75 788.464 128.932C788.76 129.11 789.097 129.199 789.476 129.199C789.76 129.199 790.023 129.146 790.266 129.04C790.508 128.934 790.718 128.788 790.896 128.602C791.078 128.413 791.22 128.195 791.322 127.949C791.425 127.703 791.476 127.441 791.476 127.165C791.472 126.797 791.385 126.46 791.214 126.153C791.044 125.847 790.809 125.6 790.51 125.415C790.211 125.229 789.874 125.136 789.499 125.136ZM800.044 123.205C800.643 123.205 801.218 123.305 801.771 123.506C802.328 123.706 802.824 124.027 803.26 124.466C803.699 124.905 804.046 125.489 804.3 126.216C804.557 126.939 804.688 127.828 804.692 128.881C804.692 129.869 804.58 130.752 804.357 131.528C804.137 132.301 803.821 132.958 803.408 133.5C802.995 134.042 802.497 134.455 801.913 134.739C801.33 135.019 800.679 135.159 799.959 135.159C799.182 135.159 798.497 135.009 797.902 134.71C797.307 134.407 796.828 133.996 796.464 133.477C796.105 132.955 795.887 132.367 795.811 131.716H798.237C798.332 132.14 798.531 132.47 798.834 132.705C799.137 132.936 799.512 133.051 799.959 133.051C800.716 133.051 801.292 132.722 801.686 132.062C802.08 131.4 802.279 130.492 802.283 129.341H802.203C802.029 129.682 801.794 129.975 801.499 130.222C801.203 130.464 800.864 130.652 800.482 130.784C800.103 130.917 799.699 130.983 799.271 130.983C798.586 130.983 797.974 130.822 797.436 130.5C796.898 130.178 796.474 129.735 796.163 129.17C795.853 128.606 795.697 127.962 795.697 127.239C795.694 126.458 795.874 125.763 796.237 125.153C796.601 124.544 797.108 124.066 797.76 123.722C798.415 123.373 799.177 123.201 800.044 123.205ZM800.061 125.136C799.679 125.136 799.338 125.227 799.038 125.409C798.743 125.591 798.508 125.835 798.334 126.142C798.163 126.449 798.08 126.792 798.084 127.17C798.084 127.553 798.167 127.898 798.334 128.205C798.504 128.508 798.735 128.75 799.027 128.932C799.322 129.11 799.66 129.199 800.038 129.199C800.322 129.199 800.586 129.146 800.828 129.04C801.071 128.934 801.281 128.788 801.459 128.602C801.641 128.413 801.783 128.195 801.885 127.949C801.987 127.703 802.038 127.441 802.038 127.165C802.035 126.797 801.947 126.46 801.777 126.153C801.607 125.847 801.372 125.6 801.072 125.415C800.773 125.229 800.436 125.136 800.061 125.136ZM811.112 126.273V128.091H805.726V126.273H811.112ZM806.959 135V125.642C806.959 125.009 807.082 124.485 807.328 124.068C807.578 123.652 807.919 123.339 808.351 123.131C808.783 122.922 809.273 122.818 809.822 122.818C810.194 122.818 810.533 122.847 810.839 122.903C811.15 122.96 811.381 123.011 811.533 123.057L811.101 124.875C811.006 124.845 810.889 124.816 810.749 124.79C810.612 124.763 810.472 124.75 810.328 124.75C809.972 124.75 809.724 124.833 809.584 125C809.444 125.163 809.374 125.392 809.374 125.688V135H806.959ZM812.568 135V133.227L816.71 129.392C817.063 129.051 817.358 128.744 817.597 128.472C817.839 128.199 818.023 127.932 818.148 127.67C818.273 127.405 818.335 127.119 818.335 126.812C818.335 126.472 818.258 126.178 818.102 125.932C817.947 125.682 817.735 125.491 817.466 125.358C817.197 125.222 816.892 125.153 816.551 125.153C816.195 125.153 815.884 125.225 815.619 125.369C815.354 125.513 815.15 125.72 815.006 125.989C814.862 126.258 814.79 126.578 814.79 126.949H812.455C812.455 126.187 812.627 125.527 812.972 124.966C813.316 124.405 813.799 123.972 814.42 123.665C815.042 123.358 815.758 123.205 816.568 123.205C817.402 123.205 818.127 123.352 818.744 123.648C819.366 123.939 819.848 124.345 820.193 124.864C820.538 125.383 820.71 125.977 820.71 126.648C820.71 127.087 820.623 127.521 820.449 127.949C820.278 128.377 819.973 128.852 819.534 129.375C819.095 129.894 818.475 130.517 817.676 131.244L815.977 132.909V132.989H820.864V135H812.568ZM826.947 135.159C826.099 135.159 825.343 135.013 824.68 134.722C824.021 134.426 823.5 134.021 823.118 133.506C822.739 132.987 822.544 132.388 822.533 131.71H825.01C825.025 131.994 825.118 132.244 825.288 132.46C825.463 132.672 825.694 132.837 825.982 132.955C826.269 133.072 826.593 133.131 826.953 133.131C827.328 133.131 827.66 133.064 827.947 132.932C828.235 132.799 828.461 132.616 828.624 132.381C828.786 132.146 828.868 131.875 828.868 131.568C828.868 131.258 828.781 130.983 828.607 130.744C828.436 130.502 828.19 130.312 827.868 130.176C827.55 130.04 827.171 129.972 826.732 129.972H825.646V128.165H826.732C827.103 128.165 827.43 128.1 827.714 127.972C828.002 127.843 828.226 127.665 828.385 127.438C828.544 127.206 828.624 126.938 828.624 126.631C828.624 126.339 828.554 126.083 828.413 125.864C828.277 125.64 828.084 125.466 827.834 125.341C827.588 125.216 827.3 125.153 826.97 125.153C826.637 125.153 826.332 125.214 826.055 125.335C825.779 125.453 825.557 125.621 825.391 125.841C825.224 126.061 825.135 126.318 825.124 126.614H822.766C822.777 125.943 822.968 125.352 823.339 124.841C823.711 124.33 824.211 123.93 824.839 123.642C825.472 123.35 826.186 123.205 826.982 123.205C827.785 123.205 828.487 123.35 829.089 123.642C829.692 123.934 830.16 124.328 830.493 124.824C830.83 125.316 830.997 125.869 830.993 126.483C830.997 127.134 830.794 127.678 830.385 128.114C829.98 128.549 829.451 128.826 828.8 128.943V129.034C829.656 129.144 830.307 129.441 830.754 129.926C831.205 130.407 831.429 131.009 831.425 131.733C831.429 132.396 831.237 132.985 830.851 133.5C830.468 134.015 829.94 134.42 829.266 134.716C828.591 135.011 827.819 135.159 826.947 135.159ZM833.193 135V133.227L837.335 129.392C837.688 129.051 837.983 128.744 838.222 128.472C838.464 128.199 838.648 127.932 838.773 127.67C838.898 127.405 838.96 127.119 838.96 126.812C838.96 126.472 838.883 126.178 838.727 125.932C838.572 125.682 838.36 125.491 838.091 125.358C837.822 125.222 837.517 125.153 837.176 125.153C836.82 125.153 836.509 125.225 836.244 125.369C835.979 125.513 835.775 125.72 835.631 125.989C835.487 126.258 835.415 126.578 835.415 126.949H833.08C833.08 126.187 833.252 125.527 833.597 124.966C833.941 124.405 834.424 123.972 835.045 123.665C835.667 123.358 836.383 123.205 837.193 123.205C838.027 123.205 838.752 123.352 839.369 123.648C839.991 123.939 840.473 124.345 840.818 124.864C841.163 125.383 841.335 125.977 841.335 126.648C841.335 127.087 841.248 127.521 841.074 127.949C840.903 128.377 840.598 128.852 840.159 129.375C839.72 129.894 839.1 130.517 838.301 131.244L836.602 132.909V132.989H841.489V135H833.193ZM843.339 135V123.364H845.76V127.739H845.834C845.94 127.504 846.093 127.265 846.294 127.023C846.499 126.777 846.764 126.572 847.089 126.409C847.419 126.242 847.828 126.159 848.317 126.159C848.953 126.159 849.54 126.326 850.078 126.659C850.616 126.989 851.046 127.487 851.368 128.153C851.69 128.816 851.851 129.648 851.851 130.648C851.851 131.621 851.694 132.443 851.379 133.114C851.069 133.78 850.644 134.286 850.107 134.631C849.572 134.972 848.974 135.142 848.311 135.142C847.841 135.142 847.442 135.064 847.112 134.909C846.786 134.754 846.519 134.559 846.311 134.324C846.103 134.085 845.944 133.845 845.834 133.602H845.726V135H843.339ZM845.709 130.636C845.709 131.155 845.781 131.608 845.925 131.994C846.069 132.381 846.277 132.682 846.55 132.898C846.822 133.11 847.154 133.216 847.544 133.216C847.938 133.216 848.271 133.108 848.544 132.892C848.817 132.672 849.023 132.369 849.163 131.983C849.307 131.593 849.379 131.144 849.379 130.636C849.379 130.133 849.309 129.689 849.169 129.307C849.029 128.924 848.822 128.625 848.55 128.409C848.277 128.193 847.942 128.085 847.544 128.085C847.15 128.085 846.817 128.189 846.544 128.398C846.275 128.606 846.069 128.902 845.925 129.284C845.781 129.667 845.709 130.117 845.709 130.636Z" fill="#525252"/>
<path fill-rule="evenodd" clip-rule="evenodd" d="M90.3388 118.157C88.9891 118.559 87.8965 119.476 87.255 120.743C86.874 121.496 86.8406 121.699 86.7972 123.521L86.7505 125.488L86.2149 125.755C85.9205 125.902 85.5266 126.232 85.3397 126.489L85 126.956L85.0418 131.859C85.082 136.574 85.0954 136.777 85.3874 137.145C86.0685 138.001 86.059 138 92.9732 138C99.8523 138 99.8721 137.998 100.603 137.196L101 136.761L100.999 131.797C100.999 126.182 101.005 126.214 99.8484 125.744L99.2601 125.504L99.2133 123.529C99.1703 121.724 99.133 121.489 98.7761 120.787C98.2542 119.759 97.3345 118.868 96.3266 118.411C95.5427 118.056 95.3787 118.034 93.2252 118.005C91.6359 117.984 90.767 118.029 90.3388 118.157ZM95.6263 119.854C96.4472 120.221 97.2376 121.135 97.4707 121.987C97.5562 122.299 97.626 123.228 97.626 124.051V125.548H92.9881H88.3502L88.4074 123.745C88.4579 122.151 88.5067 121.866 88.8284 121.289C89.6061 119.895 90.7534 119.436 93.3035 119.499C94.639 119.533 95.0452 119.595 95.6263 119.854ZM94.3292 128.663C95.5604 129.365 95.5623 131.106 94.3324 131.85C93.976 132.065 93.9587 132.134 93.9587 133.341C93.9587 134.454 93.9243 134.624 93.6749 134.747C93.2538 134.955 92.966 134.919 92.6384 134.616C92.3937 134.391 92.345 134.165 92.345 133.258V132.169L91.7716 131.666C91.17 131.138 90.9118 130.448 91.082 129.823C91.1954 129.405 91.8608 128.67 92.2596 128.521C92.8268 128.31 93.83 128.378 94.3292 128.663Z" fill="#38B54C"/>
<path d="M279.566 242.19C278.845 242.383 278.242 242.143 277.759 241.472C277.276 240.801 276.776 239.858 276.258 238.644L275.884 237.709C274.947 235.751 274.09 233.785 273.315 231.812C272.532 229.813 271.636 227.389 270.626 224.54L269.63 221.742C268.091 222.181 265.871 222.705 262.97 223.315L262.187 223.483C261.819 223.553 261.517 223.455 261.28 223.187C261.062 222.886 260.877 222.453 260.725 221.886L263.392 221.173C267.874 219.975 271.964 219.062 275.66 218.433C279.356 217.804 281.342 218.005 281.618 219.035C281.693 219.319 281.693 219.526 281.618 219.656C281.568 219.78 281.402 219.88 281.118 219.955C280.067 220.153 278.411 220.361 276.151 220.579C275.641 220.633 275.024 220.701 274.301 220.784C273.578 220.866 272.764 220.973 271.861 221.104C272.859 224.84 274.948 230.437 278.129 237.895C278.283 238.268 278.612 238.774 279.114 239.413C279.325 239.687 279.53 239.991 279.73 240.324C279.948 240.625 280.095 240.917 280.171 241.2C280.267 241.561 280.274 241.794 280.192 241.898C280.11 242.003 279.991 242.076 279.837 242.118C279.708 242.152 279.618 242.176 279.566 242.19ZM293.168 238.514C291.561 236.735 290.076 234.537 288.714 231.92C287.378 229.296 286.438 226.966 285.894 224.931C285.681 224.132 285.724 223.569 286.022 223.241C286.194 223.057 286.331 222.951 286.434 222.923C286.615 222.875 286.781 222.983 286.934 223.245C287.113 223.501 287.354 223.989 287.657 224.708L288.222 226.048C288.133 224.581 288.382 223.342 288.967 222.329C289.571 221.285 290.466 220.604 291.651 220.287C292.965 219.936 294.012 219.932 294.794 220.275C295.569 220.593 296.111 221.331 296.421 222.49C294.968 222.216 293.713 222.22 292.657 222.503C291.652 222.771 290.861 223.272 290.284 224.006C289.708 224.74 289.419 225.673 289.418 226.805C289.379 227.588 289.445 228.302 289.617 228.946C289.803 229.642 290.069 230.274 290.414 230.844C290.779 231.382 291.284 232.034 291.93 232.799C292.558 233.598 293.061 234.291 293.439 234.88C293.843 235.463 294.158 236.124 294.383 236.864C294.5 237.302 294.431 237.665 294.177 237.954C293.916 238.217 293.58 238.403 293.168 238.514ZM307.01 226.699C308.424 227.343 309.934 228.14 311.541 229.091C313.173 230.035 314.573 230.985 315.739 231.943C315.838 232.414 315.769 232.777 315.534 233.033C315.306 233.315 315.001 233.466 314.619 233.485C313.551 232.997 312.592 232.508 311.743 232.018C310.887 231.501 309.793 230.814 308.459 229.955L306.078 228.48C305.662 229.199 305.124 230.488 304.462 232.349C304.134 233.292 303.852 234.044 303.615 234.604C303.397 235.131 303.183 235.465 302.972 235.604C302.637 235.693 302.336 235.705 302.07 235.638C301.797 235.545 301.622 235.357 301.546 235.074C301.498 234.893 301.489 234.703 301.518 234.502C301.578 233.796 301.819 232.944 302.243 231.948C302.693 230.945 303.407 229.539 304.387 227.731L300.616 225.551C299.147 224.702 298.177 224.119 297.706 223.803C297.236 223.487 296.806 223.119 296.418 222.698C296.373 222.324 296.439 222.003 296.615 221.735C296.811 221.434 297.063 221.242 297.373 221.16C298.385 221.745 299.649 222.497 301.164 223.417C303.104 224.583 304.521 225.391 305.414 225.842C305.884 224.916 306.091 224.502 306.035 224.6C307.018 222.598 307.916 220.95 308.73 219.657C309.562 218.33 310.326 217.574 311.022 217.388C311.537 217.25 311.925 217.464 312.187 218.029C312.228 218.183 311.981 218.705 311.445 219.593C310.929 220.449 310.349 221.377 309.705 222.377C308.267 224.638 307.368 226.079 307.01 226.699ZM333.582 227.713C333.281 227.932 332.939 227.94 332.554 227.74C332.195 227.532 331.933 227.174 331.77 226.666C331.467 225.946 331.107 225.062 330.689 224.015C330.297 222.96 330.006 222.182 329.817 221.681C329.628 221.179 329.247 220.219 328.674 218.798C328.12 217.345 327.608 216.102 327.139 215.068C326.991 214.721 326.651 214.122 326.12 213.27C324.664 210.816 323.777 208.997 323.461 207.812C323.572 207.506 323.718 207.329 323.898 207.281C324.568 207.102 325.622 208.255 327.059 210.742C328.497 213.229 329.911 216.094 331.302 219.338C332.713 222.549 333.583 224.773 333.913 226.01C333.927 226.062 333.972 226.229 334.048 226.512C334.117 226.77 334.111 227.006 334.03 227.221C333.975 227.429 333.826 227.593 333.582 227.713ZM343.526 222.572C343.443 222.263 343.407 222.024 343.417 221.856C343.446 221.655 343.59 221.52 343.847 221.451C344.079 221.389 344.35 221.372 344.661 221.399C344.998 221.419 345.325 221.456 345.643 221.509C346.447 221.625 347.153 221.685 347.761 221.688C348.395 221.685 349.15 221.566 350.026 221.332C353.22 220.478 355.413 219.078 356.604 217.131C357.821 215.177 358.103 212.976 357.449 210.529C356.863 208.339 355.732 206.585 354.055 205.267C352.371 203.923 350.448 203.029 348.287 202.585C346.152 202.134 344.081 202.08 342.075 202.423L348.646 218.181C348.763 218.619 348.795 218.997 348.742 219.315C348.714 219.626 348.495 219.836 348.082 219.946C347.993 220.025 347.614 219.381 346.945 218.014C346.276 216.648 345.322 214.625 344.082 211.948C342.641 208.828 341.555 206.523 340.826 205.034C340.09 203.519 339.601 202.67 339.359 202.487C337.221 203.058 335.5 203.642 334.196 204.239C332.886 204.81 331.908 205.333 331.262 205.81C330.617 206.286 330.358 206.507 330.487 206.472C330.345 206.455 330.234 206.402 330.155 206.313C330.069 206.198 329.982 206.028 329.894 205.803C329.781 205.585 329.697 205.427 329.644 205.331C329.479 204.713 329.902 204.075 330.913 203.419C331.925 202.762 333.018 202.207 334.195 201.755C335.397 201.296 336.204 201.011 336.616 200.901C339.373 200.164 342.397 199.963 345.688 200.298C348.973 200.607 351.922 201.572 354.536 203.192C357.149 204.812 358.852 207.104 359.644 210.067C360.236 212.282 360.188 214.324 359.5 216.191C358.805 218.033 357.663 219.594 356.073 220.875C354.509 222.149 352.709 223.057 350.674 223.601C349.025 224.042 347.475 224.18 346.023 224.016C344.572 223.852 343.739 223.37 343.526 222.572Z" fill="black"/>
<path d="M293 253C305.652 247.911 334.564 238.242 349 240.277" stroke="black" stroke-width="2" stroke-linecap="round"/>
<path fill-rule="evenodd" clip-rule="evenodd" d="M706.826 163.641C711.221 155.408 712.797 151.947 712.113 152.026C710.873 152.17 687.535 158.982 687.028 159.348C686.82 159.498 688.469 160.565 690.692 161.719C694.624 163.76 694.719 163.849 694.155 165.005C693.402 166.548 694.153 167.532 696.062 167.504L697.585 167.481L698.76 171.718C699.406 174.047 700.076 175.822 700.249 175.661C700.422 175.501 703.382 170.092 706.826 163.641ZM688.169 173.237C688.679 170.071 686.725 170.37 681.299 174.289C677.356 177.137 676.701 177.799 676.835 178.793C676.934 179.532 677.374 180.136 678.038 180.445C679.508 181.127 687.854 175.19 688.169 173.237ZM670.956 185.661C671.014 184.791 670.744 184.344 669.969 184.032C669.085 183.677 668.059 184.212 663.984 187.155L659.066 190.708L659.921 191.891C660.702 192.972 661.019 192.939 663.601 191.502C668.705 188.663 670.869 186.944 670.956 185.661ZM653.058 197.208C652.501 195.106 651.452 195.299 646.386 198.433C641.062 201.728 640.479 202.365 641.497 203.775C642.524 205.197 644.358 204.572 648.993 201.225C652.383 198.776 653.247 197.922 653.058 197.208ZM634.992 209.477C635.179 208.313 633.549 206.718 632.538 207.077C631.986 207.272 629.493 208.689 626.999 210.224C623.082 212.635 622.498 213.15 622.722 213.994C623.197 215.787 624.415 215.968 626.868 214.608C633.395 210.992 634.901 210.04 634.992 209.477ZM616.164 219.805C616.597 216.94 614.69 217.107 608.37 220.487C603.786 222.938 603.205 223.551 604.182 224.903C605.097 226.17 606.332 226.027 609.499 224.288C611.059 223.431 613.161 222.304 614.172 221.783C615.306 221.198 616.068 220.442 616.164 219.805ZM596.893 229.133C596.38 227.198 595.186 227.308 590.081 229.757C586.01 231.711 584.882 232.449 584.661 233.305C584.024 235.771 585.953 235.934 590.523 233.798C595.619 231.417 597.193 230.264 596.893 229.133ZM577.467 238.146C576.99 236.347 575.873 236.413 570.805 238.537C565.36 240.819 564.621 241.386 565.039 242.961C565.437 244.464 567.012 244.349 571.302 242.502C576.208 240.39 577.769 239.287 577.467 238.146ZM557.819 247.216C557.964 246.298 556.809 244.915 555.947 244.977C554.356 245.092 545.58 248.645 545.109 249.365C544.837 249.781 544.976 250.623 545.418 251.235C546.119 252.205 546.748 252.164 550.334 250.911C555.427 249.131 557.693 248.013 557.819 247.216ZM537.704 253.879C537.233 252.102 535.981 252.066 531.126 253.693C525.424 255.604 524.831 255.955 524.728 257.49C524.603 259.34 526.376 259.364 531.587 257.582C537.062 255.71 538.034 255.122 537.704 253.879ZM517.081 260.792C517.212 258.847 515.576 258.681 510.437 260.12C504.863 261.682 503.59 262.625 504.799 264.299C505.544 265.33 506.242 265.304 510.762 264.079C516.796 262.443 516.976 262.349 517.081 260.792ZM496.509 266.948C496.558 266.65 496.259 265.937 495.846 265.365C495.225 264.505 494.146 264.547 489.569 265.611C483.707 266.974 482.493 267.818 483.797 269.623C484.491 270.584 485.369 270.554 490.108 269.408C495.889 268.01 496.368 267.826 496.509 266.948ZM475.477 270.672C475.09 269.211 474.455 269.152 468.862 270.053C463.193 270.965 461.499 271.971 462.483 273.841C463.027 274.874 463.822 274.896 468.476 274.014C474.297 272.911 475.872 272.159 475.477 270.672ZM454.061 274.682C453.615 273.001 452.408 272.835 446.844 273.689C441.668 274.483 441.287 274.63 441.082 275.9C440.736 278.048 442.105 278.378 447.655 277.484C453.272 276.58 454.43 276.073 454.061 274.682ZM432.801 277.803C432.843 277.184 432.549 276.463 432.149 276.202C431.179 275.568 421.291 276.384 420.175 277.191C419.373 277.77 419.341 279.1 420.103 280.155C420.415 280.587 431.618 279.729 432.324 279.219C432.545 279.059 432.76 278.422 432.801 277.803ZM411.468 279.338C411.197 277.552 410.472 277.375 404.499 277.642C400.059 277.839 398.8 278.113 398.462 278.953C397.546 281.224 398.761 281.728 404.652 281.518C407.858 281.404 410.743 281.123 411.061 280.893C411.38 280.662 411.563 279.963 411.468 279.338ZM390.225 280.337C390.485 278.731 388.656 278.091 383.648 278.034C378.125 277.972 376.079 278.622 376.523 280.298C376.842 281.498 378.838 281.898 384.35 281.866C388.659 281.842 390.041 281.482 390.225 280.337ZM368.541 279.494C368.651 277.864 367.673 277.546 361.245 277.115C355.676 276.742 354.049 277.448 355.582 279.571C356.155 280.364 357.929 280.746 362.029 280.959C365.14 281.12 367.86 281.127 368.073 280.973C368.286 280.819 368.497 280.154 368.541 279.494ZM347.18 277.578C347.382 276.331 345.967 275.464 343.015 275.023C337.384 274.184 336.814 277.72 342.423 278.694C345.364 279.204 346.979 278.825 347.18 277.578Z" fill="#A6A6A6"/>
</svg>
