<svg width="238" height="238" viewBox="0 0 238 238" fill="none" xmlns="http://www.w3.org/2000/svg">
<path fill-rule="evenodd" clip-rule="evenodd" d="M78.5905 31.8084V38.2395L72 38.1776L65.4112 38.2382V45.1362V52.2336H58.8224H52.2336V58.8224V65.4112H45.1467H38.1776V72V78.5888H31.5888H25V119V159.337H31.5888H38.2689V166.22V172.589H45.1467H52.2336V179.178V185.766H58.8224H65.4112V192.864V199.747L72 199.822L78.5905 199.747V206.192L78.5888 213H119H159.411V206.411V199.822H166H172.589V192.794V185.766H179.178H185.766V179.178V172.589H192.853H199.822L199.731 166.22V159.337L206.411 159.411L213 159.337V118.963V78.5888H206.411H199.822V72V65.4112H192.794H185.766V58.8224V52.2336H179.178H172.589V45.1362V38.1776H166H159.411L159.409 31.8084L159.411 25H119H78.5888L78.5905 31.8084ZM158.533 45.7399V53.1122H165.121H171.71V59.7396V66.2897H178.26H184.811V72.5312V79.5411H192.076H198.944V119V158.459H191.916H184.812L184.888 165.561L184.812 171.635L178.299 171.71H171.71V178.738L171.635 184.812L165.121 184.888H158.533V192.355L158.459 198.944H119H79.5411L79.4673 191.916L79.5411 184.812L72.8785 184.888L66.3653 184.812V178.738V171.633H59.2617H53.1122V165.083V158.533H46.0841H39.0561V119.037V79.5411L45.6449 79.4673L53.1122 79.5411V72.4393L53.1895 66.2897H59.7396H66.2897V59.7396V53.1895L72.4393 53.1122H79.4673V45.6449L79.5411 39.0561H119H158.533V45.7399ZM91.7664 64.9333V71.4834L85.1776 71.5607H79.028V79.2863V86.6232H85.6168L91.7664 86.5726V119V151.427L85.6168 151.505L78.5888 151.427V159.411L78.5176 166.439H85.1424H91.7664V173.028V179.617H98.7944H105.822V173.028V166.439H112.35H118.878L118.828 168.855C118.801 170.183 118.828 173.148 118.889 175.444L119 179.617H126.028H133.056V173.067V166.517L139.645 166.439H145.794V152.481C145.794 152.481 145.409 152.587 154.579 152.383H159.411V138.766V125.15H152.822H146.234V119V112.85H152.822H159.411V99.2336V85.6168H152.859H146.307V78.8373L146.234 71.5607L139.206 71.4834H133.056V64.9333V58.3832H126.028H119L118.889 62.5561C118.828 64.8507 118.801 67.8157 118.828 69.1449L118.878 71.5607H112.35H105.822V64.972V58.3832H98.7944H91.7664V64.9333ZM145.355 98.7944V111.972H125.589H105.822V99.2503V85.6168H125.15C135.901 85.4771 145.235 85.7275 145.355 85.6168C145.475 85.5053 145.355 91.5467 145.355 98.7944ZM145.356 138.986L145.357 151.944L125.59 151.692L105.822 151.441V138.734V126.028H125.589H145.355L145.356 138.986Z" fill="#454545"/>
</svg>
