<svg width="242" height="238" viewBox="0 0 242 238" fill="none" xmlns="http://www.w3.org/2000/svg">
<path fill-rule="evenodd" clip-rule="evenodd" d="M158 12.5V17H162.5H167V12.5V8H162.5H158V12.5ZM205 21.5V26H209.5H214V21.5V17H209.5H205V21.5ZM177 31.5V36H181.5H186V31.5V27H181.5H177V31.5ZM196 31.5V36H200.5H205V31.5V27H200.5H196V31.5ZM140 40.5V45H135.5H131V49.5V54H135.5H140V49.5V45H153.5H167V40.5V36H153.5H140V40.5ZM168 49.5V54H181.5H195V49.5V45H181.5H168V49.5ZM214 49.5V54H218.5H223V49.5V45H218.5H214V49.5ZM233 49.5V54H237.5H242V49.5V45H237.5H233V49.5ZM121 69V83H112H103V92V101H93.5H84V105.5V110H79.555H75.11V115V120.11H70H65V129.055V138H60.5H56V161.5V185H60.5H65V194V203H70H75V207.443V211.885L79.25 212.193L83.5 212.5L83.805 217.25L84.11 222H93.555H103V226.5V231H126H149V226.5V222H157.945H166.89L167.195 217.25L167.5 212.5L172.25 212.195L177 211.89V207.445V203H181.5H186V194V185H190.5H195V161.5V138H190.5H186V129V120H181.5H177V115V110H172H167V105.5V101H158H149V92.038V83.075L139.75 82.788L130.5 82.5L130.222 68.75L129.944 55H125.472H121V69ZM177 68.5V73H172.5H168V77.5V82H172.5H177V77.5V73H181.5H186V68.5V64H181.5H177V68.5ZM196 68.5V73H200.5H205V68.5V64H200.5H196V68.5ZM214 87.5V92H218.5H223V87.5V83H218.5H214V87.5ZM111.805 124.25L112.11 129H107.555H103V133.5V138H98H93V133.5V129H97.5H102V124.667C102 122.283 102 119.5 102 119.5C102.392 119.107 105.244 119.04 107.464 119.203L112 119.156L111.805 124.25ZM84 156.5V166H88.5H93V171V176H88.5H84V171.055V166.11L79 166H74V157.5C74 153 74 148 74 147C74 147 76.606 147 79.469 147H84V156.5ZM112 189.5V194H107H102V189.5V185H107H112V189.5Z" fill="#454545"/>
</svg>
