<svg width="242" height="251" viewBox="0 0 242 251" fill="none" xmlns="http://www.w3.org/2000/svg">
<path fill-rule="evenodd" clip-rule="evenodd" d="M108.5 22V26H121H133.5V22V18H121H108.5V22ZM99.5 30.5V35H95H90.5V38.941C90.5 43.591 90.837 43.867 95.75 43.251C99.36 42.799 99.5 42.636 99.5 38.891C99.5 35.018 99.519 35 103.5 35H107.5V30.5V26H103.5H99.5V30.5ZM134.214 26.619C133.821 27.012 133.5 29.058 133.5 31.167V35H138H142.5V39.276V43.553L146.5 43.171C150.417 42.798 150.5 42.709 150.5 38.895C150.5 35.027 150.473 35 146.557 35C142.634 35 142.614 34.979 142.307 30.75C142.013 26.675 141.854 26.488 138.464 26.202C136.52 26.039 134.607 26.226 134.214 26.619ZM81.5 48V52H77.5H73.5V56.5V61H77.5H81.5V56.5V52H86H90.5V48V44H86H81.5V48ZM150.5 48V52H155H159.5V56.5V61H163.395C167.217 61 167.297 60.924 167.676 56.948C167.889 54.719 167.861 52.694 167.615 52.448C167.368 52.202 165.442 52 163.333 52C159.528 52 159.5 51.971 159.5 48V44H155H150.5V48ZM64.5 65.5V70H60H55.5V74V78H51.5H47.5V82.5V87H43H38.5V91V95H43H47.5V91V87H51.5H55.5V82.5V78H60H64.5V74V70H68.5H72.5V65.5V61H68.5H64.5V65.5ZM168.5 65.5V70H172.5H176.5V74V78H181H185.5V82.5V87H190H194.5V91V95H198.5H202.5V91C202.5 87.01 202.49 87 198.557 87C194.634 87 194.614 86.979 194.307 82.75C194.001 78.521 193.979 78.499 189.75 78.193C185.521 77.886 185.5 77.866 185.5 73.943V70H181H176.5V65.5V61H172.5H168.5V65.5ZM108.227 74L108.763 78H104.132H99.5V104V130H104.073H108.647L108.323 138.502L108 147.005L112.25 147.002L116.5 147V151.5V156H120.443C124.366 156 124.386 155.979 124.693 151.75C124.999 147.521 125.021 147.499 129.25 147.193L133.5 146.885V138.443V130H138.017H142.534L142.267 104.25L142 78.5L137.75 78.193C133.521 77.886 133.5 77.866 133.5 73.943V70H120.595H107.69L108.227 74ZM30.5 100V104H34.5H38.5V100V96H34.5H30.5V100ZM203.5 100V104H207.5H211.5V108.5V113H215.5H219.5V108.5V104H215.5H211.5V100V96H207.5H203.5V100ZM21.5 108.5V113L17.25 112.999L13 112.998L13.203 124.655C13.431 137.781 13.701 139.051 16.216 138.836C20.909 138.434 21.5 138.9 21.5 143V147H25.5H29.5V143V139H25.5H21.5V126V113H25.5H29.5V108.5V104H25.5H21.5V108.5ZM220.5 125.75V138.5H224.5H228.5V125.75V113H224.5H220.5V125.75ZM211.5 143V147H215.5H219.5V143V139H215.5H211.5V143ZM30.5 152C30.5 155.99 30.51 156 34.443 156C38.366 156 38.386 156.021 38.693 160.25C38.999 164.479 39.021 164.501 43.25 164.807C47.479 165.114 47.5 165.134 47.5 169.057C47.5 172.99 47.51 173 51.5 173H55.5V169V165H51.5H47.5V160.5V156H43H38.5V152V148H34.5H30.5V152ZM203.5 152V156H207.5H211.5V152V148H207.5H203.5V152ZM194.5 160.5V165H190H185.5V169V173H190H194.5V169V165H198.5H202.5V160.5V156H198.5H194.5V160.5ZM108 173.501V182.001L120.75 182H133.5V173.5V165L120.75 165.001L108 165.002V173.501ZM55.69 177.75C55.99 181.381 56.133 181.51 60.195 181.805C64.351 182.107 64.393 182.149 64.695 186.305C64.99 190.367 65.119 190.51 68.75 190.81L72.5 191.121V186.56V182H68.5H64.5V178V174H59.94H55.379L55.69 177.75ZM176.5 178V182H172.5H168.5V186.5V191H172.5H176.5V186.5V182H181H185.5V178V174H181H176.5V178ZM73.5 195C73.5 198.99 73.51 199 77.443 199C81.366 199 81.386 199.021 81.693 203.25C81.999 207.479 82.021 207.501 86.25 207.807C90.479 208.114 90.5 208.134 90.5 212.057V216H95.06H99.621L99.31 212.25C99.009 208.61 98.875 208.491 94.75 208.193L90.5 207.885V203.443V199H86H81.5V195V191H77.5H73.5V195ZM159.5 194.943C159.5 198.866 159.479 198.886 155.25 199.193C151.01 199.499 151 199.509 151 203.5C151 207.491 151.01 207.501 155.25 207.807L159.5 208.115V203.557V199H163.776H168.053L167.671 195C167.298 191.083 167.209 191 163.395 191C159.527 191 159.5 191.027 159.5 194.943ZM142.5 212V216H146.5H150.5V212V208H146.5H142.5V212ZM99.5 221V225H103.5H107.5V221V217H103.5H99.5V221ZM133.5 221V225H121H108.5V229.5V234H121H133.5V229.5V225H138H142.5V221V217H138H133.5V221Z" fill="#454545"/>
</svg>
