<svg width="1410" height="701" viewBox="0 0 1410 701" fill="none" xmlns="http://www.w3.org/2000/svg">
<path fill-rule="evenodd" clip-rule="evenodd" d="M155.188 132.713C144.582 141.479 120.478 208.871 120.978 228.362C121.582 252.025 123.529 257.095 136.473 268.713L149.257 280.185L184.482 277.383C217.333 274.77 220.117 274.067 225.813 266.946C233.911 256.813 232.647 239.521 223.279 232.3C218.039 228.261 210.558 227.169 192.36 227.789L168.351 228.601L174.676 210.647C178.154 200.77 183.755 185.592 187.119 176.92C195.464 155.403 193.968 139.94 182.822 132.518C172.777 125.827 163.439 125.896 155.188 132.713ZM310.836 129.161C304.092 135.25 301.545 143.291 297.566 171.058C290.075 223.329 288.194 233.656 284.525 242.761C279.638 254.885 280.676 266.611 287.349 274.692C294.876 283.814 316.478 282.046 324.777 271.632C331.284 263.467 342.96 219.283 341.983 206.526C341.643 202.097 343.389 189.274 345.867 178.031C351.948 150.418 350.631 137.2 341.038 129.515C332.64 122.792 318.078 122.622 310.836 129.161ZM431.248 145.013C404.864 158.402 400.16 163.689 386.697 195.047C374.046 224.526 371.931 243.357 379.882 255.748C389.945 271.429 430.966 285.216 461.192 283.072C471.99 282.309 475.239 280.406 482.582 270.559C487.635 263.786 491.392 260.839 491.603 263.486C492.129 270.099 504.923 276.618 515.651 275.74C520.758 275.324 528.856 271.856 533.646 268.033C538.437 264.213 546.335 258.709 551.199 255.807C556.063 252.905 565.531 244.548 572.24 237.238C583.414 225.062 585.867 223.829 601.404 222.593L618.367 221.244L612.654 229.84C605.227 241.007 606.516 262.379 615.009 268.925C623.719 275.638 641.413 273.418 647.921 264.796C650.848 260.917 660.568 253.773 669.521 248.914C690.648 237.454 697.916 229.3 705.066 209.027C708.289 199.9 714.953 185.465 719.873 176.951C727.248 164.202 728.603 158.567 727.574 144.967C726.482 130.584 725.191 127.742 717.539 122.875C710.368 118.313 706.974 117.956 699.065 120.921C691.432 123.787 687.028 129.322 678.305 147.01C671.24 161.334 665.634 169.103 662.823 168.465C660.396 167.916 649.375 167.402 638.331 167.323C626.425 167.238 619.732 166.046 621.888 164.391C623.891 162.857 625.148 156.849 624.686 151.037C623.54 136.634 613.94 128.9 598.713 130.111C588.518 130.922 585.298 133.106 576.01 145.522C570.061 153.479 559.656 169.017 552.892 180.051C546.128 191.085 534.978 204.273 528.115 209.358C521.248 214.44 509.824 223.645 502.726 229.811L489.816 241.022L488.816 228.446C488.266 221.531 485.546 212.222 482.771 207.758C474.575 194.577 455.531 190.162 442.63 198.452C438.941 200.819 437.246 201.059 438.27 199.062C439.192 197.264 449.316 191.327 460.769 185.871C472.222 180.414 483.421 172.84 485.653 169.038C495.922 151.564 482.634 133.105 461.113 134.95C454.473 135.518 441.035 140.048 431.248 145.013ZM740.813 133.13C733.632 143.929 734.294 153.371 742.879 162.672C749.555 169.9 749.562 169.991 745.289 194.568C742.405 211.174 738.933 221.09 734.644 224.966C719.798 238.392 718.307 241.187 719.302 253.692C720.115 263.914 722.42 268.087 731.565 275.891C743.801 286.332 753.742 287.377 763.569 279.253C772.182 272.135 786.764 237.926 791.536 213.65C793.743 202.428 797.167 187.207 799.143 179.829C802.564 167.058 803.333 166.364 815.069 165.43C826.988 164.482 827.24 164.657 822.589 170.7C814.424 181.311 801.529 250.428 804.769 266.2C809.423 288.849 830.622 298.049 845.513 283.884C850.424 279.211 852.277 273.276 852.552 261.312L852.924 245.076L864.485 258.787C882.884 280.606 905.368 284.963 920.817 269.703C933.373 257.3 947.445 224.259 949.683 201.924C950.75 191.275 953.257 177.566 955.254 171.466C957.248 165.362 958.183 151.584 957.329 140.847C956.022 124.414 954.57 120.361 948.146 115.215C932.417 102.62 908.957 114.958 910.55 134.986C911.015 140.826 909.76 150.6 907.767 156.704C905.769 162.804 903.263 176.519 902.2 187.174C899.235 216.822 896.457 217.88 882.897 194.521C875.967 182.583 866.344 170.989 859.243 166.023C848.774 158.698 847.823 157.109 851.68 153.351C858.417 146.786 855.811 130.407 846.898 123.268C839.755 117.551 836.282 117.395 792.895 120.846L746.527 124.534L740.813 133.13ZM990.536 135.681C985.033 140.918 984.158 144.621 985.618 156.456C988.057 176.214 985.109 194.545 973.637 230.899C961.912 268.06 962.017 280.448 974.122 288.507C993.984 301.737 1007.47 290.311 1020.11 249.542C1032.29 210.228 1035.38 190.479 1033.34 164.832C1031.94 147.253 1030.19 141.346 1024.59 135.278C1016.05 126.026 1000.49 126.213 990.536 135.681ZM1067.76 129.712C1064.74 133.258 1060.72 142.962 1058.83 151.279C1053.05 176.593 1049.39 188.002 1043.11 200.159C1039.81 206.556 1035.5 217.849 1033.53 225.254C1029.49 240.465 1031.1 272.457 1036.3 280.577C1041.09 288.038 1057.27 291.849 1066.19 287.617C1075.32 283.285 1077.95 276.748 1078.94 255.968C1079.37 246.744 1081.59 234.77 1083.87 229.355L1088 219.513L1100.31 246.299C1109.48 266.24 1113.09 278.31 1114.42 293.557C1115.95 310.974 1117.52 315.354 1124.91 322.849C1131.32 329.35 1136.22 331.458 1143.54 330.875C1155.38 329.933 1165.96 318.367 1165.09 307.334C1164.42 299.001 1171.51 268.253 1180.37 241.043C1183.57 231.229 1185.91 219.224 1185.57 214.366C1185.23 209.508 1186.87 195.646 1189.2 183.565C1194.89 154.157 1193.88 144.103 1184.5 136.584C1174.62 128.675 1162.69 129.781 1153.06 139.502C1147.25 145.362 1144.22 154.06 1140.58 175.255C1137.94 190.658 1135.44 200.59 1135.02 197.32C1133.51 185.652 1110.14 134.109 1103.5 127.812C1094.7 119.477 1075.62 120.491 1067.76 129.712ZM434.556 232.567C432.017 236.242 427.057 227.527 428.638 222.174C430.266 216.671 430.669 216.806 432.984 223.629C434.387 227.766 435.096 231.788 434.556 232.567ZM1273.65 183.8C1265.5 194.212 1252.02 217.611 1239.97 242.273C1231.71 259.154 1231.67 259.701 1235.59 293.603C1238.79 321.257 1241.04 330.233 1247.25 340.099C1262.11 363.725 1277.84 368.259 1304.37 356.576C1365.42 329.699 1396.04 281.87 1369.45 254.913C1361.01 246.358 1331.17 235.615 1318.61 236.614C1306.64 237.566 1296.36 249.748 1297.32 261.846C1298.19 272.727 1310.27 286.715 1318.25 286.08C1324 285.623 1318.62 290.642 1302.25 301.019C1294.32 306.05 1287.04 309.497 1286.08 308.677C1285.12 307.857 1283.16 299.315 1281.72 289.693C1279.21 272.812 1279.61 271.353 1293.09 248.158C1311.55 216.387 1314.68 208.395 1313.67 195.671C1313.04 187.795 1310.57 183.496 1304.23 179.276C1292.46 171.437 1282.12 172.967 1273.65 183.8ZM81.0795 328.764C72.4816 333.162 65.8432 345.153 66.6171 354.883C68.2302 375.163 94.7812 380.304 167.882 374.489C205.025 371.535 223.351 371.514 243.777 374.407C279.997 379.532 349.006 376.969 357.202 370.193C369.963 359.643 365.545 335.223 349.842 329.519C345.508 327.942 328.997 327.686 313.15 328.946C293.754 330.489 275.84 329.76 258.314 326.714C237.92 323.17 217.972 322.829 166.14 325.137C129.759 326.758 97.1675 327.506 93.7149 326.798C90.2622 326.09 84.5774 326.975 81.0795 328.764ZM478.964 318.356C465.679 327.99 447.941 356.954 418.002 417.903C412.799 428.498 397.644 450.56 384.32 466.93C355.609 502.219 350.726 510.849 351.801 524.371C353.033 539.852 361.055 547.624 374.573 546.432C380.8 545.884 388.118 543.445 390.836 541.016C394.598 537.655 399.379 537.043 410.853 538.46C423.017 539.961 429.253 538.977 443.124 533.369C468.951 522.923 476.393 507.095 465.892 484.935C462.46 477.691 463.09 475.746 471.933 466.246C481.041 456.456 483.097 451.132 484.259 434.296C484.53 430.369 487.467 427.472 492.244 426.428C496.401 425.516 501.892 422.583 504.446 419.905C508.63 415.524 509.388 416.131 512.058 425.983C513.688 431.999 515.937 438.837 517.055 441.176C518.392 443.978 517.018 445.595 513.035 445.912C503.42 446.676 492.625 458.816 488.231 473.802C484.6 486.182 484.729 488.501 489.462 496.112C494.412 504.076 494.327 505.177 488.054 513.768C481.812 522.317 480.3 530.023 482.703 541.02C484.757 550.42 497.065 557.348 523.126 563.775C547.058 569.677 551.004 569.882 559.253 565.669C574.927 557.662 576.896 545.492 571.587 489.388C566.002 430.344 558.972 400.227 540.722 357.153C530.114 332.119 524.574 322.827 517.045 317.447C505.279 309.039 491.356 309.371 478.964 318.356ZM572.709 351.559C569.044 355.862 567.387 362.281 567.989 369.847C569.367 387.179 587.255 400.783 612.775 403.907L631.878 406.243L625.367 431.913C618.485 459.051 612.6 504.186 613.88 520.007C615.344 538.074 639.628 547.668 653.544 535.678C656.44 533.183 661.283 525.249 664.313 518.041C667.339 510.835 679.092 488.46 690.431 468.324C714.617 425.367 716.089 420.584 708.834 408.53C702.303 397.679 702.483 397.575 734.286 393.679C754.993 391.143 758.895 389.695 765.311 382.165C774.212 371.717 774.409 354.204 765.717 346.006C760.313 340.911 755.179 340.915 691.785 346.077C634.804 350.718 621.647 350.942 611.372 347.452C594.684 341.787 579.676 343.383 572.709 351.559ZM60.0426 408.088C45.586 418.017 43.4629 438.022 55.7517 448.508C62.3797 454.164 64.563 454.129 122.82 447.432C170.155 441.992 194.251 440.767 235.468 441.71L287.903 442.909L294.301 434.144C297.823 429.322 300.448 422.186 300.138 418.286C299.312 407.902 287.432 396.611 274.102 393.54C257.549 389.728 68.0234 402.609 60.0426 408.088ZM797.413 356.088C789.933 364.874 768.796 410.527 769.38 416.633C769.602 418.954 765.687 430.914 760.681 443.208C747.531 475.499 739.336 505.569 740.318 517.916C741.44 532.021 752.564 541.185 767.156 540.024C783.043 538.76 787.007 533.356 793.132 504.621C796.188 490.289 801.955 471.22 805.952 462.241L813.218 445.914L821.223 474.279C834.317 520.657 845.96 536.846 865.13 535.321C873.644 534.644 877.206 531.181 896.882 504.465C903.091 496.036 915.565 482.607 924.606 474.624C933.644 466.644 945.4 455.515 950.727 449.898C958.295 441.914 960.006 441.064 958.55 446.009C957.524 449.49 955.024 463.593 952.991 477.35C950.96 491.107 947.14 510.701 944.502 520.891C939.166 541.495 941.089 551.814 951.402 557.884C963.047 564.738 976.877 561.639 984.916 550.373C992.177 540.196 993.302 535.938 1000.29 492.127C1002.49 478.357 1006.79 453.182 1009.85 436.185C1017.09 395.973 1015.61 375.296 1004.72 364.491C997.689 357.52 994.426 356.64 979.88 357.797L963.135 359.129L940.937 385.903C912.641 420.041 870.822 458.796 867.564 453.901C865.46 450.741 857.648 422.821 846.238 377.696C839.338 350.414 812.393 338.49 797.413 356.088ZM41.1185 480.71C26.7751 490.431 24.6566 509.29 36.6687 520.295C43.4126 526.476 44.2354 526.457 154.561 517.71C215.667 512.862 272.806 509.189 281.538 509.538C295.108 510.087 298.288 509.155 303.414 503.139C309.307 496.222 310.312 483.041 305.688 473.357C304.422 470.705 298.879 466.514 293.369 464.042C284.481 460.052 270.006 460.517 165.164 468.143C81.3471 474.241 45.2727 477.895 41.1185 480.71Z" fill="black"/>
</svg>
