<svg width="238" height="238" viewBox="0 0 238 238" fill="none" xmlns="http://www.w3.org/2000/svg">
<path fill-rule="evenodd" clip-rule="evenodd" d="M62.658 19.4722C62.4372 19.8343 62.1991 25.6907 62.1286 32.4862L62 44.8413L66.6045 45.1059L71.2081 45.3704L71.4384 71.2156L71.6688 97.0607L75.7847 97.3253L79.9007 97.5898L80.1658 101.724L80.4309 105.858H84.2948H88.1586V110.164V114.47L92.7223 114.733L97.2859 114.996L97.5345 123.436L97.7822 131.875L93.1882 132.139L88.5933 132.403L88.3282 136.537L88.063 140.671H84.1992H80.3353V145.022V149.374H75.989H71.6427V171.087V192.799L67.0791 193.063L62.5155 193.325V206.163V219H119.258H176L175.76 206.163L175.519 193.325L170.956 193.063L166.392 192.799V171.087V149.374H162.046H157.699V145.022V140.671H153.836H149.972L149.707 136.537L149.441 132.403L144.847 132.139L140.253 131.875L140.5 123.436L140.749 114.996L145.313 114.733L149.876 114.47V110.164V105.858H153.74H157.604L157.869 101.724L158.134 97.5898L162.25 97.3253L166.366 97.0607L166.596 71.2156L166.827 45.3704L171.413 45.1067L176 44.843L175.759 32.0519L175.519 19.2607L119.29 19.0371C88.3638 18.9135 62.8797 19.1093 62.658 19.4722ZM158.569 31.8804V36.232H119.017H79.466V31.8804V27.5288H119.017H158.569V31.8804ZM158.366 66.9109L158.599 88.4514H154.237H149.876V92.8031V97.1547H145.53H141.184V101.506V105.858H136.837H132.491V110.21V114.561H128.145H123.798V123.217V131.872L127.927 132.137L132.056 132.403L132.321 136.537L132.587 140.671H136.885H141.184V145.022V149.374H145.53H149.876V153.678V157.982L154.005 158.247L158.134 158.512L158.37 175.701L158.605 192.89H154.288H149.972L149.707 188.756L149.441 184.622L145.313 184.357L141.184 184.091V188.491V192.89H136.403H131.622V188.539V184.187H127.71H123.798V188.539V192.89H119.017H114.236V188.539V184.187H110.325H106.413V188.539V192.89H101.632H96.8512V188.491V184.091L92.7223 184.357L88.5933 184.622L88.3282 188.756L88.063 192.89H83.7463H79.4295L79.6651 175.701L79.9007 158.512L84.0297 158.247L88.1586 157.982V153.678V149.374H92.5049H96.8512V145.022V140.671H101.15H105.448L105.713 136.537L105.978 132.403L110.107 132.137L114.236 131.872V123.217V114.561H109.89H105.544V110.21V105.858H101.198H96.8512V101.506V97.1547H92.5049H88.1586V92.8031V88.4514H83.8123H79.466V67.2739C79.466 55.6255 79.7312 45.8308 80.0545 45.5062C80.3779 45.1824 98.0787 45.0197 119.389 45.1441L158.134 45.3704L158.366 66.9109ZM97.7205 75.3966V79.7482H101.632H105.544V75.3966V71.045H101.632H97.7205V75.3966ZM115.106 75.3966V79.7482H119.017H122.929V75.3966V71.045H119.017H115.106V75.3966ZM132.491 75.3966V79.7482H136.403H140.314V75.3966V71.045H136.403H132.491V75.3966ZM106.413 84.0998V88.4514H110.325H114.236V84.0998V79.7482H110.325H106.413V84.0998ZM123.798 84.0998V88.4514H127.71H131.622V84.0998V79.7482H127.71H123.798V84.0998ZM115.106 92.8031V97.1547H119.017H122.929V92.8031V88.4514H119.017H115.106V92.8031ZM115.106 110.21V114.561H119.017H122.929V110.21V105.858H119.017H115.106V110.21ZM115.106 145.022V149.374H119.017H122.929V145.022V140.671H119.017H115.106V145.022ZM115.106 162.429V166.781H119.017H122.929V162.429V158.077H119.017H115.106V162.429ZM106.413 171.132V175.484H110.325H114.236V171.132V166.781H110.325H106.413V171.132ZM123.798 171.132V175.484H127.71H131.622V171.132V166.781H127.71H123.798V171.132ZM97.7205 179.835V184.187H101.632H105.544V179.835V175.484H101.632H97.7205V179.835ZM115.106 179.835V184.187H119.017H122.929V179.835V175.484H119.017H115.106V179.835ZM132.491 179.835V184.187H136.403H140.314V179.835V175.484H136.403H132.491V179.835ZM158.399 206.163L158.664 210.297H119.065H79.466V206.526C79.466 204.451 79.7312 202.489 80.0545 202.164C80.3779 201.841 98.0787 201.678 119.389 201.802L158.134 202.029L158.399 206.163Z" fill="#454545"/>
</svg>
