<svg width="973" height="322" viewBox="0 0 973 322" fill="none" xmlns="http://www.w3.org/2000/svg">
<rect x="64" y="101" width="57" height="57" rx="15" fill="#EFEFEF"/>
<rect x="133" y="101" width="776" height="57" rx="15" fill="#EFEFEF"/>
<path d="M160.81 132.324V138H158.087V124.909H160.733V129.914H160.848C161.07 129.335 161.428 128.881 161.922 128.553C162.416 128.22 163.036 128.054 163.782 128.054C164.464 128.054 165.058 128.203 165.565 128.501C166.077 128.795 166.473 129.219 166.754 129.773C167.04 130.323 167.18 130.982 167.176 131.749V138H164.453V132.234C164.457 131.629 164.304 131.158 163.993 130.822C163.686 130.485 163.256 130.317 162.702 130.317C162.331 130.317 162.003 130.396 161.717 130.553C161.436 130.711 161.214 130.941 161.053 131.244C160.895 131.542 160.814 131.902 160.81 132.324ZM174.541 128.182V130.227H168.629V128.182H174.541ZM169.971 125.83H172.694V134.983C172.694 135.234 172.732 135.43 172.809 135.571C172.886 135.707 172.992 135.803 173.129 135.859C173.269 135.914 173.431 135.942 173.615 135.942C173.742 135.942 173.87 135.931 173.998 135.91C174.126 135.884 174.224 135.865 174.292 135.852L174.72 137.879C174.584 137.921 174.392 137.97 174.145 138.026C173.898 138.085 173.597 138.121 173.244 138.134C172.588 138.16 172.012 138.072 171.518 137.872C171.028 137.672 170.646 137.361 170.374 136.939C170.101 136.517 169.967 135.984 169.971 135.341V125.83ZM181.537 128.182V130.227H175.625V128.182H181.537ZM176.967 125.83H179.69V134.983C179.69 135.234 179.729 135.43 179.805 135.571C179.882 135.707 179.988 135.803 180.125 135.859C180.265 135.914 180.427 135.942 180.611 135.942C180.738 135.942 180.866 135.931 180.994 135.91C181.122 135.884 181.22 135.865 181.288 135.852L181.716 137.879C181.58 137.921 181.388 137.97 181.141 138.026C180.894 138.085 180.594 138.121 180.24 138.134C179.584 138.16 179.008 138.072 178.514 137.872C178.024 137.672 177.643 137.361 177.37 136.939C177.097 136.517 176.963 135.984 176.967 135.341V125.83ZM183.311 141.682V128.182H185.996V129.831H186.117C186.237 129.567 186.409 129.298 186.635 129.026C186.865 128.749 187.164 128.518 187.53 128.335C187.901 128.148 188.361 128.054 188.911 128.054C189.627 128.054 190.287 128.241 190.892 128.616C191.497 128.987 191.981 129.548 192.343 130.298C192.705 131.043 192.887 131.979 192.887 133.104C192.887 134.199 192.71 135.124 192.356 135.878C192.007 136.628 191.529 137.197 190.924 137.585C190.323 137.968 189.65 138.16 188.904 138.16C188.376 138.16 187.926 138.072 187.556 137.898C187.189 137.723 186.889 137.504 186.654 137.239C186.42 136.971 186.241 136.7 186.117 136.428H186.034V141.682H183.311ZM185.977 133.091C185.977 133.675 186.058 134.184 186.22 134.619C186.382 135.053 186.616 135.392 186.923 135.635C187.23 135.874 187.602 135.993 188.041 135.993C188.485 135.993 188.86 135.871 189.166 135.629C189.473 135.381 189.705 135.04 189.863 134.606C190.025 134.167 190.106 133.662 190.106 133.091C190.106 132.524 190.027 132.026 189.869 131.595C189.712 131.165 189.48 130.828 189.173 130.585C188.866 130.342 188.489 130.221 188.041 130.221C187.598 130.221 187.223 130.338 186.916 130.572C186.614 130.807 186.382 131.139 186.22 131.57C186.058 132 185.977 132.507 185.977 133.091ZM202.871 130.982L200.378 131.135C200.335 130.922 200.244 130.73 200.103 130.56C199.963 130.385 199.777 130.246 199.547 130.144C199.321 130.038 199.051 129.984 198.735 129.984C198.313 129.984 197.958 130.074 197.668 130.253C197.378 130.428 197.233 130.662 197.233 130.956C197.233 131.19 197.327 131.388 197.514 131.55C197.702 131.712 198.024 131.842 198.48 131.94L200.257 132.298C201.211 132.494 201.923 132.81 202.392 133.244C202.86 133.679 203.095 134.25 203.095 134.957C203.095 135.601 202.905 136.165 202.526 136.651C202.151 137.137 201.635 137.516 200.979 137.789C200.327 138.058 199.575 138.192 198.722 138.192C197.423 138.192 196.387 137.921 195.616 137.38C194.849 136.835 194.399 136.093 194.267 135.156L196.945 135.015C197.026 135.411 197.222 135.714 197.534 135.923C197.845 136.127 198.243 136.229 198.729 136.229C199.206 136.229 199.59 136.138 199.879 135.955C200.173 135.767 200.323 135.526 200.327 135.232C200.323 134.985 200.218 134.783 200.014 134.625C199.809 134.463 199.494 134.339 199.068 134.254L197.367 133.915C196.409 133.724 195.695 133.391 195.226 132.918C194.762 132.445 194.529 131.842 194.529 131.109C194.529 130.479 194.7 129.935 195.041 129.479C195.386 129.023 195.869 128.672 196.492 128.425C197.118 128.178 197.851 128.054 198.691 128.054C199.931 128.054 200.906 128.316 201.618 128.84C202.334 129.364 202.752 130.078 202.871 130.982ZM206.401 138.166C205.979 138.166 205.617 138.017 205.314 137.719C205.016 137.416 204.867 137.054 204.867 136.632C204.867 136.214 205.016 135.857 205.314 135.558C205.617 135.26 205.979 135.111 206.401 135.111C206.81 135.111 207.168 135.26 207.475 135.558C207.782 135.857 207.935 136.214 207.935 136.632C207.935 136.913 207.863 137.171 207.718 137.406C207.577 137.636 207.392 137.821 207.162 137.962C206.931 138.098 206.678 138.166 206.401 138.166ZM206.401 131.288C205.979 131.288 205.617 131.139 205.314 130.841C205.016 130.543 204.867 130.18 204.867 129.754C204.867 129.337 205.016 128.981 205.314 128.687C205.617 128.388 205.979 128.239 206.401 128.239C206.81 128.239 207.168 128.388 207.475 128.687C207.782 128.981 207.935 129.337 207.935 129.754C207.935 130.04 207.863 130.3 207.718 130.534C207.577 130.764 207.392 130.947 207.162 131.084C206.931 131.22 206.678 131.288 206.401 131.288ZM215.872 124.295L211.654 139.969H209.308L213.526 124.295H215.872ZM222.886 124.295L218.667 139.969H216.321L220.54 124.295H222.886Z" fill="#38B54C"/>
<path d="M224.198 138V128.182H226.838V129.895H226.94C227.119 129.286 227.42 128.825 227.841 128.514C228.263 128.199 228.749 128.041 229.299 128.041C229.435 128.041 229.582 128.05 229.74 128.067C229.898 128.084 230.036 128.107 230.155 128.137V130.553C230.028 130.515 229.851 130.481 229.625 130.451C229.399 130.421 229.192 130.406 229.005 130.406C228.604 130.406 228.246 130.494 227.931 130.668C227.62 130.839 227.373 131.077 227.189 131.384C227.01 131.691 226.921 132.045 226.921 132.445V138H224.198ZM235.542 138.192C234.549 138.192 233.691 137.981 232.966 137.559C232.246 137.133 231.69 136.54 231.298 135.782C230.906 135.019 230.71 134.135 230.71 133.129C230.71 132.115 230.906 131.229 231.298 130.47C231.69 129.707 232.246 129.115 232.966 128.693C233.691 128.267 234.549 128.054 235.542 128.054C236.535 128.054 237.392 128.267 238.112 128.693C238.836 129.115 239.395 129.707 239.787 130.47C240.179 131.229 240.375 132.115 240.375 133.129C240.375 134.135 240.179 135.019 239.787 135.782C239.395 136.54 238.836 137.133 238.112 137.559C237.392 137.981 236.535 138.192 235.542 138.192ZM235.555 136.082C236.007 136.082 236.384 135.955 236.686 135.699C236.989 135.439 237.217 135.085 237.37 134.638C237.528 134.19 237.607 133.681 237.607 133.11C237.607 132.539 237.528 132.03 237.37 131.582C237.217 131.135 236.989 130.781 236.686 130.521C236.384 130.261 236.007 130.131 235.555 130.131C235.099 130.131 234.716 130.261 234.404 130.521C234.098 130.781 233.865 131.135 233.708 131.582C233.554 132.03 233.478 132.539 233.478 133.11C233.478 133.681 233.554 134.19 233.708 134.638C233.865 135.085 234.098 135.439 234.404 135.699C234.716 135.955 235.099 136.082 235.555 136.082ZM244.945 138.185C244.319 138.185 243.76 138.077 243.27 137.859C242.78 137.638 242.392 137.312 242.107 136.881C241.826 136.447 241.685 135.906 241.685 135.258C241.685 134.712 241.785 134.254 241.985 133.884C242.186 133.513 242.458 133.214 242.804 132.989C243.149 132.763 243.541 132.592 243.98 132.477C244.423 132.362 244.887 132.281 245.373 132.234C245.944 132.175 246.404 132.119 246.754 132.068C247.103 132.013 247.357 131.932 247.515 131.825C247.672 131.719 247.751 131.561 247.751 131.352V131.314C247.751 130.909 247.623 130.596 247.368 130.374C247.116 130.153 246.758 130.042 246.294 130.042C245.804 130.042 245.414 130.151 245.124 130.368C244.834 130.581 244.642 130.849 244.549 131.173L242.03 130.969C242.158 130.372 242.409 129.857 242.784 129.422C243.159 128.983 243.643 128.646 244.235 128.412C244.832 128.173 245.522 128.054 246.306 128.054C246.852 128.054 247.374 128.118 247.873 128.246C248.375 128.374 248.821 128.572 249.208 128.84C249.6 129.109 249.909 129.454 250.135 129.876C250.361 130.293 250.474 130.794 250.474 131.378V138H247.892V136.638H247.815C247.657 136.945 247.446 137.216 247.182 137.45C246.918 137.68 246.6 137.862 246.23 137.994C245.859 138.121 245.431 138.185 244.945 138.185ZM245.725 136.306C246.125 136.306 246.479 136.227 246.786 136.07C247.093 135.908 247.333 135.69 247.508 135.418C247.683 135.145 247.77 134.836 247.77 134.491V133.449C247.685 133.504 247.568 133.555 247.419 133.602C247.274 133.645 247.11 133.685 246.926 133.724C246.743 133.758 246.56 133.79 246.377 133.82C246.194 133.845 246.027 133.869 245.878 133.89C245.559 133.937 245.279 134.011 245.041 134.114C244.802 134.216 244.617 134.354 244.485 134.529C244.353 134.7 244.287 134.913 244.287 135.168C244.287 135.539 244.421 135.822 244.689 136.018C244.962 136.21 245.307 136.306 245.725 136.306ZM252.587 138V128.182H255.227V129.895H255.329C255.508 129.286 255.808 128.825 256.23 128.514C256.652 128.199 257.138 128.041 257.688 128.041C257.824 128.041 257.971 128.05 258.129 128.067C258.286 128.084 258.425 128.107 258.544 128.137V130.553C258.416 130.515 258.239 130.481 258.013 130.451C257.788 130.421 257.581 130.406 257.393 130.406C256.993 130.406 256.635 130.494 256.32 130.668C256.009 130.839 255.761 131.077 255.578 131.384C255.399 131.691 255.31 132.045 255.31 132.445V138H252.587ZM259.952 138V128.182H262.675V138H259.952ZM261.32 126.916C260.915 126.916 260.568 126.782 260.278 126.513C259.992 126.241 259.85 125.915 259.85 125.536C259.85 125.161 259.992 124.839 260.278 124.57C260.568 124.298 260.915 124.161 261.32 124.161C261.725 124.161 262.07 124.298 262.355 124.57C262.645 124.839 262.79 125.161 262.79 125.536C262.79 125.915 262.645 126.241 262.355 126.513C262.07 126.782 261.725 126.916 261.32 126.916ZM267.579 132.324V138H264.856V128.182H267.451V129.914H267.566C267.784 129.343 268.148 128.891 268.659 128.559C269.171 128.222 269.791 128.054 270.52 128.054C271.201 128.054 271.796 128.203 272.303 128.501C272.81 128.8 273.204 129.226 273.485 129.78C273.767 130.33 273.907 130.986 273.907 131.749V138H271.184V132.234C271.189 131.634 271.035 131.165 270.724 130.828C270.413 130.487 269.985 130.317 269.439 130.317C269.073 130.317 268.749 130.396 268.468 130.553C268.191 130.711 267.973 130.941 267.816 131.244C267.662 131.542 267.583 131.902 267.579 132.324ZM280.477 141.886C279.595 141.886 278.838 141.765 278.208 141.522C277.581 141.283 277.083 140.957 276.712 140.544C276.341 140.131 276.1 139.666 275.99 139.151L278.508 138.812C278.585 139.008 278.706 139.191 278.872 139.362C279.039 139.532 279.258 139.668 279.531 139.771C279.808 139.877 280.144 139.93 280.541 139.93C281.133 139.93 281.621 139.786 282.004 139.496C282.392 139.21 282.586 138.731 282.586 138.058V136.261H282.471C282.352 136.534 282.173 136.792 281.934 137.035C281.695 137.278 281.389 137.476 281.014 137.629C280.639 137.783 280.191 137.859 279.671 137.859C278.934 137.859 278.263 137.689 277.658 137.348C277.057 137.003 276.578 136.477 276.22 135.769C275.866 135.058 275.689 134.158 275.689 133.072C275.689 131.96 275.87 131.031 276.232 130.285C276.595 129.539 277.076 128.981 277.677 128.61C278.282 128.239 278.945 128.054 279.665 128.054C280.215 128.054 280.675 128.148 281.046 128.335C281.416 128.518 281.715 128.749 281.941 129.026C282.171 129.298 282.347 129.567 282.471 129.831H282.573V128.182H285.277V138.096C285.277 138.931 285.073 139.63 284.664 140.192C284.254 140.755 283.688 141.177 282.963 141.458C282.243 141.744 281.414 141.886 280.477 141.886ZM280.534 135.814C280.973 135.814 281.344 135.705 281.646 135.488C281.953 135.266 282.188 134.951 282.35 134.542C282.516 134.129 282.599 133.634 282.599 133.059C282.599 132.484 282.518 131.985 282.356 131.563C282.194 131.137 281.96 130.807 281.653 130.572C281.346 130.338 280.973 130.221 280.534 130.221C280.087 130.221 279.71 130.342 279.403 130.585C279.096 130.824 278.864 131.156 278.706 131.582C278.548 132.009 278.47 132.501 278.47 133.059C278.47 133.626 278.548 134.116 278.706 134.529C278.868 134.938 279.1 135.256 279.403 135.482C279.71 135.703 280.087 135.814 280.534 135.814ZM295.613 130.982L293.12 131.135C293.078 130.922 292.986 130.73 292.845 130.56C292.705 130.385 292.519 130.246 292.289 130.144C292.063 130.038 291.793 129.984 291.477 129.984C291.056 129.984 290.7 130.074 290.41 130.253C290.12 130.428 289.975 130.662 289.975 130.956C289.975 131.19 290.069 131.388 290.257 131.55C290.444 131.712 290.766 131.842 291.222 131.94L292.999 132.298C293.953 132.494 294.665 132.81 295.134 133.244C295.602 133.679 295.837 134.25 295.837 134.957C295.837 135.601 295.647 136.165 295.268 136.651C294.893 137.137 294.377 137.516 293.721 137.789C293.069 138.058 292.317 138.192 291.465 138.192C290.165 138.192 289.129 137.921 288.358 137.38C287.591 136.835 287.142 136.093 287.009 135.156L289.688 135.015C289.769 135.411 289.965 135.714 290.276 135.923C290.587 136.127 290.985 136.229 291.471 136.229C291.948 136.229 292.332 136.138 292.622 135.955C292.916 135.767 293.065 135.526 293.069 135.232C293.065 134.985 292.96 134.783 292.756 134.625C292.551 134.463 292.236 134.339 291.81 134.254L290.11 133.915C289.151 133.724 288.437 133.391 287.968 132.918C287.504 132.445 287.271 131.842 287.271 131.109C287.271 130.479 287.442 129.935 287.783 129.479C288.128 129.023 288.612 128.672 289.234 128.425C289.86 128.178 290.593 128.054 291.433 128.054C292.673 128.054 293.649 128.316 294.36 128.84C295.076 129.364 295.494 130.078 295.613 130.982ZM302.774 128.182V130.227H296.861V128.182H302.774ZM298.203 125.83H300.926V134.983C300.926 135.234 300.965 135.43 301.042 135.571C301.118 135.707 301.225 135.803 301.361 135.859C301.502 135.914 301.664 135.942 301.847 135.942C301.975 135.942 302.103 135.931 302.23 135.91C302.358 135.884 302.456 135.865 302.525 135.852L302.953 137.879C302.816 137.921 302.625 137.97 302.377 138.026C302.13 138.085 301.83 138.121 301.476 138.134C300.82 138.16 300.245 138.072 299.75 137.872C299.26 137.672 298.879 137.361 298.606 136.939C298.333 136.517 298.199 135.984 298.203 135.341V125.83ZM307.347 138.185C306.721 138.185 306.163 138.077 305.673 137.859C305.183 137.638 304.795 137.312 304.509 136.881C304.228 136.447 304.087 135.906 304.087 135.258C304.087 134.712 304.188 134.254 304.388 133.884C304.588 133.513 304.861 133.214 305.206 132.989C305.551 132.763 305.943 132.592 306.382 132.477C306.825 132.362 307.29 132.281 307.776 132.234C308.347 132.175 308.807 132.119 309.156 132.068C309.506 132.013 309.759 131.932 309.917 131.825C310.075 131.719 310.153 131.561 310.153 131.352V131.314C310.153 130.909 310.026 130.596 309.77 130.374C309.518 130.153 309.161 130.042 308.696 130.042C308.206 130.042 307.816 130.151 307.526 130.368C307.237 130.581 307.045 130.849 306.951 131.173L304.433 130.969C304.56 130.372 304.812 129.857 305.187 129.422C305.562 128.983 306.045 128.646 306.638 128.412C307.234 128.173 307.925 128.054 308.709 128.054C309.254 128.054 309.776 128.118 310.275 128.246C310.778 128.374 311.223 128.572 311.611 128.84C312.003 129.109 312.312 129.454 312.538 129.876C312.763 130.293 312.876 130.794 312.876 131.378V138H310.294V136.638H310.217C310.06 136.945 309.849 137.216 309.585 137.45C309.32 137.68 309.003 137.862 308.632 137.994C308.261 138.121 307.833 138.185 307.347 138.185ZM308.127 136.306C308.528 136.306 308.881 136.227 309.188 136.07C309.495 135.908 309.736 135.69 309.911 135.418C310.085 135.145 310.173 134.836 310.173 134.491V133.449C310.087 133.504 309.97 133.555 309.821 133.602C309.676 133.645 309.512 133.685 309.329 133.724C309.146 133.758 308.962 133.79 308.779 133.82C308.596 133.845 308.43 133.869 308.281 133.89C307.961 133.937 307.682 134.011 307.443 134.114C307.205 134.216 307.019 134.354 306.887 134.529C306.755 134.7 306.689 134.913 306.689 135.168C306.689 135.539 306.823 135.822 307.092 136.018C307.364 136.21 307.71 136.306 308.127 136.306ZM314.989 138V128.182H317.629V129.895H317.731C317.91 129.286 318.211 128.825 318.632 128.514C319.054 128.199 319.54 128.041 320.09 128.041C320.226 128.041 320.373 128.05 320.531 128.067C320.689 128.084 320.827 128.107 320.946 128.137V130.553C320.819 130.515 320.642 130.481 320.416 130.451C320.19 130.421 319.983 130.406 319.796 130.406C319.395 130.406 319.037 130.494 318.722 130.668C318.411 130.839 318.164 131.077 317.98 131.384C317.801 131.691 317.712 132.045 317.712 132.445V138H314.989ZM330.523 130.982L328.03 131.135C327.988 130.922 327.896 130.73 327.756 130.56C327.615 130.385 327.43 130.246 327.199 130.144C326.974 130.038 326.703 129.984 326.388 129.984C325.966 129.984 325.61 130.074 325.32 130.253C325.03 130.428 324.885 130.662 324.885 130.956C324.885 131.19 324.979 131.388 325.167 131.55C325.354 131.712 325.676 131.842 326.132 131.94L327.909 132.298C328.863 132.494 329.575 132.81 330.044 133.244C330.513 133.679 330.747 134.25 330.747 134.957C330.747 135.601 330.557 136.165 330.178 136.651C329.803 137.137 329.287 137.516 328.631 137.789C327.979 138.058 327.227 138.192 326.375 138.192C325.075 138.192 324.04 137.921 323.268 137.38C322.501 136.835 322.052 136.093 321.92 135.156L324.598 135.015C324.679 135.411 324.875 135.714 325.186 135.923C325.497 136.127 325.895 136.229 326.381 136.229C326.858 136.229 327.242 136.138 327.532 135.955C327.826 135.767 327.975 135.526 327.979 135.232C327.975 134.985 327.871 134.783 327.666 134.625C327.461 134.463 327.146 134.339 326.72 134.254L325.02 133.915C324.061 133.724 323.347 133.391 322.878 132.918C322.414 132.445 322.182 131.842 322.182 131.109C322.182 130.479 322.352 129.935 322.693 129.479C323.038 129.023 323.522 128.672 324.144 128.425C324.77 128.178 325.503 128.054 326.343 128.054C327.583 128.054 328.559 128.316 329.27 128.84C329.986 129.364 330.404 130.078 330.523 130.982ZM334.053 138.166C333.631 138.166 333.269 138.017 332.967 137.719C332.668 137.416 332.519 137.054 332.519 136.632C332.519 136.214 332.668 135.857 332.967 135.558C333.269 135.26 333.631 135.111 334.053 135.111C334.462 135.111 334.82 135.26 335.127 135.558C335.434 135.857 335.587 136.214 335.587 136.632C335.587 136.913 335.515 137.171 335.37 137.406C335.229 137.636 335.044 137.821 334.814 137.962C334.584 138.098 334.33 138.166 334.053 138.166ZM342.259 138.192C341.253 138.192 340.388 137.979 339.664 137.553C338.944 137.122 338.39 136.526 338.002 135.763C337.618 135 337.427 134.122 337.427 133.129C337.427 132.124 337.621 131.241 338.008 130.483C338.4 129.72 338.956 129.126 339.677 128.7C340.397 128.269 341.253 128.054 342.246 128.054C343.103 128.054 343.853 128.21 344.496 128.521C345.14 128.832 345.649 129.268 346.024 129.831C346.399 130.393 346.606 131.054 346.644 131.812H344.074C344.002 131.322 343.81 130.928 343.499 130.63C343.192 130.327 342.79 130.176 342.291 130.176C341.869 130.176 341.501 130.291 341.185 130.521C340.874 130.747 340.631 131.077 340.456 131.512C340.282 131.947 340.194 132.473 340.194 133.091C340.194 133.717 340.28 134.25 340.45 134.689C340.625 135.128 340.87 135.462 341.185 135.692C341.501 135.923 341.869 136.038 342.291 136.038C342.602 136.038 342.881 135.974 343.128 135.846C343.38 135.718 343.586 135.533 343.748 135.29C343.915 135.043 344.023 134.746 344.074 134.401H346.644C346.601 135.151 346.397 135.812 346.03 136.383C345.668 136.95 345.167 137.393 344.528 137.712C343.889 138.032 343.133 138.192 342.259 138.192ZM352.824 138.192C351.831 138.192 350.972 137.981 350.248 137.559C349.527 137.133 348.971 136.54 348.579 135.782C348.187 135.019 347.991 134.135 347.991 133.129C347.991 132.115 348.187 131.229 348.579 130.47C348.971 129.707 349.527 129.115 350.248 128.693C350.972 128.267 351.831 128.054 352.824 128.054C353.816 128.054 354.673 128.267 355.393 128.693C356.118 129.115 356.676 129.707 357.068 130.47C357.46 131.229 357.656 132.115 357.656 133.129C357.656 134.135 357.46 135.019 357.068 135.782C356.676 136.54 356.118 137.133 355.393 137.559C354.673 137.981 353.816 138.192 352.824 138.192ZM352.836 136.082C353.288 136.082 353.665 135.955 353.968 135.699C354.27 135.439 354.498 135.085 354.652 134.638C354.809 134.19 354.888 133.681 354.888 133.11C354.888 132.539 354.809 132.03 354.652 131.582C354.498 131.135 354.27 130.781 353.968 130.521C353.665 130.261 353.288 130.131 352.836 130.131C352.38 130.131 351.997 130.261 351.686 130.521C351.379 130.781 351.147 131.135 350.989 131.582C350.836 132.03 350.759 132.539 350.759 133.11C350.759 133.681 350.836 134.19 350.989 134.638C351.147 135.085 351.379 135.439 351.686 135.699C351.997 135.955 352.38 136.082 352.836 136.082ZM359.426 138V128.182H362.022V129.914H362.137C362.341 129.339 362.682 128.885 363.159 128.553C363.637 128.22 364.208 128.054 364.873 128.054C365.546 128.054 366.119 128.222 366.592 128.559C367.065 128.891 367.38 129.343 367.538 129.914H367.64C367.841 129.352 368.203 128.902 368.727 128.565C369.255 128.224 369.88 128.054 370.6 128.054C371.516 128.054 372.26 128.346 372.831 128.93C373.406 129.509 373.694 130.332 373.694 131.397V138H370.977V131.934C370.977 131.388 370.832 130.979 370.542 130.707C370.252 130.434 369.89 130.298 369.456 130.298C368.961 130.298 368.576 130.455 368.299 130.771C368.022 131.082 367.883 131.493 367.883 132.004V138H365.243V131.876C365.243 131.395 365.105 131.011 364.828 130.726C364.555 130.44 364.195 130.298 363.748 130.298C363.445 130.298 363.172 130.374 362.929 130.528C362.691 130.677 362.501 130.888 362.36 131.161C362.22 131.429 362.15 131.744 362.15 132.107V138H359.426ZM381.546 124.295L377.327 139.969H374.982L379.2 124.295H381.546ZM385.658 138.185C385.031 138.185 384.473 138.077 383.983 137.859C383.493 137.638 383.105 137.312 382.82 136.881C382.539 136.447 382.398 135.906 382.398 135.258C382.398 134.712 382.498 134.254 382.698 133.884C382.899 133.513 383.171 133.214 383.517 132.989C383.862 132.763 384.254 132.592 384.693 132.477C385.136 132.362 385.6 132.281 386.086 132.234C386.657 132.175 387.117 132.119 387.467 132.068C387.816 132.013 388.07 131.932 388.227 131.825C388.385 131.719 388.464 131.561 388.464 131.352V131.314C388.464 130.909 388.336 130.596 388.08 130.374C387.829 130.153 387.471 130.042 387.007 130.042C386.517 130.042 386.127 130.151 385.837 130.368C385.547 130.581 385.355 130.849 385.262 131.173L382.743 130.969C382.871 130.372 383.122 129.857 383.497 129.422C383.872 128.983 384.356 128.646 384.948 128.412C385.545 128.173 386.235 128.054 387.019 128.054C387.565 128.054 388.087 128.118 388.585 128.246C389.088 128.374 389.534 128.572 389.921 128.84C390.313 129.109 390.622 129.454 390.848 129.876C391.074 130.293 391.187 130.794 391.187 131.378V138H388.605V136.638H388.528C388.37 136.945 388.159 137.216 387.895 137.45C387.631 137.68 387.313 137.862 386.943 137.994C386.572 138.121 386.144 138.185 385.658 138.185ZM386.438 136.306C386.838 136.306 387.192 136.227 387.499 136.07C387.806 135.908 388.046 135.69 388.221 135.418C388.396 135.145 388.483 134.836 388.483 134.491V133.449C388.398 133.504 388.281 133.555 388.132 133.602C387.987 133.645 387.823 133.685 387.639 133.724C387.456 133.758 387.273 133.79 387.09 133.82C386.906 133.845 386.74 133.869 386.591 133.89C386.271 133.937 385.992 134.011 385.754 134.114C385.515 134.216 385.33 134.354 385.198 134.529C385.066 134.7 384.999 134.913 384.999 135.168C384.999 135.539 385.134 135.822 385.402 136.018C385.675 136.21 386.02 136.306 386.438 136.306ZM398.522 128.182V130.227H392.609V128.182H398.522ZM393.952 125.83H396.675V134.983C396.675 135.234 396.713 135.43 396.79 135.571C396.866 135.707 396.973 135.803 397.109 135.859C397.25 135.914 397.412 135.942 397.595 135.942C397.723 135.942 397.851 135.931 397.979 135.91C398.106 135.884 398.204 135.865 398.273 135.852L398.701 137.879C398.564 137.921 398.373 137.97 398.126 138.026C397.878 138.085 397.578 138.121 397.224 138.134C396.568 138.16 395.993 138.072 395.498 137.872C395.008 137.672 394.627 137.361 394.354 136.939C394.081 136.517 393.947 135.984 393.952 135.341V125.83ZM400.296 138V128.182H402.891V129.914H403.006C403.21 129.339 403.551 128.885 404.029 128.553C404.506 128.22 405.077 128.054 405.742 128.054C406.415 128.054 406.988 128.222 407.461 128.559C407.934 128.891 408.249 129.343 408.407 129.914H408.509C408.71 129.352 409.072 128.902 409.596 128.565C410.124 128.224 410.749 128.054 411.469 128.054C412.385 128.054 413.129 128.346 413.7 128.93C414.275 129.509 414.563 130.332 414.563 131.397V138H411.846V131.934C411.846 131.388 411.701 130.979 411.411 130.707C411.122 130.434 410.759 130.298 410.325 130.298C409.83 130.298 409.445 130.455 409.168 130.771C408.891 131.082 408.752 131.493 408.752 132.004V138H406.112V131.876C406.112 131.395 405.974 131.011 405.697 130.726C405.424 130.44 405.064 130.298 404.617 130.298C404.314 130.298 404.041 130.374 403.798 130.528C403.56 130.677 403.37 130.888 403.23 131.161C403.089 131.429 403.019 131.744 403.019 132.107V138H400.296ZM422.415 124.295L418.197 139.969H415.851L420.069 124.295H422.415ZM426.067 134.075V133.858C426.071 133.112 426.137 132.518 426.265 132.075C426.397 131.631 426.589 131.273 426.84 131.001C427.092 130.728 427.394 130.481 427.748 130.259C428.012 130.089 428.249 129.912 428.457 129.729C428.666 129.545 428.832 129.343 428.956 129.121C429.08 128.896 429.141 128.644 429.141 128.367C429.141 128.073 429.071 127.815 428.93 127.594C428.79 127.372 428.6 127.202 428.362 127.082C428.127 126.963 427.867 126.903 427.582 126.903C427.305 126.903 427.043 126.965 426.795 127.089C426.548 127.208 426.346 127.387 426.188 127.626C426.031 127.86 425.945 128.152 425.933 128.501H423.325C423.346 127.649 423.55 126.946 423.938 126.392C424.326 125.834 424.839 125.418 425.479 125.146C426.118 124.869 426.823 124.73 427.594 124.73C428.442 124.73 429.192 124.871 429.844 125.152C430.496 125.429 431.008 125.832 431.379 126.36C431.749 126.888 431.935 127.526 431.935 128.271C431.935 128.77 431.852 129.213 431.685 129.601C431.523 129.984 431.295 130.325 431.001 130.624C430.707 130.918 430.36 131.184 429.96 131.423C429.623 131.623 429.346 131.832 429.129 132.049C428.915 132.266 428.756 132.518 428.649 132.803C428.547 133.089 428.494 133.44 428.489 133.858V134.075H426.067ZM427.332 138.166C426.906 138.166 426.542 138.017 426.239 137.719C425.941 137.416 425.794 137.054 425.798 136.632C425.794 136.214 425.941 135.857 426.239 135.558C426.542 135.26 426.906 135.111 427.332 135.111C427.737 135.111 428.093 135.26 428.4 135.558C428.707 135.857 428.862 136.214 428.866 136.632C428.862 136.913 428.788 137.171 428.643 137.406C428.502 137.636 428.317 137.821 428.087 137.962C427.857 138.098 427.605 138.166 427.332 138.166ZM439.075 128.182V130.227H433.162V128.182H439.075ZM434.504 125.83H437.227V134.983C437.227 135.234 437.266 135.43 437.342 135.571C437.419 135.707 437.526 135.803 437.662 135.859C437.803 135.914 437.964 135.942 438.148 135.942C438.276 135.942 438.403 135.931 438.531 135.91C438.659 135.884 438.757 135.865 438.825 135.852L439.254 137.879C439.117 137.921 438.925 137.97 438.678 138.026C438.431 138.085 438.131 138.121 437.777 138.134C437.121 138.16 436.545 138.072 436.051 137.872C435.561 137.672 435.18 137.361 434.907 136.939C434.634 136.517 434.5 135.984 434.504 135.341V125.83ZM440.848 138V128.182H443.488V129.895H443.591C443.77 129.286 444.07 128.825 444.492 128.514C444.914 128.199 445.4 128.041 445.949 128.041C446.086 128.041 446.233 128.05 446.39 128.067C446.548 128.084 446.686 128.107 446.806 128.137V130.553C446.678 130.515 446.501 130.481 446.275 130.451C446.049 130.421 445.843 130.406 445.655 130.406C445.255 130.406 444.897 130.494 444.581 130.668C444.27 130.839 444.023 131.077 443.84 131.384C443.661 131.691 443.571 132.045 443.571 132.445V138H440.848ZM450.788 128.182L452.591 131.614L454.438 128.182H457.231L454.387 133.091L457.308 138H454.527L452.591 134.606L450.686 138H447.873L450.788 133.091L447.975 128.182H450.788ZM466.346 138V140.065H457.749V138H466.346ZM468.042 138V128.182H470.765V138H468.042ZM469.41 126.916C469.005 126.916 468.657 126.782 468.368 126.513C468.082 126.241 467.939 125.915 467.939 125.536C467.939 125.161 468.082 124.839 468.368 124.57C468.657 124.298 469.005 124.161 469.41 124.161C469.814 124.161 470.16 124.298 470.445 124.57C470.735 124.839 470.88 125.161 470.88 125.536C470.88 125.915 470.735 126.241 470.445 126.513C470.16 126.782 469.814 126.916 469.41 126.916ZM476.564 138.16C475.818 138.16 475.143 137.968 474.538 137.585C473.937 137.197 473.46 136.628 473.106 135.878C472.756 135.124 472.582 134.199 472.582 133.104C472.582 131.979 472.763 131.043 473.125 130.298C473.487 129.548 473.969 128.987 474.57 128.616C475.175 128.241 475.837 128.054 476.558 128.054C477.107 128.054 477.565 128.148 477.932 128.335C478.303 128.518 478.601 128.749 478.827 129.026C479.057 129.298 479.232 129.567 479.351 129.831H479.434V124.909H482.151V138H479.466V136.428H479.351C479.223 136.7 479.042 136.971 478.808 137.239C478.577 137.504 478.277 137.723 477.906 137.898C477.54 138.072 477.092 138.16 476.564 138.16ZM477.427 135.993C477.866 135.993 478.237 135.874 478.539 135.635C478.846 135.392 479.08 135.053 479.242 134.619C479.408 134.184 479.491 133.675 479.491 133.091C479.491 132.507 479.411 132 479.249 131.57C479.087 131.139 478.852 130.807 478.545 130.572C478.239 130.338 477.866 130.221 477.427 130.221C476.979 130.221 476.602 130.342 476.295 130.585C475.989 130.828 475.756 131.165 475.599 131.595C475.441 132.026 475.362 132.524 475.362 133.091C475.362 133.662 475.441 134.167 475.599 134.606C475.761 135.04 475.993 135.381 476.295 135.629C476.602 135.871 476.979 135.993 477.427 135.993ZM485.003 131.774V129.505H493.83V131.774H485.003ZM485.003 136.018V133.749H493.83V136.018H485.003Z" fill="#8C8C8C"/>
<path d="M501.379 138.179C500.476 138.179 499.671 138.013 498.963 137.68C498.26 137.348 497.702 136.89 497.289 136.306C496.875 135.722 496.66 135.053 496.643 134.299H499.328C499.357 134.806 499.57 135.217 499.967 135.533C500.363 135.848 500.834 136.006 501.379 136.006C501.814 136.006 502.198 135.91 502.53 135.718C502.867 135.522 503.129 135.251 503.316 134.906C503.508 134.557 503.604 134.156 503.604 133.705C503.604 133.244 503.506 132.839 503.31 132.49C503.118 132.141 502.852 131.868 502.511 131.672C502.17 131.476 501.78 131.376 501.341 131.371C500.958 131.371 500.585 131.45 500.222 131.608C499.865 131.766 499.585 131.981 499.385 132.254L496.924 131.812L497.544 124.909H505.547V127.172H499.826L499.487 130.451H499.564C499.794 130.127 500.142 129.859 500.606 129.646C501.07 129.433 501.59 129.326 502.166 129.326C502.954 129.326 503.657 129.511 504.275 129.882C504.893 130.253 505.381 130.762 505.739 131.41C506.097 132.053 506.274 132.795 506.269 133.634C506.274 134.516 506.069 135.3 505.656 135.987C505.247 136.668 504.673 137.205 503.936 137.597C503.203 137.985 502.351 138.179 501.379 138.179ZM513.039 138.179C512.084 138.179 511.234 138.015 510.488 137.687C509.747 137.354 509.161 136.898 508.73 136.319C508.304 135.735 508.085 135.062 508.072 134.299H510.859C510.876 134.619 510.98 134.9 511.172 135.143C511.368 135.381 511.628 135.567 511.952 135.699C512.276 135.831 512.64 135.897 513.045 135.897C513.467 135.897 513.84 135.822 514.164 135.673C514.487 135.524 514.741 135.317 514.924 135.053C515.107 134.789 515.199 134.484 515.199 134.139C515.199 133.79 515.101 133.481 514.905 133.212C514.713 132.94 514.436 132.727 514.074 132.573C513.716 132.42 513.29 132.343 512.796 132.343H511.575V130.31H512.796C513.213 130.31 513.582 130.238 513.901 130.093C514.225 129.948 514.477 129.748 514.656 129.492C514.835 129.232 514.924 128.93 514.924 128.585C514.924 128.256 514.845 127.969 514.688 127.722C514.534 127.47 514.317 127.274 514.036 127.134C513.759 126.993 513.435 126.923 513.064 126.923C512.689 126.923 512.346 126.991 512.035 127.127C511.724 127.259 511.475 127.449 511.287 127.696C511.1 127.943 510.999 128.233 510.987 128.565H508.334C508.347 127.811 508.562 127.146 508.98 126.571C509.397 125.996 509.96 125.546 510.667 125.222C511.379 124.894 512.182 124.73 513.077 124.73C513.98 124.73 514.771 124.894 515.448 125.222C516.126 125.55 516.652 125.994 517.027 126.552C517.406 127.106 517.594 127.728 517.59 128.418C517.594 129.151 517.366 129.763 516.906 130.253C516.45 130.743 515.855 131.054 515.122 131.186V131.288C516.085 131.412 516.818 131.746 517.321 132.292C517.828 132.833 518.08 133.511 518.075 134.325C518.08 135.07 517.865 135.733 517.43 136.312C516.999 136.892 516.405 137.348 515.646 137.68C514.888 138.013 514.019 138.179 513.039 138.179ZM525.37 128.182V130.227H519.311V128.182H525.37ZM520.698 138V127.472C520.698 126.761 520.836 126.17 521.113 125.702C521.395 125.233 521.778 124.881 522.264 124.647C522.75 124.413 523.301 124.295 523.919 124.295C524.337 124.295 524.718 124.327 525.064 124.391C525.413 124.455 525.673 124.513 525.843 124.564L525.358 126.609C525.251 126.575 525.119 126.543 524.961 126.513C524.808 126.484 524.65 126.469 524.488 126.469C524.088 126.469 523.809 126.562 523.651 126.75C523.493 126.933 523.414 127.191 523.414 127.523V138H520.698ZM532.314 128.182V130.227H526.254V128.182H532.314ZM527.641 138V127.472C527.641 126.761 527.78 126.17 528.057 125.702C528.338 125.233 528.721 124.881 529.207 124.647C529.693 124.413 530.245 124.295 530.863 124.295C531.28 124.295 531.662 124.327 532.007 124.391C532.356 124.455 532.616 124.513 532.787 124.564L532.301 126.609C532.194 126.575 532.062 126.543 531.905 126.513C531.751 126.484 531.594 126.469 531.432 126.469C531.031 126.469 530.752 126.562 530.594 126.75C530.437 126.933 530.358 127.191 530.358 127.523V138H527.641ZM533.952 138V136.006L538.612 131.691C539.008 131.308 539.34 130.962 539.609 130.656C539.881 130.349 540.088 130.048 540.229 129.754C540.369 129.456 540.44 129.134 540.44 128.789C540.44 128.406 540.352 128.075 540.178 127.798C540.003 127.517 539.764 127.302 539.462 127.153C539.159 126.999 538.816 126.923 538.433 126.923C538.032 126.923 537.683 127.004 537.384 127.165C537.086 127.327 536.856 127.56 536.694 127.862C536.532 128.165 536.451 128.525 536.451 128.942H533.824C533.824 128.086 534.018 127.342 534.406 126.712C534.793 126.081 535.337 125.593 536.036 125.248C536.734 124.903 537.54 124.73 538.452 124.73C539.389 124.73 540.205 124.896 540.9 125.229C541.599 125.557 542.142 126.013 542.53 126.597C542.918 127.18 543.112 127.849 543.112 128.604C543.112 129.098 543.013 129.586 542.817 130.067C542.626 130.549 542.283 131.084 541.788 131.672C541.294 132.256 540.597 132.957 539.698 133.775L537.787 135.648V135.737H543.284V138H533.952ZM548.115 138.185C547.488 138.185 546.93 138.077 546.44 137.859C545.95 137.638 545.562 137.312 545.277 136.881C544.996 136.447 544.855 135.906 544.855 135.258C544.855 134.712 544.955 134.254 545.155 133.884C545.356 133.513 545.628 133.214 545.974 132.989C546.319 132.763 546.711 132.592 547.15 132.477C547.593 132.362 548.057 132.281 548.543 132.234C549.114 132.175 549.574 132.119 549.924 132.068C550.273 132.013 550.527 131.932 550.684 131.825C550.842 131.719 550.921 131.561 550.921 131.352V131.314C550.921 130.909 550.793 130.596 550.537 130.374C550.286 130.153 549.928 130.042 549.464 130.042C548.974 130.042 548.584 130.151 548.294 130.368C548.004 130.581 547.812 130.849 547.719 131.173L545.2 130.969C545.328 130.372 545.579 129.857 545.954 129.422C546.329 128.983 546.813 128.646 547.405 128.412C548.002 128.173 548.692 128.054 549.476 128.054C550.022 128.054 550.544 128.118 551.042 128.246C551.545 128.374 551.991 128.572 552.378 128.84C552.77 129.109 553.079 129.454 553.305 129.876C553.531 130.293 553.644 130.794 553.644 131.378V138H551.062V136.638H550.985C550.827 136.945 550.616 137.216 550.352 137.45C550.088 137.68 549.77 137.862 549.4 137.994C549.029 138.121 548.601 138.185 548.115 138.185ZM548.895 136.306C549.295 136.306 549.649 136.227 549.956 136.07C550.263 135.908 550.503 135.69 550.678 135.418C550.853 135.145 550.94 134.836 550.94 134.491V133.449C550.855 133.504 550.738 133.555 550.589 133.602C550.444 133.645 550.28 133.685 550.096 133.724C549.913 133.758 549.73 133.79 549.547 133.82C549.363 133.845 549.197 133.869 549.048 133.89C548.729 133.937 548.449 134.011 548.211 134.114C547.972 134.216 547.787 134.354 547.655 134.529C547.523 134.7 547.456 134.913 547.456 135.168C547.456 135.539 547.591 135.822 547.859 136.018C548.132 136.21 548.477 136.306 548.895 136.306ZM560.468 124.73C561.141 124.73 561.789 124.843 562.411 125.069C563.037 125.295 563.595 125.655 564.085 126.149C564.58 126.643 564.97 127.3 565.255 128.118C565.545 128.932 565.692 129.931 565.696 131.116C565.696 132.228 565.57 133.221 565.319 134.094C565.072 134.964 564.716 135.703 564.252 136.312C563.787 136.922 563.227 137.386 562.57 137.706C561.914 138.021 561.181 138.179 560.372 138.179C559.498 138.179 558.727 138.011 558.058 137.674C557.389 137.333 556.85 136.871 556.441 136.287C556.036 135.699 555.791 135.038 555.705 134.305H558.435C558.541 134.783 558.765 135.153 559.106 135.418C559.447 135.678 559.869 135.808 560.372 135.808C561.224 135.808 561.872 135.437 562.315 134.695C562.758 133.95 562.982 132.929 562.986 131.634H562.896C562.7 132.017 562.436 132.347 562.104 132.624C561.771 132.897 561.39 133.108 560.96 133.257C560.534 133.406 560.08 133.481 559.598 133.481C558.827 133.481 558.139 133.3 557.534 132.938C556.928 132.575 556.451 132.077 556.102 131.442C555.752 130.807 555.578 130.082 555.578 129.268C555.573 128.391 555.776 127.609 556.185 126.923C556.594 126.237 557.165 125.7 557.898 125.312C558.635 124.92 559.492 124.726 560.468 124.73ZM560.487 126.903C560.056 126.903 559.673 127.006 559.336 127.21C559.004 127.415 558.74 127.69 558.544 128.035C558.352 128.38 558.258 128.766 558.262 129.192C558.262 129.622 558.356 130.01 558.544 130.355C558.735 130.696 558.995 130.969 559.323 131.173C559.656 131.374 560.035 131.474 560.461 131.474C560.781 131.474 561.077 131.414 561.35 131.295C561.622 131.175 561.859 131.011 562.059 130.803C562.264 130.589 562.423 130.344 562.539 130.067C562.654 129.79 562.711 129.496 562.711 129.185C562.707 128.772 562.609 128.393 562.417 128.048C562.225 127.702 561.961 127.425 561.624 127.217C561.288 127.008 560.909 126.903 560.487 126.903ZM572.114 138.192C571.104 138.192 570.235 137.987 569.506 137.578C568.781 137.165 568.223 136.581 567.831 135.827C567.439 135.068 567.243 134.171 567.243 133.136C567.243 132.126 567.439 131.239 567.831 130.477C568.223 129.714 568.775 129.119 569.487 128.693C570.203 128.267 571.042 128.054 572.005 128.054C572.653 128.054 573.256 128.158 573.814 128.367C574.377 128.572 574.867 128.881 575.284 129.294C575.706 129.707 576.034 130.227 576.269 130.854C576.503 131.476 576.62 132.205 576.62 133.04V133.788H568.33V132.1H574.057C574.057 131.708 573.972 131.361 573.801 131.058C573.631 130.756 573.394 130.519 573.092 130.349C572.794 130.174 572.446 130.087 572.05 130.087C571.637 130.087 571.27 130.183 570.95 130.374C570.635 130.562 570.388 130.815 570.209 131.135C570.03 131.45 569.938 131.802 569.934 132.19V133.794C569.934 134.28 570.024 134.7 570.203 135.053C570.386 135.407 570.644 135.68 570.976 135.871C571.308 136.063 571.703 136.159 572.159 136.159C572.461 136.159 572.738 136.116 572.99 136.031C573.241 135.946 573.456 135.818 573.635 135.648C573.814 135.477 573.95 135.268 574.044 135.021L576.563 135.188C576.435 135.793 576.173 136.321 575.776 136.773C575.384 137.22 574.877 137.57 574.255 137.821C573.637 138.068 572.923 138.192 572.114 138.192ZM584.514 131.544V133.705H578.544V131.544H584.514ZM592.115 128.182V130.227H586.055V128.182H592.115ZM587.442 138V127.472C587.442 126.761 587.58 126.17 587.857 125.702C588.139 125.233 588.522 124.881 589.008 124.647C589.494 124.413 590.046 124.295 590.664 124.295C591.081 124.295 591.463 124.327 591.808 124.391C592.157 124.455 592.417 124.513 592.588 124.564L592.102 126.609C591.995 126.575 591.863 126.543 591.705 126.513C591.552 126.484 591.394 126.469 591.232 126.469C590.832 126.469 590.553 126.562 590.395 126.75C590.237 126.933 590.159 127.191 590.159 127.523V138H587.442ZM592.429 135.699V133.519L597.895 124.909H599.774V127.926H598.662L595.216 133.379V133.481H602.983V135.699H592.429ZM598.713 138V135.034L598.764 134.069V124.909H601.359V138H598.713ZM609.71 138.179C608.726 138.179 607.85 138.019 607.083 137.7C606.32 137.376 605.722 136.935 605.287 136.376C604.852 135.818 604.635 135.185 604.635 134.478C604.635 133.933 604.759 133.432 605.006 132.976C605.257 132.516 605.598 132.134 606.028 131.832C606.459 131.525 606.94 131.329 607.473 131.244V131.154C606.774 131.013 606.207 130.675 605.773 130.138C605.338 129.597 605.121 128.968 605.121 128.252C605.121 127.575 605.319 126.972 605.715 126.443C606.112 125.911 606.655 125.493 607.345 125.19C608.04 124.884 608.828 124.73 609.71 124.73C610.592 124.73 611.379 124.884 612.069 125.19C612.763 125.497 613.309 125.917 613.705 126.45C614.102 126.978 614.302 127.579 614.306 128.252C614.302 128.972 614.08 129.601 613.641 130.138C613.202 130.675 612.64 131.013 611.954 131.154V131.244C612.478 131.329 612.953 131.525 613.379 131.832C613.81 132.134 614.151 132.516 614.402 132.976C614.658 133.432 614.788 133.933 614.792 134.478C614.788 135.185 614.568 135.818 614.134 136.376C613.699 136.935 613.098 137.376 612.331 137.7C611.568 138.019 610.695 138.179 609.71 138.179ZM609.71 136.146C610.149 136.146 610.533 136.067 610.861 135.91C611.189 135.748 611.445 135.526 611.628 135.245C611.815 134.96 611.909 134.631 611.909 134.261C611.909 133.881 611.813 133.547 611.621 133.257C611.43 132.963 611.17 132.733 610.842 132.567C610.513 132.396 610.136 132.311 609.71 132.311C609.288 132.311 608.911 132.396 608.579 132.567C608.246 132.733 607.984 132.963 607.793 133.257C607.605 133.547 607.511 133.881 607.511 134.261C607.511 134.631 607.603 134.96 607.786 135.245C607.969 135.526 608.227 135.748 608.56 135.91C608.892 136.067 609.276 136.146 609.71 136.146ZM609.71 130.298C610.077 130.298 610.403 130.223 610.688 130.074C610.974 129.925 611.197 129.718 611.359 129.454C611.521 129.19 611.602 128.885 611.602 128.54C611.602 128.199 611.521 127.901 611.359 127.645C611.197 127.385 610.976 127.183 610.695 127.038C610.413 126.888 610.085 126.814 609.71 126.814C609.339 126.814 609.011 126.888 608.726 127.038C608.44 127.183 608.217 127.385 608.055 127.645C607.897 127.901 607.818 128.199 607.818 128.54C607.818 128.885 607.899 129.19 608.061 129.454C608.223 129.718 608.447 129.925 608.732 130.074C609.018 130.223 609.344 130.298 609.71 130.298ZM622.422 124.909V138H619.655V127.536H619.578L616.58 129.415V126.961L619.821 124.909H622.422ZM631.676 130.374V132.535H625.706V130.374H631.676ZM633.773 135.699V133.519L639.238 124.909H641.118V127.926H640.005L636.56 133.379V133.481H644.326V135.699H633.773ZM640.056 138V135.034L640.108 134.069V124.909H642.703V138H640.056ZM651.054 138.179C650.07 138.179 649.194 138.019 648.427 137.7C647.664 137.376 647.065 136.935 646.631 136.376C646.196 135.818 645.979 135.185 645.979 134.478C645.979 133.933 646.102 133.432 646.349 132.976C646.601 132.516 646.942 132.134 647.372 131.832C647.803 131.525 648.284 131.329 648.817 131.244V131.154C648.118 131.013 647.551 130.675 647.116 130.138C646.682 129.597 646.464 128.968 646.464 128.252C646.464 127.575 646.663 126.972 647.059 126.443C647.455 125.911 647.999 125.493 648.689 125.19C649.384 124.884 650.172 124.73 651.054 124.73C651.936 124.73 652.722 124.884 653.413 125.19C654.107 125.497 654.653 125.917 655.049 126.45C655.445 126.978 655.646 127.579 655.65 128.252C655.646 128.972 655.424 129.601 654.985 130.138C654.546 130.675 653.984 131.013 653.298 131.154V131.244C653.822 131.329 654.297 131.525 654.723 131.832C655.153 132.134 655.494 132.516 655.746 132.976C656.001 133.432 656.131 133.933 656.136 134.478C656.131 135.185 655.912 135.818 655.477 136.376C655.043 136.935 654.442 137.376 653.675 137.7C652.912 138.019 652.038 138.179 651.054 138.179ZM651.054 136.146C651.493 136.146 651.876 136.067 652.205 135.91C652.533 135.748 652.788 135.526 652.972 135.245C653.159 134.96 653.253 134.631 653.253 134.261C653.253 133.881 653.157 133.547 652.965 133.257C652.773 132.963 652.513 132.733 652.185 132.567C651.857 132.396 651.48 132.311 651.054 132.311C650.632 132.311 650.255 132.396 649.923 132.567C649.59 132.733 649.328 132.963 649.136 133.257C648.949 133.547 648.855 133.881 648.855 134.261C648.855 134.631 648.947 134.96 649.13 135.245C649.313 135.526 649.571 135.748 649.903 135.91C650.236 136.067 650.619 136.146 651.054 136.146ZM651.054 130.298C651.42 130.298 651.746 130.223 652.032 130.074C652.317 129.925 652.541 129.718 652.703 129.454C652.865 129.19 652.946 128.885 652.946 128.54C652.946 128.199 652.865 127.901 652.703 127.645C652.541 127.385 652.32 127.183 652.038 127.038C651.757 126.888 651.429 126.814 651.054 126.814C650.683 126.814 650.355 126.888 650.07 127.038C649.784 127.183 649.56 127.385 649.398 127.645C649.241 127.901 649.162 128.199 649.162 128.54C649.162 128.885 649.243 129.19 649.405 129.454C649.567 129.718 649.79 129.925 650.076 130.074C650.362 130.223 650.688 130.298 651.054 130.298ZM662.532 138.192C661.527 138.192 660.662 137.979 659.937 137.553C659.217 137.122 658.663 136.526 658.275 135.763C657.892 135 657.7 134.122 657.7 133.129C657.7 132.124 657.894 131.241 658.282 130.483C658.674 129.72 659.23 129.126 659.95 128.7C660.67 128.269 661.527 128.054 662.52 128.054C663.376 128.054 664.126 128.21 664.77 128.521C665.413 128.832 665.922 129.268 666.297 129.831C666.672 130.393 666.879 131.054 666.917 131.812H664.348C664.275 131.322 664.084 130.928 663.773 130.63C663.466 130.327 663.063 130.176 662.564 130.176C662.143 130.176 661.774 130.291 661.459 130.521C661.148 130.747 660.905 131.077 660.73 131.512C660.555 131.947 660.468 132.473 660.468 133.091C660.468 133.717 660.553 134.25 660.724 134.689C660.898 135.128 661.143 135.462 661.459 135.692C661.774 135.923 662.143 136.038 662.564 136.038C662.876 136.038 663.155 135.974 663.402 135.846C663.653 135.718 663.86 135.533 664.022 135.29C664.188 135.043 664.297 134.746 664.348 134.401H666.917C666.875 135.151 666.67 135.812 666.304 136.383C665.942 136.95 665.441 137.393 664.802 137.712C664.162 138.032 663.406 138.192 662.532 138.192ZM673.659 138.179C672.986 138.175 672.336 138.062 671.71 137.84C671.088 137.619 670.529 137.259 670.035 136.76C669.541 136.261 669.149 135.601 668.859 134.778C668.574 133.956 668.431 132.946 668.431 131.749C668.435 130.649 668.561 129.667 668.808 128.802C669.059 127.933 669.417 127.195 669.882 126.59C670.35 125.985 670.911 125.525 671.563 125.21C672.215 124.89 672.946 124.73 673.755 124.73C674.629 124.73 675.4 124.901 676.069 125.241C676.738 125.578 677.275 126.036 677.68 126.616C678.089 127.195 678.336 127.845 678.422 128.565H675.692C675.586 128.109 675.362 127.751 675.021 127.491C674.68 127.232 674.258 127.102 673.755 127.102C672.903 127.102 672.255 127.472 671.812 128.214C671.373 128.955 671.15 129.963 671.141 131.237H671.23C671.426 130.849 671.691 130.519 672.023 130.246C672.36 129.969 672.741 129.759 673.167 129.614C673.598 129.464 674.051 129.39 674.529 129.39C675.304 129.39 675.995 129.573 676.6 129.94C677.205 130.302 677.682 130.8 678.032 131.435C678.381 132.07 678.556 132.797 678.556 133.615C678.556 134.501 678.349 135.29 677.936 135.98C677.527 136.67 676.953 137.212 676.216 137.604C675.483 137.991 674.631 138.183 673.659 138.179ZM673.647 136.006C674.073 136.006 674.454 135.903 674.791 135.699C675.127 135.494 675.392 135.217 675.583 134.868C675.775 134.518 675.871 134.126 675.871 133.692C675.871 133.257 675.775 132.867 675.583 132.522C675.396 132.177 675.136 131.902 674.804 131.697C674.471 131.493 674.092 131.391 673.666 131.391C673.346 131.391 673.05 131.45 672.777 131.57C672.509 131.689 672.272 131.855 672.068 132.068C671.868 132.281 671.71 132.528 671.595 132.81C671.48 133.087 671.422 133.383 671.422 133.698C671.422 134.12 671.518 134.506 671.71 134.855C671.906 135.205 672.17 135.484 672.502 135.692C672.839 135.901 673.221 136.006 673.647 136.006ZM686.661 131.544V133.705H680.691V131.544H686.661ZM691.781 138.185C691.154 138.185 690.596 138.077 690.106 137.859C689.616 137.638 689.228 137.312 688.943 136.881C688.662 136.447 688.521 135.906 688.521 135.258C688.521 134.712 688.621 134.254 688.821 133.884C689.022 133.513 689.294 133.214 689.64 132.989C689.985 132.763 690.377 132.592 690.816 132.477C691.259 132.362 691.723 132.281 692.209 132.234C692.78 132.175 693.24 132.119 693.59 132.068C693.939 132.013 694.193 131.932 694.35 131.825C694.508 131.719 694.587 131.561 694.587 131.352V131.314C694.587 130.909 694.459 130.596 694.203 130.374C693.952 130.153 693.594 130.042 693.13 130.042C692.64 130.042 692.25 130.151 691.96 130.368C691.67 130.581 691.478 130.849 691.385 131.173L688.866 130.969C688.994 130.372 689.245 129.857 689.62 129.422C689.995 128.983 690.479 128.646 691.071 128.412C691.668 128.173 692.358 128.054 693.142 128.054C693.688 128.054 694.21 128.118 694.708 128.246C695.211 128.374 695.657 128.572 696.044 128.84C696.436 129.109 696.745 129.454 696.971 129.876C697.197 130.293 697.31 130.794 697.31 131.378V138H694.728V136.638H694.651C694.493 136.945 694.282 137.216 694.018 137.45C693.754 137.68 693.436 137.862 693.066 137.994C692.695 138.121 692.267 138.185 691.781 138.185ZM692.561 136.306C692.961 136.306 693.315 136.227 693.622 136.07C693.929 135.908 694.169 135.69 694.344 135.418C694.519 135.145 694.606 134.836 694.606 134.491V133.449C694.521 133.504 694.404 133.555 694.255 133.602C694.11 133.645 693.946 133.685 693.762 133.724C693.579 133.758 693.396 133.79 693.213 133.82C693.029 133.845 692.863 133.869 692.714 133.89C692.395 133.937 692.115 134.011 691.877 134.114C691.638 134.216 691.453 134.354 691.321 134.529C691.189 134.7 691.123 134.913 691.123 135.168C691.123 135.539 691.257 135.822 691.525 136.018C691.798 136.21 692.143 136.306 692.561 136.306ZM704.421 138.179C703.748 138.175 703.098 138.062 702.472 137.84C701.849 137.619 701.291 137.259 700.797 136.76C700.303 136.261 699.911 135.601 699.621 134.778C699.335 133.956 699.192 132.946 699.192 131.749C699.197 130.649 699.322 129.667 699.57 128.802C699.821 127.933 700.179 127.195 700.643 126.59C701.112 125.985 701.673 125.525 702.325 125.21C702.977 124.89 703.707 124.73 704.517 124.73C705.391 124.73 706.162 124.901 706.831 125.241C707.5 125.578 708.037 126.036 708.442 126.616C708.851 127.195 709.098 127.845 709.183 128.565H706.454C706.347 128.109 706.124 127.751 705.783 127.491C705.442 127.232 705.02 127.102 704.517 127.102C703.665 127.102 703.017 127.472 702.574 128.214C702.135 128.955 701.911 129.963 701.903 131.237H701.992C702.188 130.849 702.452 130.519 702.785 130.246C703.121 129.969 703.503 129.759 703.929 129.614C704.359 129.464 704.813 129.39 705.29 129.39C706.066 129.39 706.756 129.573 707.362 129.94C707.967 130.302 708.444 130.8 708.793 131.435C709.143 132.07 709.317 132.797 709.317 133.615C709.317 134.501 709.111 135.29 708.697 135.98C708.288 136.67 707.715 137.212 706.978 137.604C706.245 137.991 705.393 138.183 704.421 138.179ZM704.408 136.006C704.835 136.006 705.216 135.903 705.553 135.699C705.889 135.494 706.153 135.217 706.345 134.868C706.537 134.518 706.633 134.126 706.633 133.692C706.633 133.257 706.537 132.867 706.345 132.522C706.158 132.177 705.898 131.902 705.565 131.697C705.233 131.493 704.854 131.391 704.428 131.391C704.108 131.391 703.812 131.45 703.539 131.57C703.271 131.689 703.034 131.855 702.83 132.068C702.629 132.281 702.472 132.528 702.357 132.81C702.241 133.087 702.184 133.383 702.184 133.698C702.184 134.12 702.28 134.506 702.472 134.855C702.668 135.205 702.932 135.484 703.264 135.692C703.601 135.901 703.982 136.006 704.408 136.006ZM716.061 138.179C715.158 138.179 714.352 138.013 713.645 137.68C712.942 137.348 712.384 136.89 711.97 136.306C711.557 135.722 711.342 135.053 711.325 134.299H714.009C714.039 134.806 714.252 135.217 714.648 135.533C715.045 135.848 715.516 136.006 716.061 136.006C716.496 136.006 716.879 135.91 717.212 135.718C717.548 135.522 717.81 135.251 717.998 134.906C718.19 134.557 718.286 134.156 718.286 133.705C718.286 133.244 718.188 132.839 717.991 132.49C717.8 132.141 717.533 131.868 717.192 131.672C716.852 131.476 716.462 131.376 716.023 131.371C715.639 131.371 715.266 131.45 714.904 131.608C714.546 131.766 714.267 131.981 714.067 132.254L711.606 131.812L712.226 124.909H720.229V127.172H714.508L714.169 130.451H714.246C714.476 130.127 714.823 129.859 715.288 129.646C715.752 129.433 716.272 129.326 716.847 129.326C717.636 129.326 718.339 129.511 718.957 129.882C719.575 130.253 720.062 130.762 720.42 131.41C720.778 132.053 720.955 132.795 720.951 133.634C720.955 134.516 720.751 135.3 720.337 135.987C719.928 136.668 719.355 137.205 718.618 137.597C717.885 137.985 717.033 138.179 716.061 138.179ZM727.906 138.179C727.232 138.175 726.582 138.062 725.956 137.84C725.334 137.619 724.776 137.259 724.281 136.76C723.787 136.261 723.395 135.601 723.105 134.778C722.82 133.956 722.677 132.946 722.677 131.749C722.681 130.649 722.807 129.667 723.054 128.802C723.305 127.933 723.663 127.195 724.128 126.59C724.597 125.985 725.157 125.525 725.809 125.21C726.461 124.89 727.192 124.73 728.001 124.73C728.875 124.73 729.646 124.901 730.315 125.241C730.984 125.578 731.521 126.036 731.926 126.616C732.335 127.195 732.582 127.845 732.668 128.565H729.938C729.832 128.109 729.608 127.751 729.267 127.491C728.926 127.232 728.504 127.102 728.001 127.102C727.149 127.102 726.501 127.472 726.058 128.214C725.619 128.955 725.396 129.963 725.387 131.237H725.477C725.673 130.849 725.937 130.519 726.269 130.246C726.606 129.969 726.987 129.759 727.413 129.614C727.844 129.464 728.298 129.39 728.775 129.39C729.55 129.39 730.241 129.573 730.846 129.94C731.451 130.302 731.928 130.8 732.278 131.435C732.627 132.07 732.802 132.797 732.802 133.615C732.802 134.501 732.595 135.29 732.182 135.98C731.773 136.67 731.2 137.212 730.462 137.604C729.729 137.991 728.877 138.183 727.906 138.179ZM727.893 136.006C728.319 136.006 728.7 135.903 729.037 135.699C729.374 135.494 729.638 135.217 729.83 134.868C730.021 134.518 730.117 134.126 730.117 133.692C730.117 133.257 730.021 132.867 729.83 132.522C729.642 132.177 729.382 131.902 729.05 131.697C728.717 131.493 728.338 131.391 727.912 131.391C727.592 131.391 727.296 131.45 727.023 131.57C726.755 131.689 726.518 131.855 726.314 132.068C726.114 132.281 725.956 132.528 725.841 132.81C725.726 133.087 725.668 133.383 725.668 133.698C725.668 134.12 725.764 134.506 725.956 134.855C726.152 135.205 726.416 135.484 726.749 135.692C727.085 135.901 727.467 136.006 727.893 136.006ZM740.907 130.374V132.535H734.937V130.374H740.907ZM742.833 138V136.006L747.492 131.691C747.889 131.308 748.221 130.962 748.49 130.656C748.762 130.349 748.969 130.048 749.11 129.754C749.25 129.456 749.32 129.134 749.32 128.789C749.32 128.406 749.233 128.075 749.058 127.798C748.884 127.517 748.645 127.302 748.343 127.153C748.04 126.999 747.697 126.923 747.313 126.923C746.913 126.923 746.563 127.004 746.265 127.165C745.967 127.327 745.737 127.56 745.575 127.862C745.413 128.165 745.332 128.525 745.332 128.942H742.705C742.705 128.086 742.899 127.342 743.286 126.712C743.674 126.081 744.218 125.593 744.916 125.248C745.615 124.903 746.421 124.73 747.333 124.73C748.27 124.73 749.086 124.896 749.781 125.229C750.48 125.557 751.023 126.013 751.411 126.597C751.798 127.18 751.992 127.849 751.992 128.604C751.992 129.098 751.894 129.586 751.698 130.067C751.507 130.549 751.164 131.084 750.669 131.672C750.175 132.256 749.478 132.957 748.579 133.775L746.668 135.648V135.737H752.165V138H742.833ZM759.303 138.288C758.204 138.283 757.258 138.013 756.465 137.476C755.677 136.939 755.07 136.161 754.643 135.143C754.222 134.124 754.013 132.899 754.017 131.467C754.017 130.04 754.228 128.823 754.65 127.817C755.076 126.812 755.683 126.047 756.472 125.523C757.264 124.994 758.208 124.73 759.303 124.73C760.398 124.73 761.34 124.994 762.129 125.523C762.921 126.051 763.531 126.818 763.957 127.824C764.383 128.825 764.594 130.04 764.589 131.467C764.589 132.903 764.376 134.131 763.95 135.149C763.528 136.168 762.923 136.945 762.135 137.482C761.347 138.019 760.403 138.288 759.303 138.288ZM759.303 135.993C760.053 135.993 760.652 135.616 761.099 134.862C761.547 134.107 761.768 132.976 761.764 131.467C761.764 130.474 761.662 129.648 761.457 128.987C761.257 128.327 760.972 127.83 760.601 127.498C760.234 127.165 759.802 126.999 759.303 126.999C758.558 126.999 757.961 127.372 757.513 128.118C757.066 128.864 756.84 129.98 756.836 131.467C756.836 132.473 756.936 133.312 757.136 133.986C757.341 134.655 757.629 135.158 757.999 135.494C758.37 135.827 758.805 135.993 759.303 135.993ZM772.258 124.909V138H769.491V127.536H769.414L766.416 129.415V126.961L769.657 124.909H772.258ZM780.208 138.179C779.254 138.179 778.404 138.015 777.658 137.687C776.917 137.354 776.331 136.898 775.9 136.319C775.474 135.735 775.255 135.062 775.242 134.299H778.029C778.046 134.619 778.15 134.9 778.342 135.143C778.538 135.381 778.798 135.567 779.122 135.699C779.446 135.831 779.81 135.897 780.215 135.897C780.637 135.897 781.01 135.822 781.333 135.673C781.657 135.524 781.911 135.317 782.094 135.053C782.277 134.789 782.369 134.484 782.369 134.139C782.369 133.79 782.271 133.481 782.075 133.212C781.883 132.94 781.606 132.727 781.244 132.573C780.886 132.42 780.46 132.343 779.966 132.343H778.745V130.31H779.966C780.383 130.31 780.752 130.238 781.071 130.093C781.395 129.948 781.647 129.748 781.826 129.492C782.005 129.232 782.094 128.93 782.094 128.585C782.094 128.256 782.015 127.969 781.858 127.722C781.704 127.47 781.487 127.274 781.206 127.134C780.929 126.993 780.605 126.923 780.234 126.923C779.859 126.923 779.516 126.991 779.205 127.127C778.894 127.259 778.645 127.449 778.457 127.696C778.27 127.943 778.169 128.233 778.157 128.565H775.504C775.517 127.811 775.732 127.146 776.15 126.571C776.567 125.996 777.13 125.546 777.837 125.222C778.549 124.894 779.352 124.73 780.247 124.73C781.15 124.73 781.941 124.894 782.618 125.222C783.296 125.55 783.822 125.994 784.197 126.552C784.576 127.106 784.764 127.728 784.76 128.418C784.764 129.151 784.536 129.763 784.076 130.253C783.62 130.743 783.025 131.054 782.292 131.186V131.288C783.255 131.412 783.988 131.746 784.491 132.292C784.998 132.833 785.25 133.511 785.245 134.325C785.25 135.07 785.034 135.733 784.6 136.312C784.169 136.892 783.575 137.348 782.816 137.68C782.058 138.013 781.189 138.179 780.208 138.179ZM787.753 138L793.18 127.261V127.172H786.858V124.909H796.043V127.204L790.61 138H787.753ZM802.501 124.73C803.174 124.73 803.822 124.843 804.444 125.069C805.07 125.295 805.629 125.655 806.119 126.149C806.613 126.643 807.003 127.3 807.288 128.118C807.578 128.932 807.725 129.931 807.729 131.116C807.729 132.228 807.604 133.221 807.352 134.094C807.105 134.964 806.749 135.703 806.285 136.312C805.82 136.922 805.26 137.386 804.604 137.706C803.947 138.021 803.214 138.179 802.405 138.179C801.531 138.179 800.76 138.011 800.091 137.674C799.422 137.333 798.883 136.871 798.474 136.287C798.069 135.699 797.824 135.038 797.739 134.305H800.468C800.575 134.783 800.798 135.153 801.139 135.418C801.48 135.678 801.902 135.808 802.405 135.808C803.257 135.808 803.905 135.437 804.348 134.695C804.791 133.95 805.015 132.929 805.019 131.634H804.93C804.734 132.017 804.469 132.347 804.137 132.624C803.805 132.897 803.423 133.108 802.993 133.257C802.567 133.406 802.113 133.481 801.631 133.481C800.86 133.481 800.172 133.3 799.567 132.938C798.962 132.575 798.484 132.077 798.135 131.442C797.786 130.807 797.611 130.082 797.611 129.268C797.607 128.391 797.809 127.609 798.218 126.923C798.627 126.237 799.198 125.7 799.931 125.312C800.668 124.92 801.525 124.726 802.501 124.73ZM802.52 126.903C802.089 126.903 801.706 127.006 801.369 127.21C801.037 127.415 800.773 127.69 800.577 128.035C800.385 128.38 800.291 128.766 800.295 129.192C800.295 129.622 800.389 130.01 800.577 130.355C800.768 130.696 801.028 130.969 801.357 131.173C801.689 131.374 802.068 131.474 802.494 131.474C802.814 131.474 803.11 131.414 803.383 131.295C803.656 131.175 803.892 131.011 804.092 130.803C804.297 130.589 804.457 130.344 804.572 130.067C804.687 129.79 804.744 129.496 804.744 129.185C804.74 128.772 804.642 128.393 804.45 128.048C804.259 127.702 803.994 127.425 803.658 127.217C803.321 127.008 802.942 126.903 802.52 126.903ZM814.384 124.73C815.057 124.73 815.705 124.843 816.327 125.069C816.953 125.295 817.511 125.655 818.001 126.149C818.496 126.643 818.886 127.3 819.171 128.118C819.461 128.932 819.608 129.931 819.612 131.116C819.612 132.228 819.487 133.221 819.235 134.094C818.988 134.964 818.632 135.703 818.168 136.312C817.703 136.922 817.143 137.386 816.487 137.706C815.83 138.021 815.097 138.179 814.288 138.179C813.414 138.179 812.643 138.011 811.974 137.674C811.305 137.333 810.766 136.871 810.357 136.287C809.952 135.699 809.707 135.038 809.621 134.305H812.351C812.457 134.783 812.681 135.153 813.022 135.418C813.363 135.678 813.785 135.808 814.288 135.808C815.14 135.808 815.788 135.437 816.231 134.695C816.674 133.95 816.898 132.929 816.902 131.634H816.812C816.616 132.017 816.352 132.347 816.02 132.624C815.688 132.897 815.306 133.108 814.876 133.257C814.45 133.406 813.996 133.481 813.514 133.481C812.743 133.481 812.055 133.3 811.45 132.938C810.844 132.575 810.367 132.077 810.018 131.442C809.668 130.807 809.494 130.082 809.494 129.268C809.489 128.391 809.692 127.609 810.101 126.923C810.51 126.237 811.081 125.7 811.814 125.312C812.551 124.92 813.408 124.726 814.384 124.73ZM814.403 126.903C813.972 126.903 813.589 127.006 813.252 127.21C812.92 127.415 812.656 127.69 812.46 128.035C812.268 128.38 812.174 128.766 812.178 129.192C812.178 129.622 812.272 130.01 812.46 130.355C812.651 130.696 812.911 130.969 813.239 131.173C813.572 131.374 813.951 131.474 814.377 131.474C814.697 131.474 814.993 131.414 815.266 131.295C815.538 131.175 815.775 131.011 815.975 130.803C816.18 130.589 816.339 130.344 816.455 130.067C816.57 129.79 816.627 129.496 816.627 129.185C816.623 128.772 816.525 128.393 816.333 128.048C816.141 127.702 815.877 127.425 815.54 127.217C815.204 127.008 814.825 126.903 814.403 126.903ZM826.835 128.182V130.227H820.776V128.182H826.835ZM822.163 138V127.472C822.163 126.761 822.301 126.17 822.578 125.702C822.859 125.233 823.243 124.881 823.729 124.647C824.214 124.413 824.766 124.295 825.384 124.295C825.802 124.295 826.183 124.327 826.528 124.391C826.878 124.455 827.138 124.513 827.308 124.564L826.822 126.609C826.716 126.575 826.584 126.543 826.426 126.513C826.273 126.484 826.115 126.469 825.953 126.469C825.553 126.469 825.273 126.562 825.116 126.75C824.958 126.933 824.879 127.191 824.879 127.523V138H822.163ZM828.473 138V136.006L833.133 131.691C833.529 131.308 833.862 130.962 834.13 130.656C834.403 130.349 834.61 130.048 834.75 129.754C834.891 129.456 834.961 129.134 834.961 128.789C834.961 128.406 834.874 128.075 834.699 127.798C834.524 127.517 834.286 127.302 833.983 127.153C833.681 126.999 833.338 126.923 832.954 126.923C832.553 126.923 832.204 127.004 831.906 127.165C831.607 127.327 831.377 127.56 831.215 127.862C831.053 128.165 830.972 128.525 830.972 128.942H828.345C828.345 128.086 828.539 127.342 828.927 126.712C829.315 126.081 829.858 125.593 830.557 125.248C831.256 124.903 832.061 124.73 832.973 124.73C833.911 124.73 834.727 124.896 835.421 125.229C836.12 125.557 836.664 126.013 837.051 126.597C837.439 127.18 837.633 127.849 837.633 128.604C837.633 129.098 837.535 129.586 837.339 130.067C837.147 130.549 836.804 131.084 836.31 131.672C835.816 132.256 835.119 132.957 834.22 133.775L832.308 135.648V135.737H837.806V138H828.473ZM844.65 138.179C843.695 138.179 842.845 138.015 842.099 137.687C841.358 137.354 840.772 136.898 840.342 136.319C839.915 135.735 839.696 135.062 839.683 134.299H842.47C842.487 134.619 842.592 134.9 842.783 135.143C842.979 135.381 843.239 135.567 843.563 135.699C843.887 135.831 844.251 135.897 844.656 135.897C845.078 135.897 845.451 135.822 845.775 135.673C846.099 135.524 846.352 135.317 846.536 135.053C846.719 134.789 846.81 134.484 846.81 134.139C846.81 133.79 846.712 133.481 846.516 133.212C846.325 132.94 846.048 132.727 845.685 132.573C845.327 132.42 844.901 132.343 844.407 132.343H843.186V130.31H844.407C844.825 130.31 845.193 130.238 845.513 130.093C845.837 129.948 846.088 129.748 846.267 129.492C846.446 129.232 846.536 128.93 846.536 128.585C846.536 128.256 846.457 127.969 846.299 127.722C846.146 127.47 845.928 127.274 845.647 127.134C845.37 126.993 845.046 126.923 844.675 126.923C844.3 126.923 843.957 126.991 843.646 127.127C843.335 127.259 843.086 127.449 842.898 127.696C842.711 127.943 842.611 128.233 842.598 128.565H839.945C839.958 127.811 840.173 127.146 840.591 126.571C841.009 125.996 841.571 125.546 842.278 125.222C842.99 124.894 843.793 124.73 844.688 124.73C845.592 124.73 846.382 124.894 847.06 125.222C847.737 125.55 848.263 125.994 848.638 126.552C849.018 127.106 849.205 127.728 849.201 128.418C849.205 129.151 848.977 129.763 848.517 130.253C848.061 130.743 847.467 131.054 846.734 131.186V131.288C847.697 131.412 848.43 131.746 848.933 132.292C849.44 132.833 849.691 133.511 849.687 134.325C849.691 135.07 849.476 135.733 849.041 136.312C848.611 136.892 848.016 137.348 847.258 137.68C846.499 138.013 845.63 138.179 844.65 138.179ZM851.676 138V136.006L856.336 131.691C856.732 131.308 857.065 130.962 857.333 130.656C857.606 130.349 857.813 130.048 857.953 129.754C858.094 129.456 858.164 129.134 858.164 128.789C858.164 128.406 858.077 128.075 857.902 127.798C857.727 127.517 857.489 127.302 857.186 127.153C856.884 126.999 856.541 126.923 856.157 126.923C855.757 126.923 855.407 127.004 855.109 127.165C854.811 127.327 854.58 127.56 854.419 127.862C854.257 128.165 854.176 128.525 854.176 128.942H851.548C851.548 128.086 851.742 127.342 852.13 126.712C852.518 126.081 853.061 125.593 853.76 125.248C854.459 124.903 855.264 124.73 856.176 124.73C857.114 124.73 857.93 124.896 858.624 125.229C859.323 125.557 859.867 126.013 860.254 126.597C860.642 127.18 860.836 127.849 860.836 128.604C860.836 129.098 860.738 129.586 860.542 130.067C860.35 130.549 860.007 131.084 859.513 131.672C859.019 132.256 858.322 132.957 857.423 133.775L855.512 135.648V135.737H861.009V138H851.676ZM863.091 138V124.909H865.814V129.831H865.897C866.016 129.567 866.189 129.298 866.415 129.026C866.645 128.749 866.943 128.518 867.31 128.335C867.68 128.148 868.141 128.054 868.69 128.054C869.406 128.054 870.067 128.241 870.672 128.616C871.277 128.987 871.761 129.548 872.123 130.298C872.485 131.043 872.666 131.979 872.666 133.104C872.666 134.199 872.489 135.124 872.136 135.878C871.786 136.628 871.309 137.197 870.704 137.585C870.103 137.968 869.43 138.16 868.684 138.16C868.156 138.16 867.706 138.072 867.335 137.898C866.969 137.723 866.668 137.504 866.434 137.239C866.2 136.971 866.021 136.7 865.897 136.428H865.776V138H863.091ZM865.756 133.091C865.756 133.675 865.837 134.184 865.999 134.619C866.161 135.053 866.396 135.392 866.702 135.635C867.009 135.874 867.382 135.993 867.821 135.993C868.264 135.993 868.639 135.871 868.946 135.629C869.253 135.381 869.485 135.04 869.643 134.606C869.805 134.167 869.886 133.662 869.886 133.091C869.886 132.524 869.807 132.026 869.649 131.595C869.491 131.165 869.259 130.828 868.952 130.585C868.646 130.342 868.268 130.221 867.821 130.221C867.378 130.221 867.003 130.338 866.696 130.572C866.393 130.807 866.161 131.139 865.999 131.57C865.837 132 865.756 132.507 865.756 133.091Z" fill="#525252"/>
<path fill-rule="evenodd" clip-rule="evenodd" d="M90.3388 118.157C88.9891 118.559 87.8965 119.476 87.255 120.743C86.874 121.496 86.8406 121.699 86.7972 123.521L86.7505 125.488L86.2149 125.755C85.9205 125.902 85.5266 126.232 85.3397 126.489L85 126.956L85.0418 131.859C85.082 136.574 85.0954 136.777 85.3874 137.145C86.0685 138.001 86.059 138 92.9732 138C99.8523 138 99.8721 137.998 100.603 137.196L101 136.761L100.999 131.797C100.999 126.182 101.005 126.214 99.8484 125.744L99.2601 125.504L99.2133 123.529C99.1703 121.724 99.133 121.489 98.7761 120.787C98.2542 119.759 97.3345 118.868 96.3266 118.411C95.5427 118.056 95.3787 118.034 93.2252 118.005C91.6359 117.984 90.767 118.029 90.3388 118.157ZM95.6263 119.854C96.4472 120.221 97.2376 121.135 97.4707 121.987C97.5562 122.299 97.626 123.228 97.626 124.051V125.548H92.9881H88.3502L88.4074 123.745C88.4579 122.151 88.5067 121.866 88.8284 121.289C89.6061 119.895 90.7534 119.436 93.3035 119.499C94.639 119.533 95.0452 119.595 95.6263 119.854ZM94.3292 128.663C95.5604 129.365 95.5623 131.106 94.3324 131.85C93.976 132.065 93.9587 132.134 93.9587 133.341C93.9587 134.454 93.9243 134.624 93.6749 134.747C93.2538 134.955 92.966 134.919 92.6384 134.616C92.3937 134.391 92.345 134.165 92.345 133.258V132.169L91.7716 131.666C91.17 131.138 90.9118 130.448 91.082 129.823C91.1954 129.405 91.8608 128.67 92.2596 128.521C92.8268 128.31 93.83 128.378 94.3292 128.663Z" fill="#38B54C"/>
<path d="M279.566 242.19C278.845 242.383 278.242 242.143 277.759 241.472C277.276 240.801 276.776 239.858 276.258 238.644L275.884 237.709C274.947 235.751 274.09 233.785 273.315 231.812C272.532 229.813 271.636 227.389 270.626 224.54L269.63 221.742C268.091 222.181 265.871 222.705 262.97 223.315L262.187 223.483C261.819 223.553 261.517 223.455 261.28 223.187C261.062 222.886 260.877 222.453 260.725 221.886L263.392 221.173C267.874 219.975 271.964 219.062 275.66 218.433C279.356 217.804 281.342 218.005 281.618 219.035C281.693 219.319 281.693 219.526 281.618 219.656C281.568 219.78 281.402 219.88 281.118 219.955C280.067 220.153 278.411 220.361 276.151 220.579C275.641 220.633 275.024 220.701 274.301 220.784C273.578 220.866 272.764 220.973 271.861 221.104C272.859 224.84 274.948 230.437 278.129 237.895C278.283 238.268 278.612 238.774 279.114 239.413C279.325 239.687 279.53 239.991 279.73 240.324C279.948 240.625 280.095 240.917 280.171 241.2C280.267 241.561 280.274 241.794 280.192 241.898C280.11 242.003 279.991 242.076 279.837 242.118C279.708 242.152 279.618 242.176 279.566 242.19ZM293.168 238.514C291.561 236.735 290.076 234.537 288.714 231.92C287.378 229.296 286.438 226.966 285.894 224.931C285.681 224.132 285.724 223.569 286.022 223.241C286.194 223.057 286.331 222.951 286.434 222.923C286.615 222.875 286.781 222.983 286.934 223.245C287.113 223.501 287.354 223.989 287.657 224.708L288.222 226.048C288.133 224.581 288.382 223.342 288.967 222.329C289.571 221.285 290.466 220.604 291.651 220.287C292.965 219.936 294.012 219.932 294.794 220.275C295.569 220.593 296.111 221.331 296.421 222.49C294.968 222.216 293.713 222.22 292.657 222.503C291.652 222.771 290.861 223.272 290.284 224.006C289.708 224.74 289.419 225.673 289.418 226.805C289.379 227.588 289.445 228.302 289.617 228.946C289.803 229.642 290.069 230.274 290.414 230.844C290.779 231.382 291.284 232.034 291.93 232.799C292.558 233.598 293.061 234.291 293.439 234.88C293.843 235.463 294.158 236.124 294.383 236.864C294.5 237.302 294.431 237.665 294.177 237.954C293.916 238.217 293.58 238.403 293.168 238.514ZM307.01 226.699C308.424 227.343 309.934 228.14 311.541 229.091C313.173 230.035 314.573 230.985 315.739 231.943C315.838 232.414 315.769 232.777 315.534 233.033C315.306 233.315 315.001 233.466 314.619 233.485C313.551 232.997 312.592 232.508 311.743 232.018C310.887 231.501 309.793 230.814 308.459 229.955L306.078 228.48C305.662 229.199 305.124 230.488 304.462 232.349C304.134 233.292 303.852 234.044 303.615 234.604C303.397 235.131 303.183 235.465 302.972 235.604C302.637 235.693 302.336 235.705 302.07 235.638C301.797 235.545 301.622 235.357 301.546 235.074C301.498 234.893 301.489 234.703 301.518 234.502C301.578 233.796 301.819 232.944 302.243 231.948C302.693 230.945 303.407 229.539 304.387 227.731L300.616 225.551C299.147 224.702 298.177 224.119 297.706 223.803C297.236 223.487 296.806 223.119 296.418 222.698C296.373 222.324 296.439 222.003 296.615 221.735C296.811 221.434 297.063 221.242 297.373 221.16C298.385 221.745 299.649 222.497 301.164 223.417C303.104 224.583 304.521 225.391 305.414 225.842C305.884 224.916 306.091 224.502 306.035 224.6C307.018 222.598 307.916 220.95 308.73 219.657C309.562 218.33 310.326 217.574 311.022 217.388C311.537 217.25 311.925 217.464 312.187 218.029C312.228 218.183 311.981 218.705 311.445 219.593C310.929 220.449 310.349 221.377 309.705 222.377C308.267 224.638 307.368 226.079 307.01 226.699ZM333.582 227.713C333.281 227.932 332.939 227.94 332.554 227.74C332.195 227.532 331.933 227.174 331.77 226.666C331.467 225.946 331.107 225.062 330.689 224.015C330.297 222.96 330.006 222.182 329.817 221.681C329.628 221.179 329.247 220.219 328.674 218.798C328.12 217.345 327.608 216.102 327.139 215.068C326.991 214.721 326.651 214.122 326.12 213.27C324.664 210.816 323.777 208.997 323.461 207.812C323.572 207.506 323.718 207.329 323.898 207.281C324.568 207.102 325.622 208.255 327.059 210.742C328.497 213.229 329.911 216.094 331.302 219.338C332.713 222.549 333.583 224.773 333.913 226.01C333.927 226.062 333.972 226.229 334.048 226.512C334.117 226.77 334.111 227.006 334.03 227.221C333.975 227.429 333.826 227.593 333.582 227.713ZM343.526 222.572C343.443 222.263 343.407 222.024 343.417 221.856C343.446 221.655 343.59 221.52 343.847 221.451C344.079 221.389 344.35 221.372 344.661 221.399C344.998 221.419 345.325 221.456 345.643 221.509C346.447 221.625 347.153 221.685 347.761 221.688C348.395 221.685 349.15 221.566 350.026 221.332C353.22 220.478 355.413 219.078 356.604 217.131C357.821 215.177 358.103 212.976 357.449 210.529C356.863 208.339 355.732 206.585 354.055 205.267C352.371 203.923 350.448 203.029 348.287 202.585C346.152 202.134 344.081 202.08 342.075 202.423L348.646 218.181C348.763 218.619 348.795 218.997 348.742 219.315C348.714 219.626 348.495 219.836 348.082 219.946C347.993 220.025 347.614 219.381 346.945 218.014C346.276 216.648 345.322 214.625 344.082 211.948C342.641 208.828 341.555 206.523 340.826 205.034C340.09 203.519 339.601 202.67 339.359 202.487C337.221 203.058 335.5 203.642 334.196 204.239C332.886 204.81 331.908 205.333 331.262 205.81C330.617 206.286 330.358 206.507 330.487 206.472C330.345 206.455 330.234 206.402 330.155 206.313C330.069 206.198 329.982 206.028 329.894 205.803C329.781 205.585 329.697 205.427 329.644 205.331C329.479 204.713 329.902 204.075 330.913 203.419C331.925 202.762 333.018 202.207 334.195 201.755C335.397 201.296 336.204 201.011 336.616 200.901C339.373 200.164 342.397 199.963 345.688 200.298C348.973 200.607 351.922 201.572 354.536 203.192C357.149 204.812 358.852 207.104 359.644 210.067C360.236 212.282 360.188 214.324 359.5 216.191C358.805 218.033 357.663 219.594 356.073 220.875C354.509 222.149 352.709 223.057 350.674 223.601C349.025 224.042 347.475 224.18 346.023 224.016C344.572 223.852 343.739 223.37 343.526 222.572Z" fill="black"/>
<path d="M293 253C305.652 247.911 334.564 238.242 349 240.277" stroke="black" stroke-width="2" stroke-linecap="round"/>
<path fill-rule="evenodd" clip-rule="evenodd" d="M383.015 242.042C376.355 237.24 373.757 235.082 374.299 234.798C375.28 234.286 395.443 228.16 395.971 228.214C396.188 228.236 395.401 229.995 394.223 232.124C392.139 235.889 392.105 236.014 393.001 236.715C394.196 237.652 394.043 238.879 392.612 239.834L391.469 240.596L392.34 244.828C392.819 247.155 393.052 249.019 392.858 248.971C392.663 248.921 388.234 245.804 383.015 242.042ZM400.844 240.701C399.16 238.249 400.736 237.503 406.386 238.08C410.492 238.499 411.252 238.73 411.562 239.651C411.792 240.335 411.714 241.079 411.347 241.683C410.535 243.022 401.882 242.212 400.844 240.701ZM418.763 242.522C418.361 241.807 418.378 241.285 418.826 240.622C419.337 239.864 420.32 239.796 424.563 240.23L429.684 240.752L429.536 242.204C429.4 243.532 429.151 243.665 426.639 243.758C421.674 243.941 419.355 243.578 418.763 242.522ZM436.83 243.243C436.379 241.156 437.238 240.784 442.297 240.872C447.614 240.966 448.31 241.213 448.134 242.944C447.956 244.688 446.334 245.093 441.508 244.601C437.978 244.24 436.984 243.951 436.83 243.243ZM455.32 244.495C454.702 243.594 455.257 241.391 456.156 241.18C456.648 241.064 459.085 241.001 461.573 241.037C465.479 241.096 466.125 241.237 466.306 242.075C466.691 243.856 465.86 244.635 463.475 244.727C457.132 244.974 455.62 244.931 455.32 244.495ZM473.577 243.693C472.075 241.46 473.562 240.625 479.655 240.282C484.074 240.033 484.758 240.26 484.589 241.919C484.43 243.474 483.453 243.985 480.381 244.118C478.868 244.183 476.84 244.295 475.874 244.367C474.789 244.447 473.911 244.19 473.577 243.693ZM491.752 241.807C491.336 239.887 492.27 239.368 497.076 238.85C500.908 238.438 502.051 238.491 502.568 239.112C504.057 240.899 502.69 242.027 498.411 242.54C493.64 243.112 491.995 242.931 491.752 241.807ZM509.912 239.573C509.526 237.786 510.384 237.27 515.028 236.492C520.018 235.657 520.8 235.763 521.139 237.328C521.461 238.82 520.243 239.528 516.292 240.145C511.773 240.85 510.157 240.705 509.912 239.573ZM528.261 237.272C527.775 236.56 528.065 234.783 528.731 234.395C529.962 233.677 537.952 232.223 538.599 232.599C538.973 232.816 539.216 233.608 539.14 234.359C539.018 235.55 538.533 235.837 535.35 236.602C530.829 237.688 528.683 237.891 528.261 237.272ZM545.966 232.671C545.584 230.906 546.501 230.234 550.781 229.139C555.809 227.853 556.395 227.851 557.104 229.113C557.959 230.634 556.65 231.564 552.041 232.708C547.197 233.911 546.232 233.904 545.966 232.671ZM564.151 228.022C563.253 226.422 564.401 225.442 568.816 224.041C573.604 222.521 574.94 222.677 574.73 224.731C574.601 225.996 574.071 226.332 570.205 227.599C565.043 229.291 564.871 229.303 564.151 228.022ZM581.987 222.752C581.828 222.521 581.756 221.757 581.828 221.056C581.936 220 582.755 219.482 586.598 218.048C591.519 216.211 592.769 216.312 592.543 218.527C592.423 219.706 591.758 220.131 587.761 221.578C582.885 223.344 582.453 223.432 581.987 222.752ZM599.163 215.161C598.849 213.711 599.297 213.334 603.828 211.239C608.42 209.115 610.094 209.109 610.132 211.216C610.153 212.379 609.572 212.806 605.746 214.436C600.963 216.475 599.482 216.638 599.163 215.161ZM616.743 207.618C616.382 205.95 617.211 205.188 621.701 203.068C625.878 201.095 626.221 201.025 626.897 202.009C628.04 203.672 627.157 204.656 622.661 206.736C618.111 208.84 617.041 209 616.743 207.618ZM633.84 199.395C633.554 198.885 633.475 198.117 633.665 197.688C634.126 196.647 641.816 192.279 642.978 192.397C643.813 192.482 644.385 193.605 644.253 194.9C644.198 195.43 635.513 200.438 634.777 200.363C634.548 200.34 634.126 199.904 633.84 199.395ZM650.338 189.774C649.804 188.104 650.271 187.581 654.822 184.748C658.206 182.641 659.255 182.23 659.852 182.776C661.469 184.253 660.773 185.308 656.306 188.148C653.874 189.694 651.613 190.931 651.281 190.897C650.949 190.863 650.525 190.358 650.338 189.774ZM666.549 179.74C665.694 178.497 666.79 177.011 670.492 174.395C674.574 171.511 676.363 171.019 676.723 172.682C676.981 173.874 675.661 175.24 671.548 178.039C668.333 180.226 667.157 180.626 666.549 179.74ZM682.329 167.902C681.576 166.561 682.172 165.787 686.775 162.123C690.763 158.949 692.264 158.719 691.998 161.324C691.899 162.297 690.737 163.534 687.775 165.819C685.528 167.552 683.508 168.952 683.286 168.929C683.064 168.907 682.633 168.444 682.329 167.902ZM697.426 155.309C696.763 154.344 697.458 152.876 699.472 150.985C703.314 147.379 705.195 150.117 701.424 153.827C699.447 155.772 698.089 156.275 697.426 155.309Z" fill="#A6A6A6"/>
</svg>
