<svg id="eu0xiUIBocd1" xmlns="http://www.w3.org/2000/svg" xmlns:xlink="http://www.w3.org/1999/xlink" viewBox="0 0 6901 1896" shape-rendering="geometricPrecision" text-rendering="geometricPrecision"><g transform="translate(0 0.000001)"><path d="M4389,610.5h-49.5l-3.5,35c-19.5,204.167-59.3,618.3-62.5,641.5-4,29,61,24.5,74.5,24c10.8-.4,15.5-14.83,16.5-22L4389,610.5Z" fill="#d9d9d9"/><path d="M4335.5,1342.5h-321.5l-8,37c9.83,6.33,33.1,20.5,47.5,26.5c18,7.5,127.5,89.5,161.5,112.5c27.2,18.4,113.67,9.67,153.5,3l-33-179Z" fill="#d9d9d9"/><path d="M4421.6,420.14c-9.2-39.6-15.16-39.833-17-35-7,7.834-21.5,24.4-23.5,28-2.5,4.5-5.5,19.5-9.5,27s-3,16-5.5,46.5c-2,24.4-.83,23.5,0,20c2,5.5,6.7,17.4,9.5,21c3.5,4.5,22,28.5,32.5,34s19,7.5,22,8s18-4,18.5-10-7.5-33.5-7.5-36.5-8-53.5-19.5-103Z" fill="#d9d9d9"/><path d="M5432,1534v-158-6.5l-76,27.5-57,35.5c-1,25.83-2.7,78.7-1.5,83.5c1.5,6-.5,14.5,9,18c7.6,2.8,16.17,1.17,19.5,0l6-108l30.5-25l33-4v137h36.5Z" fill="#d9d9d9"/><path d="M5471,1266l115,6-5-16-81-148-353,199l5,16l157,8.5l15-24.5l163-19-16-22Z" fill="#d9d9d9"/><path d="M5346.72,1244.53l110.28,5.9-4.79-15.75L5374.53,1089L5036,1284.88l4.79,15.75l150.57,8.37l14.38-24.12l156.32-18.7-15.34-21.65Z" fill="#d9d9d9"/><path d="M4689.5,941.5L4817,935l154-20.5l136.5-19L5199,903l40.5,19l13,62.5-13,23-32.5,7.5-16-21.5-33.5-14.5-87.5,14.5-25.5,54.5-319,49-46.5-40.5-96.5,22-30,57-54.5-14-14-86.5l21.5-41.5l102-58.5l82,6.5Z" fill="#d9d9d9"/><path d="M4642.28,881.237c-8.26,4.418-15.14,10.822-32.29,30.077l-14.69,16.484-55.58,33.156c-30.58,18.236-56.8,34.306-58.27,35.709-5.7,5.417-10.67,15.167-11.71,22.957-.92,6.84.21,15.17,7.12,52.58c8.02,43.42,8.32,44.63,13.3,51.79c6.51,9.36,18.58,18.38,28.45,21.25l7.72,2.24l355.67-61.2c394.81-67.95,362.58-61.45,371.84-74.97c8.66-12.647,8.71-13.857,2.05-52.234-5.54-31.988-6.3-34.971-10.57-41.428-6.44-9.755-18.14-17.912-31.68-22.083-43.34-13.36-97.87-15.402-173.49-6.499l-31.37,3.692-47.24-19.525c-60.95-25.197-60.7-25.104-73.46-27.782-23.33-4.903-27.62-4.443-137.98,14.81-79.72,13.906-103.1,18.454-107.82,20.976Zm65.65,11.862c.08.463-3.53,8.52-8.02,17.904-5.9,12.336-9.06,17.202-11.4,17.566-1.78.278-15.99-.104-31.59-.847l-28.34-1.349l8.89-9.67c4.89-5.317,10.95-10.897,13.47-12.401c4.51-2.693,56.69-12.951,56.99-11.203Zm162.05-25.619c16.63,1.541,26.41,4.639,63.48,20.101c22.27,9.295,30.02,13.192,27.18,13.685-10.27,1.783-13.43,15.235-5.13,21.841c3.85,3.068,4.59,3.026,32.86-1.874c97.56-16.91,181.66-17.221,223.55-.824c13.92,5.446,16.41,10.303,22.1,43.109l4.65,26.872-3.62,5.454c-3.31,4.996-4.51,5.606-14.28,7.306L5210.1,1005l-11.53-16.067c-6.34-8.84-14.49-18.228-18.13-20.867-11.37-8.264-16.85-8.143-69.13,1.516l-45.81,8.463-6.21,5.537c-7.83,6.973-11,13.502-16.76,34.498l-4.59,16.76-157.02,27.22-157.01,27.23-9.97-14.24c-12.49-17.84-17.67-22.92-27.39-26.85l-7.72-3.12-45.98,7.45c-52.48,8.5-57.69,10.23-65.61,21.84-2.53,3.71-7.05,15.3-10.05,25.75l-5.44,19.01-10.99,1.91c-14.73,2.55-23.9-.32-30.42-9.53-4.46-6.29-4.95-8.25-11.67-47.01-6.87-39.67-6.96-40.55-4.31-45.17c2.06-3.6,15.41-12.3,56.97-37.144l54.28-32.439l67.13,2.971c106.43,4.707,107.19,4.669,187.39-9.307c45.87-7.995,59.08-10.764,60.84-12.762c5.73-6.499,2.79-17.992-5.05-19.748-2.71-.607-29.7,3.153-71.2,9.919-69.31,11.301-74.04,11.733-111.16,10.155-8.05-.341-14.99-.887-15.43-1.216-.43-.327,3.69-10.049,9.17-21.605l9.97-21.009l60.08-10.414c55.33-9.594,61.06-10.323,72.63-9.251Zm-131.33,168.65c-5.14,5.84-3.4,15.92,3.39,19.67c4.39,2.43,264.24-42.62,267.55-46.38c5.14-5.82,3.38-15.901-3.42-19.663-4.36-2.406-264.23,42.643-267.52,46.373Zm-59.18,34.5c2.63.94,17.3,19.37,17.83,22.4.08.46-26.81,5.52-59.75,11.23-32.95,5.71-59.96,10-60.05,9.53-.53-3.1,6.21-21.96,9.05-25.29c3.34-3.93,5.07-4.35,46.58-11.55c26.92-4.67,44.32-7.04,46.34-6.32Zm487.55-82.766c3.79,2.183,16.49,17.676,17.03,20.776.08.47-26.81,5.52-59.75,11.23s-59.96,10.01-60.04,9.54c-.48-2.77,6.98-25.2,8.96-26.96c1.49-1.31,18.87-4.988,45.78-9.683c41.82-7.299,43.55-7.474,48.02-4.903ZM4550.91,1173.79c-6.58,4.26-6.39,13.92.39,18.98l4.4,3.29l95.34-16.52l95.33-16.53l2.66-4.28c3.75-6.06,2.13-13.57-3.65-16.9-4.52-2.6-5.71-2.43-97.99,13.67-51.37,8.96-94.79,17.19-96.48,18.29Zm484.53-82.28c-4.5,5.29-3.37,13.28,2.47,17.37l4.12,2.87l95.12-16.49l95.12-16.49l3.04-4.58c3.65-5.49,2.97-11.21-1.87-15.67l-3.55-3.28-95.5,16.1c-94.93,16.02-95.51,16.14-98.95,20.17Z" clip-rule="evenodd" fill="#787878" fill-rule="evenodd"/><path d="M4372.75,380.047c1.14-10.151,3.46-20.206,5.15-22.35c5.54-7.025,14.68-4.108,29.3,9.35c27.52,25.34,37.52,49.027,41.46,98.192c1.55,19.33,5.96,43.04,11.16,59.998l8.6,28.039h11.35c16.93,0,18.82,3.715,18.82,36.909v29.432l-21.76,31.978-21.75,31.975l26.37,281.128-23.49,15.737c-22.09-238.39-29.41-314.07-32.75-339.11-1.73-12.972-2.02-13.246-13.7-13.246h-11.94l-1.89,30.388c-1.04,16.716-6.18,162.931-11.41,324.926-5.24,161.997-10.19,299.017-11.01,304.487-1.8,12-11.83,16.68-19.42,9.08-4.58-4.58-4.15-30.18,5.13-308.106c5.56-166.715,10.96-316.087,11.99-331.945l1.87-28.83h-12.7c-12.59,0-12.71.109-14.41,13.246-3.91,30.233-9.31,86.139-34.53,357.652-14.57,156.853-27.19,288.253-28.03,291.993-2.03,8.99-13.19,12.47-19.55,6.1-4.42-4.42-2.23-33.13,23.65-309.195l28.53-304.317-21.75-31.972-21.75-31.969v-29.432c0-31.907,2.13-36.909,15.75-36.909c8.08,0,8.32-.571,10.07-23.825c2.32-30.604,14.75-56.629,39.91-83.536c21.28-22.765,29.83-39.955,32.73-65.868Zm100.5,762.623c8.49,87.49,14.98,149.07,16.14,151.83c3.46,8.26,14.36,8.42,19.45.29c1.42-2.26-1.47-44.04-9.23-132.24-8.25-6.18-17.32-13-26.36-19.88Zm-49.29-673.414c-1.53-18.071-5.01-39.172-7.72-46.886-2.72-7.714-8.21-18.118-12.2-23.117l-7.25-9.092-3.85,15.326c-2.11,8.428-7.95,22.509-12.96,31.289-18.13,31.742-8.47,77.646,22.16,105.329c10.41,9.41,14.62,11.171,26.7,11.171c10.93,0,13.95-1.026,12.69-4.311-8.71-22.709-15.26-52.409-17.57-79.709Zm-54.13,73.89c-4.17-5.57-9.88-14.677-12.68-20.231-2.81-5.557-6.96-18.18-9.22-28.051l-4.12-17.95-8.49,16.669c-5.71,11.223-9.07,23.694-10.29,38.181l-1.8,21.512h27.09h27.09l-7.58-10.13Zm389.77,30.389c9.88-19.452,28.54-34.238,53.61-42.47c4.3-1.408,16.26-2.085,26.59-1.499c44.1,2.497,77.62,35.441,81.68,80.298l1.63,18.018l34.29.879c28.67.733,34.86,1.771,37.73,6.33c2.49,3.971,2.49,6.938,0,10.909-2.96,4.688-9.46,5.576-46.29,6.324-26.6.539-44.34-.371-46.79-2.397-2.35-1.957-4.48-13.651-5.29-29.16-1.59-30.402-8.5-44.402-28.39-57.571-17.38-11.507-47.8-11.956-65.47-.966-20.01,12.446-27.72,27.568-29.87,58.608-1.44,20.827-3.08,27.618-7.31,30.274-9.47,5.959-16.14-1.378-18.03-19.832-1.24-12.122-3.57-17.95-8.91-22.276-17.83-14.44-40.81-1.356-40.81,23.226c0,7.954-1.83,15.304-4.32,17.376-2.92,2.422-18.24,3.304-47.18,2.718-36.83-.748-43.33-1.636-46.29-6.324-2.49-3.971-2.49-6.938,0-10.909c2.87-4.559,9.06-5.597,37.78-6.333l34.35-.876l1.95-9.771c5.97-29.896,42.62-48.684,68.56-35.151c4.97,2.59,9.35,4.335,9.74,3.877s3.56-6.445,7.04-13.302Zm-285.93,29.609v-12.467-12.467h-87.23-87.23v12.467v12.467h87.23h87.23Zm-157.22,35.659c4.38,5.804,4.57,5.707,4.57-2.337c0-5.377-1.68-8.387-4.67-8.387-5.82,0-5.79,2.939.1,10.724Zm139.98,0c2.52-3.325,4.62-7.103,4.68-8.387.05-1.284-2.01-2.337-4.58-2.337-2.99,0-4.67,3.01-4.67,8.387c0,8.044.19,8.141,4.57,2.337ZM4019.78,1126.26c-5.29-4.4-5.52-12.76-.48-17.8c2.82-2.83,24.35-3.58,84.55-2.96c72.99.75,81.09,1.35,84.2,6.28c1.38,2.2-4.61,4.13-10.69,6.09-4.95,1.59-9.95,3.2-11.07,4.99-3.11,4.92-11.19,5.53-83.71,6.28-56.61.59-59.78-.38-62.8-2.88Zm-18.97,239.13c-.58-19.76.37-31.97,2.72-34.79c3.06-3.69,61.87-4.36,382.67-4.36c290.67,0,379.93.87,382.79,3.74c5.24,5.24,5.11,63.01-.15,67.06-2.14,1.65-15.81,7.72-30.38,13.49-60.89,24.14-123.19,60.73-163.55,96.07-23.28,20.39-30.45,22.92-35.93,12.67-4.89-9.12,1.53-17.7,30.58-40.87c30.8-24.56,56.95-41.46,94.96-61.4l30.42-15.96h-171-171l15.12,52.21c16.47,56.89,17.51,63.6,10.74,69.22-5.68,4.72-16.47,1.52-18.5-5.49-.85-2.91-5.92-20.72-11.27-39.58-5.36-18.85-12.51-43.75-15.89-55.32l-6.16-21.04h-128.29-128.29l33.45,19.48c60.72,35.37,120.6,81.24,120.6,92.39c0,6.08-5.79,12.8-11.02,12.8-1.95,0-15.34-9.34-29.75-20.75-40.29-31.91-83.96-59.51-135.25-85.48l-46.73-23.66-.89-30.43Zm323.32,10.72v-12.47-12.47h-149.53-149.53v12.47v12.47h149.53h149.53Zm423.68,0v-12.47-12.47h-199.38-199.37v12.47v12.47h199.37h199.38Zm-967.74,195.98c-5.23-4.34-5.45-12.73-.48-17.71c2.9-2.9,140.58-3.57,607.92-2.96c1082.39,4.72,1115.23,5.06,1118.48,10.22c2.51,3.98,2.51,6.93,0,10.91-3.25,5.16-36.06,5.5-1118,2.26-443.63.58-604.82-.14-607.92-2.72Z" clip-rule="evenodd" fill="#787878" fill-rule="evenodd"/><path d="M5379.98,1084.85c1.54,1.57,5.92,8.32,9.72,15c16.36,28.76,22.42,38.86,24.31,40.53c2.62,2.31,4.27,1.95,12.41-2.75c3.55-2.05,12.96-7.49,20.91-12.09c29.08-16.82,39.61-22.85,42.75-24.44c5.95-3.03,11.34-1.77,14.79,3.45c1.7,2.57,13.22,22.37,35.27,60.64c3.85,6.68,11.36,19.67,16.68,28.86c5.33,9.2,14.22,24.58,19.77,34.19s12.76,22.08,16.03,27.72c4.83,8.34,6.01,10.98,6.27,14.16.3,3.6.12,4.13-2.23,6.62-1.41,1.49-6.5,4.99-11.31,7.77-4.81,2.79-13.14,7.62-18.51,10.73-5.38,3.11-16.84,9.7-25.48,14.64s-19.64,11.28-24.45,14.08-12.51,7.25-17.11,9.88c-9.7,5.56-32.77,18.91-47.43,27.46-5.6,3.26-10.73,6.78-11.41,7.81-1.11,1.7-1.27,9.79-1.61,82.06-.42,87.11-.14,82.01-4.62,84.65-2.88,1.7-6.19,1.54-8.68-.42-4.35-3.41-4.19-.53-4.19-78.3c0-63.62-.14-71.84-1.19-73.34-1.72-2.46-3.84-2.1-10.46,1.77-9.83,5.75-8.88-2.36-8.88,75.77-.01,73.21.14,70.7-4.2,74.1-3.54,2.79-8.92,1.82-11.57-2.07-1.25-1.84-1.37-6.38-1.73-64.34-.4-66.54-.3-64.88-4.02-64.88-1.71,0-4.04,1.24-25.25,13.48-10.21,5.89-14.95,9.07-16.16,10.83l-1.71,2.5-.01,47.56c0,28.98-.3,48.61-.75,50.26-.98,3.5-4.4,6.74-7.68,7.26-3.42.55-7.57-2.19-8.82-5.81-.66-1.91-.92-13.9-.95-43.42-.03-24.55-.34-41.56-.79-42.73-1.31-3.45-6.59-2.34-8.75,1.83-.98,1.9-1.15,8-1.15,41.98c0,39.72,0,39.77-1.71,43.15-1.35,2.68-2.36,3.62-4.79,4.45-2.71.94-3.37.92-5.73-.2-1.47-.69-3.34-2.37-4.15-3.72-1.41-2.31-1.51-4.43-1.87-36.89-.37-33.02-.44-34.49-1.86-35.52-.83-.61-2.17-.87-3.05-.61-.85.26-10.78,5.74-22.05,12.16-18.58,10.59-20.83,11.68-24.13,11.68-6.16,0-4.55,2.32-35.41-51.27-9.59-16.65-11.64-19.38-14.6-19.38-1.16,0-11.9,5.75-26.29,14.07-13.38,7.74-25.57,14.41-27.1,14.82-3.2.88-6.11.05-8.89-2.54-1.91-1.77-2.81-3.26-22.52-37.36-7.01-12.12-17.1-29.55-22.44-38.75-35.52-61.23-44.07-76.33-44.83-79.17-1-3.72.06-7.11,3.07-9.81c1-.89,7.63-4.97,14.74-9.06s20.28-11.69,29.28-16.88c8.99-5.18,34.31-19.79,56.27-32.45c21.96-12.65,51.9-29.92,66.54-38.38c14.64-8.45,33.46-19.31,41.82-24.13c8.37-4.81,18.46-10.63,22.44-12.92c3.97-2.3,12.7-7.33,19.39-11.19c6.69-3.85,16.27-9.38,21.29-12.29c32.63-18.87,54.33-31.34,56.43-32.41c1.34-.69,4.03-1.25,5.98-1.25c3.09,0,3.91.36,6.36,2.85Zm-27.56,27.45c-7.19,4.14-20.6,11.88-29.8,17.2s-22.16,12.79-28.79,16.6c-12.74,7.32-15.7,9.6-15.7,12.08c0,2.67,23.14,43.19,26.05,45.63c2.59,2.17,5.14,1.3,18.06-6.15c6.48-3.74,25.3-14.57,41.82-24.09c16.52-9.51,30.81-17.99,31.75-18.86c1.03-.94,1.71-2.45,1.71-3.8c0-2.6-22.59-42.35-25.7-45.24-1.45-1.34-2.47-1.67-4.12-1.34-1.22.24-8.09,3.83-15.28,7.97Zm133.69,11.35c-2.09,1.17-9.45,5.39-16.35,9.38-15.45,8.95-37.18,21.49-57.87,33.4-8.62,4.97-16.29,9.71-17.05,10.55-3.01,3.33-3.38,2.56,21.48,45.18c5.6,9.61,10.83,18.13,11.61,18.92c2.55,2.58,5.25,1.65,20.22-6.95c16.73-9.63,48.62-28.02,66.1-38.12c6.69-3.87,12.77-7.57,13.5-8.22c3.04-2.72,1.98-5.33-12.1-29.73-19.31-33.45-19.29-33.42-21.38-35.06-2.5-1.97-3.62-1.88-8.16.65Zm-265.01,20.26c0,.21-.17.38-.38.38s-.38-.17-.38-.38c0-.2.17-.38.38-.38s.38.18.38.38Zm-2.28.76c0,.21-.17.38-.38.38s-.38-.17-.38-.38c0-.2.17-.38.38-.38s.38.18.38.38Zm22.99,31.41c-7.84,4.53-22.46,12.96-32.5,18.73-31.62,18.17-39.72,23.07-40.21,24.34-1.21,3.15.09,6.15,10.67,24.6c6.12,10.69,11.96,20.55,12.96,21.9c3.19,4.31,5.17,3.75,23-6.56c8.6-4.97,27.1-15.61,41.11-23.66c14.01-8.04,26.59-15.45,27.95-16.45c3.86-2.87,3.44-5.48-2.6-16.05-11.32-19.82-18.79-32.5-19.88-33.76-2.41-2.79-5.56-1.73-20.5,6.91Zm111.61,24.07c-8.58,4.95-21.75,12.55-29.28,16.9-7.53,4.34-20.65,11.89-29.17,16.76-8.51,4.88-16.29,9.68-17.3,10.68-3.53,3.51-4.24,1.95,19.79,43.38c6.18,10.66,11.8,19.94,12.49,20.63c2.38,2.36,4.24,2.3,9.32-.3c4.29-2.2,25.94-14.58,56.58-32.35c5.44-3.15,14.68-8.49,20.55-11.86c5.86-3.37,11.36-6.64,12.23-7.26c1.75-1.27,3.34-3.89,3.34-5.52c0-.59-2.84-5.99-6.32-12.02-3.47-6.02-10.54-18.3-15.7-27.28-10.49-18.26-12.4-21.11-14.75-22-2.25-.86-3.85-.1-21.78,10.24Zm173.69,8.91c-4.56,2.69-18.73,10.88-31.49,18.21-45.9,26.38-51.36,29.58-53.04,31.16-3.17,2.96-2.41,5.04,9.04,24.89c18.54,32.12,23.36,40.06,24.64,40.55c2.74,1.05,4.99.2,15.56-5.85c59.55-34.1,82.02-47.26,83.53-48.93c2.46-2.73,1.93-4.58-4.31-15.24-2.86-4.89-8.74-15.05-13.06-22.57-12.12-21.12-15.19-26.12-16.59-26.97-2.29-1.41-5.82-.23-14.28,4.75Zm-382.28,23.09c-1.34.69-10.99,6.2-21.45,12.24s-27.05,15.61-36.88,21.26-19.71,11.34-21.95,12.64c-4.92,2.85-6.53,5.01-5.94,7.96.23,1.18,2.71,6.05,5.5,10.81c2.8,4.77,9.19,15.85,14.2,24.62c10.08,17.63,11.97,20.13,15.17,20.13c2.32,0,38.16-20.15,40.56-22.81.94-1.03,1.43-2.96,1.56-6.17.32-7.54,1.11-8.23,25.8-22.47c14.84-8.56,17-10.43,16.12-13.93-.26-1.02-4.79-9.37-10.08-18.56-5.29-9.2-10.64-18.52-11.9-20.72-3.56-6.25-6.04-7.4-10.71-5Zm104.48,28.13c-2.76,1.54-15.46,8.83-28.21,16.2-12.76,7.38-31.69,18.31-42.08,24.3s-19.41,11.69-20.05,12.67-1.01,2.57-.83,3.54c.19.97,4.8,9.43,10.25,18.8s12.77,21.99,16.26,28.05c3.5,6.06,7.12,11.79,8.06,12.73c3.25,3.26.98,4.34,47.4-22.43c43.12-24.86,50.67-29.31,52.35-30.84c2.68-2.44,1.85-5.59-4.24-16.05-2.92-5.02-10.02-17.32-15.77-27.35-5.76-10.03-11.34-19.18-12.42-20.32-2.6-2.79-4.71-2.65-10.72.7Zm168.03,12.38c-3.81,1.94-19.49,10.91-68.11,38.97-22.93,13.23-25.41,14.86-25.96,17.03-.61,2.45.63,5.03,11.08,23.03c4.48,7.73,11.12,19.18,14.76,25.45c7.8,13.45,8.03,13.77,10.6,14.75c2.36.89,3.78.22,22.6-10.67c34.07-19.7,48.59-28.08,60.08-34.66c13.79-7.91,16.73-10.18,16.73-12.96c0-1.02-3.47-7.88-7.7-15.24-4.24-7.37-11.63-20.23-16.43-28.59-8.49-14.8-11.27-18.61-13.59-18.61-.62,0-2.45.67-4.06,1.5Zm-279.06,65.06c-1.92,1.09-6.57,3.78-10.34,5.98-3.76,2.19-10.53,6.12-15.04,8.74-8.39,4.87-10.43,6.74-10.43,9.53c0,.88,2.68,6.19,5.95,11.8s10.16,17.48,15.31,26.38c5.15,8.89,10.08,16.67,10.95,17.28c3.02,2.12,2.86,2.19,25.96-11.21c15.99-9.28,18.63-11.3,18.63-14.26c0-1.13-3.29-7.67-7.67-15.24-4.22-7.29-10.81-18.67-14.64-25.29s-7.72-12.86-8.64-13.86c-2.22-2.43-5.6-2.38-10.04.15Zm148.33,10.03c-7.8,4.52-20.34,11.75-27.87,16.07s-16.43,9.46-19.77,11.41c-3.35,1.96-11.39,6.59-17.87,10.3-13.76,7.87-16.37,10.05-15.61,13.09.48,1.93,6.02,11.84,23.24,41.57c9.44,16.29,10.31,17.62,12.5,19.05c2.48,1.62,3.76,1.15,16.07-5.91c50.4-28.93,80.81-46.65,82.24-47.94c2.88-2.61,2.23-5.4-3.71-15.76-14.08-24.58-27.58-47.56-28.63-48.77-2.48-2.82-5.66-1.75-20.59,6.89Z" clip-rule="evenodd" fill="#787878" fill-rule="evenodd"/></g><g transform="translate(-40.00244 0)"><path d="M1992,1150c-3,12.5,20.5,21.5,52.5,0v-3.5L2215,1041l175,109c33.17,17.5,105.8,52.4,131,52s31.83-18.5,32-27.5L2401.5,1084l-3.5-99h-44.5c-1.33,4.833-5.3,16.2-10.5,23s-.17,30.83,3,42l-75-50.5-62-26-147,83.5c-23.33,15.83-72.3,50.3-81.5,61.5-11.5,14,14.5,19,11.5,31.5Z" fill="#d9d9d9"/><path d="M2564.69,1273.1c-12.11-3.43-22.65-6.43-47.69,3.9-14.02,5.78-25.83,9.48-36.68,12.87-20.1,6.29-36.89,11.54-58.32,27.13-26.4,19.2-76,34.67-97.5,40l-17,14.5c-3.17,15.5-9.7,47.5-10.5,51.5s-.33,34.33,0,49l46.5,10.5c7.17-15.5,27.2-47.3,50-50.5s41.83-1.33,48.5,0l39,46l324,9.5c-.67-18.5,2.9-55.5,22.5-55.5s41.17-6,49.5-9l40,49l73,10.5-7.5-59.5-8.5-31.5-125-30-119.5-56.5-138-28c-11.78.37-19.58-1.84-26.81-3.9ZM2509,1330l-45,30l5.5,10.5h269.5l-15-23-145-33-70,15.5Z" clip-rule="evenodd" fill="#d9d9d9" fill-rule="evenodd"/><path d="M1591,589.5c30.67-9.167,99.9-28,131.5-30c39.33,0,130.6-.9,181-4.5c63-4.5,363.5-74,442-94.5s98.5,2,124,12s23.5,52.5,32.5,68.5-43,40.5-68.5,18.5-237.5,77.5-316,92-364,5.5-392,8.5-114,6.5-134.5,21c-16.4,11.6-43.17,42.5-54.5,56.5-10.5-1.333-32.6-5.2-37-10-5.5-6,22.5-66.5,24-70.5c1.2-3.2,45.5-46.333,67.5-67.5Z" fill="#d9d9d9"/><path d="M2119,640c74-9.6,215.83-61,262-81c34,1.5,75.6,16.4,94,28c23,14.5,26,53,31,80.5s-18,49-31,67.5-169.5,34.5-209.5,37-401.5,7-449,7-61,66-75,68.5-21.5-12-25-27.5s22-61.5,39-85s53.5-43.5,78.5-61s192.5-22,285-34Z" fill="#d9d9d9"/><path d="M2746.9,480.71c-25.07,8.232-43.73,23.018-53.61,42.47-3.48,6.857-6.65,12.844-7.04,13.302s-4.77-1.287-9.74-3.877c-25.94-13.533-62.59,5.255-68.56,35.151l-1.95,9.771-34.35.876c-28.72.736-34.91,1.774-37.78,6.333-2.49,3.971-2.49,6.938,0,10.909c2.96,4.688,9.46,5.576,46.29,6.324c28.94.586,44.26-.296,47.18-2.718c2.49-2.072,4.32-9.422,4.32-17.376c0-24.582,22.98-37.666,40.81-23.226c5.34,4.326,7.67,10.154,8.91,22.276c1.89,18.454,8.56,25.791,18.03,19.832c4.23-2.656,5.87-9.447,7.31-30.274c2.15-31.04,9.86-46.163,29.87-58.608c17.67-10.99,48.09-10.541,65.47.966c19.89,13.169,26.8,27.169,28.39,57.571.81,15.509,2.93,27.203,5.29,29.16c2.45,2.026,20.19,2.936,46.79,2.397c36.83-.748,43.33-1.636,46.29-6.324c2.49-3.971,2.49-6.938,0-10.909-2.87-4.559-9.06-5.597-37.73-6.33l-34.29-.879-1.63-18.018c-4.07-44.857-37.58-77.801-81.68-80.298-10.33-.586-22.3.091-26.59,1.499Z" clip-rule="evenodd" fill="#787878" fill-rule="evenodd"/><path d="M2505.17,1275.7c-34.55,8.16-75.21,25.83-102.14,44.37-15.77,10.86-26.76,15.33-46.45,18.91-33.75,6.14-59.95,17.95-63.47,28.6-17,51.5-22.44,92.02-14.58,108.54c7.22,15.19,17.87,19.88,45.09,19.88c24.05,0,24.17.05,35.18,14.33c30.1,39.04,93.98,39.35,120.06.58l10.03-14.91h151.07h151.07l5.58,9.31c7.45,12.42,25.11,26.66,38.58,31.09c32.67,10.75,74.05-3.46,90.56-31.09c5.4-9.04,6.49-9.31,38.58-9.31c32.43,0,33.1-.17,37.19-9.31c2.63-5.87,3.2-21.08,1.56-41.24-2.8-34.27-10.71-53.16-26.26-62.71-12.79-7.84-65.85-21.8-99.85-26.27-24.48-3.21-33.33-6.26-52.83-18.23-32.32-19.85-106.77-50.95-141.78-59.25-43.86-10.38-139.61-12.16-177.19-3.29Zm161.72,22.2c35.08,6.95,107.45,36.32,143.12,58.09c21.93,13.38,30.67,16.51,56.99,20.38c38.37,5.66,92.76,19.92,98.35,25.79c2.29,2.41,5.97,8.51,8.18,13.57c3.74,8.56,3.31,9.19-6.2,9.19-6.97,0-14.87-4.39-24.88-13.83-15.84-14.94-27.98-16.63-30.03-4.17-.8,4.9,4.33,12.33,15.55,22.5c13.61,12.34,20.19,15.63,35.2,17.57c18.38,2.38,18.45,2.45,18.45,15.55v13.15h-25.25c-23.78,0-25.26-.45-25.26-7.79c0-12.91-20.75-37.75-37.36-44.72-42.16-17.67-94.36,3.26-101.33,40.63l-2.21,11.88h-148.94-148.94l-4.14-13.38c-8.46-27.39-34.78-44.95-67.94-45.35-33.53-.39-64.15,20.4-70.46,47.86-2.44,10.61-2.99,10.87-23.24,10.87-24.41,0-28.8-4.38-28.8-28.77c0-19.83,5.42-28.77,17.44-28.77c5.17,0,13.56-1.65,18.65-3.67c18.41-7.3,29.74-37.08,15.88-41.71-6.75-2.26-17,3.26-17,9.15c0,4.4-11.68,15.93-16.14,15.93-1.81,0-3.28-5.16-3.28-11.46c0-9.64,2.04-12.31,12.8-16.76c7.04-2.91,21.47-6.9,32.06-8.87s22.8-4.27,27.13-5.12s18.32-8.67,31.08-17.37c28.76-19.61,70.27-37.2,103.14-43.69c31.93-6.31,107.34-4.61,147.38,3.32Zm-140.52,11.67c-28.58,7.96-45.24,17.14-64.95,35.76-17.54,16.58-19.75,24.83-8.91,33.38c6.36,5.01,22.98,5.6,157.09,5.6c131.17,0,150.75-.67,156.09-5.32c14.98-13.05,4.55-22.04-48.67-41.93-85.21-31.86-144.36-40.38-190.65-27.49Zm49.24,27.35c2.57,6.52,5.93,15.28,7.44,19.46l2.76,7.62h-55.34-55.33l9.35-8.67c13.68-12.69,30.68-20.99,54.49-26.61c27.73-6.54,31.08-5.79,36.63,8.2Zm53.31-4.87c26.78,6.04,80.8,24.11,86.46,28.92c2.42,2.06-15.83,2.89-50.15,2.29l-53.95-.95-6.93-17.77c-4.2-10.76-5.33-17.77-2.87-17.77c2.23,0,14.58,2.37,27.44,5.28Zm-177.3,117.92c10.78,9.39,13.21,14.09,13.21,25.55c0,7.73-2.54,18.34-5.65,23.58-5.61,9.45-26.59,20.59-38.77,20.59-13.45,0-33.46-10.23-40.96-20.95-9.36-13.38-9.9-23.38-2.02-37.84c7.79-14.29,23.46-22.24,44.08-22.35c14.11-.07,19.08,1.81,30.11,11.42Zm432.99-6.37c23.93,10.78,30.11,43.63,11.46,60.92-20.86,19.35-49.91,19.24-69.58-.28-34.53-34.26,11.07-81.84,58.12-60.64Z" clip-rule="evenodd" fill="#787878" fill-rule="evenodd"/><path d="M1968.88,1131.34c-24.95,0,9.5-28.97,117.3-98.65c66.39-42.912,124.5-78.318,129.11-78.681c13.58-1.061,149.56,88.661,144.95,95.651-7.31,11.07-16.59,7.33-80.57-32.5l-62.44-38.883-120.09,76.533c-66.05,42.09-123.77,76.53-128.26,76.53Zm394.06-131.349c-12.76-1.177-24.57-5.99-26.21-10.699-2.14-6.086,7.64-8.557,33.85-8.557h36.86l2.16,46.205l2.17,46.21l78.65,49.95c43.26,27.47,78.66,54.64,78.66,60.39c0,15.79-11.72,10.52-100.63-45.31l-81.78-51.34-.25-42.35-.26-42.35-23.22-2.149ZM1874,1252.85c0-4.71,74.91-56.77,166.45-115.7c91.55-58.93,170.12-107.45,174.61-107.82c14.16-1.18,193.05,115.84,193.05,126.28c0,5.47-3.32,9.96-7.38,9.96-4.05,0-46.8-25.26-95-56.14l-87.62-56.13-133.65,84.49c-115.82,73.23-149.54,94.44-146.99,100.58c1.08,2.58,8.59,2.5,19.1,2.5h27.17v92.41c0,77.58-1.76,92.42-10.97,92.42-9.15,0-10.98-13.69-10.98-82.15v-82.15h-43.9c-30.24,0-43.9-2.66-43.89-8.55Z" clip-rule="evenodd" fill="#787878" fill-rule="evenodd"/><path d="M1858.59,1554.17c-4.97,4.98-4.75,13.37.48,17.71c3.1,2.58,164.29,3.3,607.92,2.72c571.06-.74,603.88-1.08,607.13-6.24c2.51-3.98,2.51-6.93,0-10.91-3.25-5.16-36.09-5.5-607.61-6.24-467.34-.61-605.02.06-607.92,2.96Z" clip-rule="evenodd" fill="#787878" fill-rule="evenodd"/><path d="M2678.63,957.163c-5.03,5.037-4.8,13.403.49,17.8c3.02,2.503,6.18,3.471,62.79,2.882c72.53-.751,80.61-1.359,83.72-6.286c2.5-3.977,24.26-7.096,21.76-11.073-3.11-4.931-11.21-5.535-84.2-6.283-60.21-.621-81.73.133-84.56,2.96Z" clip-rule="evenodd" fill="#787878" fill-rule="evenodd"/><path d="M2203.29,484.388c-194.68,49.699-304.67,65.432-457.63,65.472-87.92.02-115.06,3.708-146.85,19.931-44.94,22.93-85.48,71.73-95.56,115.041-3.84,16.493-13.49,35.205-21.45,41.582-11.55,9.256-16.26,64.862-23.29,274.886-4.85,144.8-11.47,317.83-14.72,384.5-5.18,106.1-3.9,122,10.3,127.45c8.24,3.16,169.3,5.1,362.81,5.8c13.45-2.51,24.09-5.54,26.1-7.55c2.13-2.13-1.4-12.86-4.86-23.43-3.06-9.33-6.08-18.52-5.14-21.57.05-.17.1-.6.14-1.26-6.94-42.6-12-154.81-22.39-435.56-5.69-153.67-10.02-194.333-20.45-192.164-14.41,2.989-8.67-11.155,16.3-40.232c13.68-15.934,41.66-17.493,314.32-17.493c336.17,0,352.11-2.779,382.45-66.711c21.85-46.05,12.29-97.298-25.12-134.702-38.04-38.054-86.72-37.524-186.29,2.039-117.04,46.49-225.91,69.28-331.32,69.36-61.12.05-105.46,5.368-129.94,15.593-63.75,26.629-122.12,95.179-122.12,143.419c0,10.995-6.8,23.789-15.12,28.447-12.59,7.047-17.05,61.934-26.81,330.344-10.9,300.21-12.92,321.91-29.86,321.91-12.23,0-18.12-7.36-18.01-22.49.09-12.38-4.93-179.93-11.16-372.34-9.32-288.4-13.93-351.943-26.22-361.729-12.89-10.285-11.44-15.343,10.71-37.484c22.63-22.63,33.78-25.609,96.02-25.609c40.29,0,70.42-4.278,70.42-9.995c0-5.768-31.39-9.996-74.19-9.996-65.24,0-77.92,3.129-104.95,25.879-16.92,14.234-30.76,32.226-30.76,39.983c0,7.756-6.75,14.104-14.99,14.104-41.63,0,9.04-99.768,68.32-134.513c40.4-23.669,52.27-25.419,172.44-25.459c152.81-.05,263.45-16.573,476.01-71.099c179.66-46.08,197.99-44.141,231.49,24.459c11.33,23.2,22.31,34.665,27.86,29.108c12.82-12.815-4.13-52.448-34.52-80.706-39.79-37.004-85.27-34.875-271.97,12.785Zm239,96.878c31.12,14.174,55.96,64.922,49.08,100.277-2.85,14.684-16.33,37.174-29.94,49.979-24.61,23.14-26.68,23.31-344.73,28.278-23.14.361-44.63.677-64.61.971-205.08,3.014-250.92,3.688-274.57,26.938-6.81,6.693-11.77,15.258-18.17,26.288-2.17,3.737-4.5,7.758-7.13,12.084-14.58,24.06-27.81,11.625-20.15-18.932c9.62-38.303,49.13-89.841,84.9-110.732c26.35-15.393,61.98-21.021,169.88-26.839c139.92-7.546,198.66-20.851,326.45-73.938c67.42-28.018,92.84-30.847,128.99-14.374ZM1572.87,772.294c2.54,12.365,7.19,137.191,10.35,277.386c3.17,140.19,8.54,296.49,11.95,347.35l6.19,92.46-68.83.01h-68.84l7.06-207.41c3.87-114.09,9.97-280.51,13.55-369.856l6.51-162.43h38.72c32.13,0,39.51,3.828,43.34,22.49Zm209.31,104.955c2.74,9.626,7.82,134.441,11.28,277.381c3.44,142.94,8.47,276.76,11.15,297.37l4.89,37.49h-66.8-66.8l6.25-142.44c3.43-78.35,9.15-220.04,12.72-314.87l6.48-172.423h37.92c27.56,0,39.29,4.778,42.91,17.492Z" clip-rule="evenodd" fill="#787878" fill-rule="evenodd"/></g><g id="eu0xiUIBocd24" transform="translate(-20.341928 34.998779)" opacity="0"><circle r="179.5" transform="translate(1011.5 778.5)" fill="#d9d9d9"/><circle r="179.5" transform="translate(1027.5 791.5)" fill="#d9d9d9"/><circle r="166" transform="translate(1011.5 778.5)" fill="none" stroke="#787878" stroke-width="27"/><path d="M931.624,818v-89.6h38.784c8.021,0,14.933,1.323,20.736,3.968c5.803,2.56,10.286,6.272,13.436,11.136c3.16,4.864,4.74,10.667,4.74,17.408c0,6.656-1.58,12.416-4.74,17.28-3.15,4.779-7.633,8.448-13.436,11.008s-12.715,3.84-20.736,3.84h-27.264l9.216-9.088v34.048h-20.736Zm56.96,0l-22.4-32.512h22.144L1010.98,818h-22.396ZM952.36,786.256l-9.216-9.728h26.112c6.4,0,11.179-1.365,14.336-4.096c3.157-2.816,4.736-6.656,4.736-11.52c0-4.949-1.579-8.789-4.736-11.52s-7.936-4.096-14.336-4.096h-26.112l9.216-9.856v50.816Zm112.69,32.768c-5.81,0-10.88-1.28-15.24-3.84-4.35-2.56-7.76-6.443-10.24-11.648-2.39-5.291-3.58-11.947-3.58-19.968c0-8.107,1.15-14.763,3.46-19.968c2.3-5.205,5.63-9.088,9.98-11.648s9.56-3.84,15.62-3.84c6.48,0,12.28,1.493,17.4,4.48c5.21,2.901,9.3,6.997,12.29,12.288c3.07,5.291,4.61,11.52,4.61,18.688c0,7.253-1.54,13.525-4.61,18.816-2.99,5.291-7.08,9.387-12.29,12.288-5.12,2.901-10.92,4.352-17.4,4.352Zm-40.71,23.808v-93.696h19.07v14.08l-.38,20.48l1.28,20.352v38.784h-19.97Zm37.25-40.192c3.33,0,6.27-.768,8.83-2.304c2.65-1.536,4.74-3.712,6.27-6.528c1.62-2.901,2.43-6.315,2.43-10.24c0-4.011-.81-7.424-2.43-10.24-1.53-2.816-3.62-4.992-6.27-6.528-2.56-1.536-5.5-2.304-8.83-2.304s-6.32.768-8.96,2.304c-2.65,1.536-4.74,3.712-6.27,6.528-1.54,2.816-2.31,6.229-2.31,10.24c0,3.925.77,7.339,2.31,10.24c1.53,2.816,3.62,4.992,6.27,6.528c2.64,1.536,5.63,2.304,8.96,2.304Z" fill="#787878"/></g><g id="eu0xiUIBocd29" transform="translate(2973.838746 197.500001)"><circle r="179.5" transform="translate(456.5 625.5)" fill="#d9d9d9"/><circle r="179.5" transform="translate(472.5 638.5)" fill="#787878"/><circle r="179.5" transform="translate(456.5 625.5)" fill="#fff"/><path d="M434.183,448.458c-39.575,5.053-76.321,24.093-105.464,54.648-20.794,21.8-35.214,47.481-42.803,76.232-21.566,81.687,17.285,167.501,92.77,204.917c70.643,35.014,153.96,20.089,208.53-37.357c60.297-63.473,65.249-160.323,11.788-230.509-9.408-12.349-29.656-31.23-42.974-40.07-35.072-23.279-79.024-33.329-121.847-27.861Zm35.358,65.512c.26.254-1.267,7.314-3.395,15.692l-3.869,15.232l6.336,1.706c3.484.937,7.198,1.375,8.252.97c1.053-.404,3.224-6.464,4.824-13.468c1.599-7.005,3.391-13.514,3.981-14.468c1.364-2.205,17.493,1.265,18.538,3.987.391,1.021-.755,7.598-2.547,14.617-1.793,7.018-3.26,13.527-3.26,14.464c0,.935,4.535,3.757,10.077,6.269c18.681,8.468,27.978,19.999,27.978,34.701c0,14.593-6.983,27.405-17.35,31.831l-5.746,2.454l8.235,8.021c10.104,9.843,12.849,17.907,10.342,30.382-5.616,27.957-22.617,40.257-52.695,38.123-7.54-.535-14.78-1.384-16.088-1.886-1.836-.704-2.989,1.552-5.053,9.876-1.472,5.933-3.357,13.381-4.191,16.551l-1.517,5.766-9.502-2.394c-10.924-2.75-10.802-2.376-6.329-19.44c3.988-15.21,3.983-15.278-1.19-16.408-2.399-.523-5.841-1.378-7.652-1.896-3.024-.867-3.583.349-6.911,15.021-1.992,8.781-4.298,15.965-5.124,15.965-2.703,0-16.357-3.576-17.506-4.586-.617-.54.618-7.756,2.743-16.033c2.124-8.276,3.878-15.446,3.896-15.933.017-.487-8.531-2.942-18.996-5.456s-19.028-5.184-19.028-5.932c0-.747,1.962-5.959,4.361-11.58c3.203-7.506,4.991-9.976,6.739-9.302c1.308.505,6.095,1.314,10.639,1.796c7.595.807,8.391.572,9.885-2.904c2.443-5.688,22.287-86.82,22.287-91.124c0-4.538-4.55-7.713-14.667-10.235-8.754-2.182-9.15-4.563-3.586-21.566.422-1.292,5.925-.478,18.544,2.74c9.87,2.515,18.756,4.59,19.749,4.609.992.019,3.41-6.564,5.375-14.628c1.963-8.064,3.828-15.131,4.141-15.702.492-.892,17.958,2.884,19.28,4.168Zm-13.8,60.676c-3.26,12.449-8.08,31.866-8.08,32.544c0,.39,4.46,1.659,9.91,2.821c20.366,4.341,34.089,1.997,38.526-6.579c7.167-13.855-3.054-26.044-27.086-32.301-5.132-1.336-9.867-2.43-10.523-2.43-.655,0-1.892,2.676-2.747,5.945Zm-13.58,54.581c-1.87,5.366-10.123,40.106-9.643,40.586c1.564,1.563,18.968,5.244,28.981,6.128c19.906,1.762,30.559-4.884,30.559-19.06c0-10.681-12.515-20.245-33.41-25.53-5.607-1.419-11.447-2.947-12.977-3.397-1.53-.451-3.111.123-3.51,1.273Z" clip-rule="evenodd" fill="#f7931a" fill-rule="evenodd"/><circle r="166" transform="translate(456.5 625.5)" fill="none" stroke="#d9d9d9" stroke-width="27"/></g><g id="eu0xiUIBocd35" transform="translate(-39.999999 7.998779)"><rect width="850" height="916" rx="129" ry="129" transform="translate(3076 354)" fill="#db8113"/><path d="M3781,324.5l-357.5,58L3088,395l-42.5,575.5c-4.33,14.167-16.8,55.6-14,152s111,140.83,162.5,145.5l371-16.5c119.5-228.67,364.1-697.7,360.5-782.5s-109.33-138-144.5-144.5Z" fill="#db8013"/><rect width="850" height="916" rx="129" ry="129" transform="translate(3030 320)" fill="#f7931a"/><rect width="643" height="230" rx="32" ry="32" transform="translate(3133 426)" fill="#f2f2f2"/><path d="M3216.86,915.714c-4.64,3.831-15.18,33.279-14.96,41.795.26,10.34,1.11,12.556,6.77,17.631l5.59,5.013l15.41-1.225c14.36-1.143,15.58-1.45,18.07-4.562c3.54-4.428,2.99-11.984-1.11-15.138-2.29-1.765-5.56-2.242-13.52-1.971l-10.5.356l2.77-7.846c1.52-4.316,3.97-10.948,5.44-14.737c3.65-9.402,3-16.159-1.88-19.402-4.39-2.923-8.47-2.893-12.08.086Zm68.06-1.556c-2.95,2.661-4.06,6.175-5.8,18.308-3.28,22.84-4.1,27.352-5.71,31.331-2.13,5.297-1.68,10.421,1.24,13.952c3.29,3.986,12.74,3.213,16.36-1.338c2.85-3.568,7.96-22.874,7.53-28.449-.15-1.935.62-7.538,1.7-12.451c2.66-12.065,2.08-17.841-2.11-21.199-3.67-2.937-10.04-3.012-13.21-.154Zm52.66,6.924c-11.54,5.851-13.6,8.161-19.49,21.863-5.53,12.882-6.45,21.11-2.98,26.524c4.4,6.852,22.34,12.875,35.56,11.937c4.72-.334,6.14-1.165,9.35-5.468c2.21-2.959,3.85-4.247,3.94-3.091.23,2.89,5.83,5.738,10.52,5.354c2.23-.182,5.77-1.697,7.87-3.368c2.09-1.669,5.55-4.074,7.67-5.343c2.13-1.268,6.27-4.92,9.21-8.114c4.88-5.321,5.96-5.86,12.75-6.4l7.42-.59-2.5,3.756c-3.25,4.88-2.69,14.219,1.03,17.079c3.81,2.933,11.54,1.962,14.39-1.805c1.28-1.695,5.53-4.817,9.44-6.941c9.24-5.008,12.42-8.571,15.55-17.429c1.41-3.989,4.32-10.296,6.47-14.017c3.23-5.57,3.82-8.033,3.37-13.975-.47-6.285-1.04-7.527-4.38-9.653-3.14-1.993-4.62-2.149-8.08-.853-3.34,1.252-5.27,3.671-9.08,11.4-3.09,6.259-5.54,9.654-6.77,9.375-1.06-.24-5.88-.464-10.71-.498-5.21-.037-8.13-.558-7.19-1.281.87-.67,1.42-3.296,1.22-5.835-.5-6.294-4.7-9.673-11.35-9.143-4.46.354-5.87,1.309-9.93,6.734-2.6,3.477-7.15,10.267-10.11,15.088-2.96,4.822-7.84,10.585-10.84,12.807-3,2.221-8,6.243-11.1,8.938l-5.65,4.899-.43-5.496c-.24-3.021-1.43-7.089-2.65-9.039-3.58-5.759-11.91-7.688-17.55-4.065-1.61,1.034-2.35,1.139-1.91.266.41-.785,4.84-3.38,9.84-5.764c5.01-2.385,9.91-5.695,10.89-7.356c4.49-7.636-1.32-15.701-10.73-14.894-2.91.248-8.78,2.228-13.06,4.398Zm135.36-5.201c-3.14,4.719-2.85,8.845.9,12.909c2.92,3.158,2.93,3.198,1.06,13.937-1.26,7.256-2.78,11.589-4.66,13.283-6.49,5.867-7.14,7.088-6.71,12.552.36,4.466,1.37,6.29,5.36,9.7c5.35,4.561,9.7,5.018,14,1.468c3.77-3.111,10.14-18.059,12.23-28.667.97-4.903,2.46-11.554,3.33-14.778c1.49-5.58,1.83-5.884,6.96-6.292c5.21-.415,5.32-.338,3.29,2.302-3.57,4.637-9.21,34.838-7.79,41.73c2.03,9.897,11.3,13.916,17.81,7.726c2.15-2.042,2.96-4.635,3.08-9.863l.16-7.094l5.06,5.99c8.04,9.534,17.87,11.437,24.63,4.769c5.49-5.42,11.65-19.858,12.62-29.617.47-4.654,1.57-10.644,2.44-13.309.87-2.667,1.28-8.688.91-13.379-.57-7.181-1.21-8.952-4.01-11.2-6.88-5.503-17.14-.112-16.45,8.64.21,2.552-.34,6.823-1.21,9.49-.88,2.665-1.97,8.658-2.44,13.314-1.3,12.955-2.51,13.417-8.44,3.211-3.03-5.217-7.24-10.282-10.34-12.452-4.58-3.2-4.99-3.895-3.31-5.537c2.95-2.869,1.81-10.026-2.09-13.145-3.12-2.498-4.64-2.566-23.61-1.057l-20.28,1.613-2.5,3.756Zm109.2,1.109c-2.41,2.288-2.79,3.906-2.15,9.077c1.07,8.633-.22,16.644-5.24,32.529-5.13,16.238-5.08,21.651.21,25.172c8.68,5.78,14.58.787,20.11-17.027c5.33-17.179,6.68-25.808,5.79-37.015-.61-7.681-1.38-10.262-3.83-12.914-3.73-4.042-10.53-3.96-14.89.178Zm33.77-2.611c-1.32,1.55-3.08,5.79-3.91,9.424-2.52,11.062-4.13,16.047-6.87,21.359-1.45,2.795-3.33,7.73-4.19,10.966-1.77,6.646-1.07,20.625,1.21,24.173c2.09,3.26,9.17,4.925,13.07,3.076c3.99-1.893,5.14-4.75,5.57-13.83.19-4.031,1.17-9.262,2.16-11.629l1.81-4.3l5.38,11.704c4.01,8.713,5.59,13.987,6.17,20.649.67,7.61,1.35,9.524,4.59,12.799c2.8,2.84,4.94,3.76,8.14,3.51c5.18-.42,9.81-5.47,9.42-10.29-.29-3.641,2.81-17.077,6.69-28.967c1.4-4.288,2.42-9.534,2.27-11.657-.14-2.123.57-8.18,1.59-13.459c2.49-12.85,2.05-17.243-2.05-20.528-4.32-3.456-9.54-2.972-13.75,1.276-2.54,2.56-3.87,6.361-5.46,15.623-1.15,6.73-2.25,11.07-2.43,9.641-.66-5.098-10.88-27.62-13.78-30.371-3.85-3.642-12.19-3.198-15.63.831Zm-276.89,44.96c-1.11,1.605-3.28-2.202-2.59-4.542.71-2.404.89-2.345,1.9.636.62,1.808.93,3.565.69,3.906Zm366.92-21.331c-3.56,4.55-9.46,14.775-14.73,25.551-3.61,7.376-3.63,7.616-1.92,22.429c1.4,12.083,2.39,16.002,5.1,20.312c6.5,10.33,13.38,12.31,24.98,7.2c26.7-11.74,40.09-32.643,28.46-44.421-3.69-3.738-16.74-8.432-22.23-7.995-5.24.416-9.73,5.74-9.31,11.026.38,4.755,5.66,10.866,9.15,10.589c2.51-.2.16,1.993-7,6.528-3.47,2.198-6.65,3.704-7.07,3.346s-1.28-4.09-1.9-8.295c-1.1-7.376-.93-8.014,4.97-18.149c8.07-13.883,9.44-17.375,9-22.935-.27-3.441-1.36-5.32-4.13-7.164-5.14-3.425-9.66-2.756-13.37,1.978Zm-521.49,63.372c-3.76,1.92-6.66,7.16-6.33,11.41.71,8.87,12.32,11.11,44.29,8.57c16.24-1.29,24.25-1.3,33.18-.04c15.84,2.24,46.02,1.12,49.6-1.84c5.58-4.61,3.65-15.28-3.22-17.78-1.89-.68-9.11-.8-16.04-.24-8.48.67-16.32.35-23.98-.98-8.92-1.547-17.64-1.695-40.31-.685-15.9.705-30.16,1.035-31.67.725-1.5-.31-3.99.08-5.52.86Zm173.99-4.556c-5.81,4.206-13.57,16.866-26.66,43.496-2.28,4.63-8.91,14.27-14.73,21.43-12.56,15.42-14.69,19.19-14.22,25.1.53,6.76,4.04,10.16,9.95,9.64c2.73-.24,5.93-1.31,7.11-2.37c1.65-1.47,3.74-1.74,8.76-1.12c5.32.66,8.04.23,14.11-2.22c11.29-4.57,14.55-11.49,9.96-21.17-1.5-3.16-1.23-4.01,2.64-8.16c3.98-4.28,4.88-6.61,5.39-13.97.12-1.71,1.4-2.98,3.49-3.43c1.82-.4,4.22-1.68,5.34-2.85c1.83-1.92,2.16-1.65,3.33,2.65.71,2.63,1.69,5.62,2.18,6.64.58,1.22-.02,1.93-1.76,2.07-4.2.33-8.92,5.64-10.85,12.19-1.58,5.41-1.53,6.42.54,9.74c2.17,3.48,2.13,3.97-.61,7.72-2.73,3.74-3.39,7.1-2.34,11.91.89,4.1,6.28,7.13,17.67,9.94c10.47,2.58,12.19,2.67,15.8.83c6.85-3.5,7.71-8.82,5.39-33.34-2.44-25.8-5.51-38.95-13.49-57.78-4.64-10.93-7.06-14.994-10.35-17.345-5.15-3.673-11.23-3.528-16.65.399Zm40.99,14.506c-1.6,1.88-2.33,4.68-2.07,7.99.61,7.57,8.43,13.52,19.59,14.88l8.35,1.02-2.85,11.22c-3.01,11.86-5.58,31.58-5.02,38.49.64,7.9,11.26,12.09,17.34,6.85c1.27-1.09,3.39-4.56,4.71-7.71s6.46-12.92,11.42-21.72c10.58-18.77,11.22-20.86,8.05-26.13-2.85-4.74-2.78-4.79,11.13-6.49c9.06-1.11,10.76-1.74,13.57-5.03c3.89-4.57,3.98-12.22.18-15.8-2.37-2.23-4.61-2.23-32.33.03-24.92,2.03-30.67,2.13-35.17.6-7.29-2.47-13.86-1.77-16.9,1.8Zm-224.18,24.71c-6.32,4.34-7.25,13.08-1.88,17.67c2.9,2.47,3.85,2.45,29.33-.48c20.7-2.38,31.23-2.91,49.26-2.5l22.93.52l2.79-3.83c1.54-2.1,2.69-5.22,2.56-6.93-.36-4.53-5.56-9.47-11.39-10.81-7.24-1.66-90.11,3.97-93.6,6.36Zm322.44-22.74c-3.27,3.84-12.52,23.79-12.26,26.46.09,1.01-1.62,6.24-3.81,11.61-5.75,14.11-9.33,27.25-8.9,32.65.49,6.16,5.35,10.16,11.73,9.65c6.95-.55,8.68-2.91,11.36-15.47c1.34-6.26,3.86-14.59,5.61-18.51l3.18-7.14l3.5,12.4c5.72,20.26,10.81,27.33,19.19,26.67c3.73-.3,5.28-1.81,13.89-13.49c2.71-3.68,8.17-9.55,12.12-13.04c3.95-3.48,9.1-8.35,11.43-10.8c3.3-3.49,4.05-3.86,3.42-1.7-.45,1.52-1.55,7.68-2.44,13.69-.88,6.02-2.55,14.58-3.71,19.03-2.33,9-1.49,13.51,3.02,16.16c5.09,3,11.14,1.64,14.65-3.28c3.18-4.45,3.67-6.31,6.73-25.45.96-6.02,2.84-17.02,4.18-24.44c3.16-17.58,2.52-26.61-2.24-31.33-3.08-3.05-4.5-3.43-10.86-2.93l-7.33.59-9.7,11.7c-12.38,14.91-30.67,31.85-32.09,29.71-.92-1.38-4.34-13.58-9.32-33.3-3.02-11.92-14.8-17.13-21.35-9.44Zm-330.72,54.48c-6.27,4.24-7.2,12.48-1.95,17.29c2.95,2.7,3.31,2.7,51.56-1.13c26.72-2.12,51.7-3.73,55.52-3.57c5.94.24,7.33-.17,9.57-2.8c2.57-3.02,3.01-8.78.99-13.01-.55-1.16-2.97-2.99-5.38-4.07-3.89-1.75-10.22-1.54-56.07,1.79-36.65,2.67-52.42,4.27-54.24,5.5Z" clip-rule="evenodd" fill="#fff" fill-rule="evenodd"/></g><script><![CDATA[!function(t,n){"object"==typeof exports&&"undefined"!=typeof module?module.exports=n():"function"==typeof define&&define.amd?define(n):((t="undefined"!=typeof globalThis?globalThis:t||self).__SVGATOR_PLAYER__=t.__SVGATOR_PLAYER__||{},t.__SVGATOR_PLAYER__["5c7f360c"]=n())}(this,(function(){"use strict";function t(t,n){var e=Object.keys(t);if(Object.getOwnPropertySymbols){var r=Object.getOwnPropertySymbols(t);n&&(r=r.filter((function(n){return Object.getOwnPropertyDescriptor(t,n).enumerable}))),e.push.apply(e,r)}return e}function n(n){for(var e=1;e<arguments.length;e++){var r=null!=arguments[e]?arguments[e]:{};e%2?t(Object(r),!0).forEach((function(t){o(n,t,r[t])})):Object.getOwnPropertyDescriptors?Object.defineProperties(n,Object.getOwnPropertyDescriptors(r)):t(Object(r)).forEach((function(t){Object.defineProperty(n,t,Object.getOwnPropertyDescriptor(r,t))}))}return n}function e(t){return(e="function"==typeof Symbol&&"symbol"==typeof Symbol.iterator?function(t){return typeof t}:function(t){return t&&"function"==typeof Symbol&&t.constructor===Symbol&&t!==Symbol.prototype?"symbol":typeof t})(t)}function r(t,n){if(!(t instanceof n))throw new TypeError("Cannot call a class as a function")}function i(t,n){for(var e=0;e<n.length;e++){var r=n[e];r.enumerable=r.enumerable||!1,r.configurable=!0,"value"in r&&(r.writable=!0),Object.defineProperty(t,r.key,r)}}function u(t,n,e){return n&&i(t.prototype,n),e&&i(t,e),t}function o(t,n,e){return n in t?Object.defineProperty(t,n,{value:e,enumerable:!0,configurable:!0,writable:!0}):t[n]=e,t}function a(t){return(a=Object.setPrototypeOf?Object.getPrototypeOf:function(t){return t.__proto__||Object.getPrototypeOf(t)})(t)}function l(t,n){return(l=Object.setPrototypeOf||function(t,n){return t.__proto__=n,t})(t,n)}function s(){if("undefined"==typeof Reflect||!Reflect.construct)return!1;if(Reflect.construct.sham)return!1;if("function"==typeof Proxy)return!0;try{return Boolean.prototype.valueOf.call(Reflect.construct(Boolean,[],(function(){}))),!0}catch(t){return!1}}function f(t,n,e){return(f=s()?Reflect.construct:function(t,n,e){var r=[null];r.push.apply(r,n);var i=new(Function.bind.apply(t,r));return e&&l(i,e.prototype),i}).apply(null,arguments)}function c(t,n){if(n&&("object"==typeof n||"function"==typeof n))return n;if(void 0!==n)throw new TypeError("Derived constructors may only return object or undefined");return function(t){if(void 0===t)throw new ReferenceError("this hasn't been initialised - super() hasn't been called");return t}(t)}function h(t,n,e){return(h="undefined"!=typeof Reflect&&Reflect.get?Reflect.get:function(t,n,e){var r=function(t,n){for(;!Object.prototype.hasOwnProperty.call(t,n)&&null!==(t=a(t)););return t}(t,n);if(r){var i=Object.getOwnPropertyDescriptor(r,n);return i.get?i.get.call(e):i.value}})(t,n,e||t)}function v(t){return function(t){if(Array.isArray(t))return y(t)}(t)||function(t){if("undefined"!=typeof Symbol&&null!=t[Symbol.iterator]||null!=t["@@iterator"])return Array.from(t)}(t)||function(t,n){if(!t)return;if("string"==typeof t)return y(t,n);var e=Object.prototype.toString.call(t).slice(8,-1);"Object"===e&&t.constructor&&(e=t.constructor.name);if("Map"===e||"Set"===e)return Array.from(t);if("Arguments"===e||/^(?:Ui|I)nt(?:8|16|32)(?:Clamped)?Array$/.test(e))return y(t,n)}(t)||function(){throw new TypeError("Invalid attempt to spread non-iterable instance.\nIn order to be iterable, non-array objects must have a [Symbol.iterator]() method.")}()}function y(t,n){(null==n||n>t.length)&&(n=t.length);for(var e=0,r=new Array(n);e<n;e++)r[e]=t[e];return r}Number.isInteger||(Number.isInteger=function(t){return"number"==typeof t&&isFinite(t)&&Math.floor(t)===t}),Number.EPSILON||(Number.EPSILON=2220446049250313e-31);var g=d(Math.pow(10,-6));function d(t){var n=arguments.length>1&&void 0!==arguments[1]?arguments[1]:6;if(Number.isInteger(t))return t;var e=Math.pow(10,n);return Math.round((+t+Number.EPSILON)*e)/e}function p(t,n){var e=arguments.length>2&&void 0!==arguments[2]?arguments[2]:g;return Math.abs(t-n)<e}var m=Math.PI/180;function b(t){return t}function w(t,n,e){var r=1-e;return 3*e*r*(t*r+n*e)+e*e*e}function x(){var t=arguments.length>0&&void 0!==arguments[0]?arguments[0]:0,n=arguments.length>1&&void 0!==arguments[1]?arguments[1]:0,e=arguments.length>2&&void 0!==arguments[2]?arguments[2]:1,r=arguments.length>3&&void 0!==arguments[3]?arguments[3]:1;return t<0||t>1||e<0||e>1?null:p(t,n)&&p(e,r)?b:function(i){if(i<=0)return t>0?i*n/t:0===n&&e>0?i*r/e:0;if(i>=1)return e<1?1+(i-1)*(r-1)/(e-1):1===e&&t<1?1+(i-1)*(n-1)/(t-1):1;for(var u,o=0,a=1;o<a;){var l=w(t,e,u=(o+a)/2);if(p(i,l))break;l<i?o=u:a=u}return w(n,r,u)}}function A(){return 1}function k(t){return 1===t?1:0}function _(){var t=arguments.length>0&&void 0!==arguments[0]?arguments[0]:1,n=arguments.length>1&&void 0!==arguments[1]?arguments[1]:0;if(1===t){if(0===n)return k;if(1===n)return A}var e=1/t;return function(t){return t>=1?1:(t+=n*e)-t%e}}var S=Math.sin,O=Math.cos,j=Math.acos,M=Math.asin,P=Math.tan,E=Math.atan2,I=Math.PI/180,R=180/Math.PI,F=Math.sqrt,N=function(){function t(){var n=arguments.length>0&&void 0!==arguments[0]?arguments[0]:1,e=arguments.length>1&&void 0!==arguments[1]?arguments[1]:0,i=arguments.length>2&&void 0!==arguments[2]?arguments[2]:0,u=arguments.length>3&&void 0!==arguments[3]?arguments[3]:1,o=arguments.length>4&&void 0!==arguments[4]?arguments[4]:0,a=arguments.length>5&&void 0!==arguments[5]?arguments[5]:0;r(this,t),this.m=[n,e,i,u,o,a],this.i=null,this.w=null,this.s=null}return u(t,[{key:"determinant",get:function(){var t=this.m;return t[0]*t[3]-t[1]*t[2]}},{key:"isIdentity",get:function(){if(null===this.i){var t=this.m;this.i=1===t[0]&&0===t[1]&&0===t[2]&&1===t[3]&&0===t[4]&&0===t[5]}return this.i}},{key:"point",value:function(t,n){var e=this.m;return{x:e[0]*t+e[2]*n+e[4],y:e[1]*t+e[3]*n+e[5]}}},{key:"translateSelf",value:function(){var t=arguments.length>0&&void 0!==arguments[0]?arguments[0]:0,n=arguments.length>1&&void 0!==arguments[1]?arguments[1]:0;if(!t&&!n)return this;var e=this.m;return e[4]+=e[0]*t+e[2]*n,e[5]+=e[1]*t+e[3]*n,this.w=this.s=this.i=null,this}},{key:"rotateSelf",value:function(){var t=arguments.length>0&&void 0!==arguments[0]?arguments[0]:0;if(t%=360){var n=S(t*=I),e=O(t),r=this.m,i=r[0],u=r[1];r[0]=i*e+r[2]*n,r[1]=u*e+r[3]*n,r[2]=r[2]*e-i*n,r[3]=r[3]*e-u*n,this.w=this.s=this.i=null}return this}},{key:"scaleSelf",value:function(){var t=arguments.length>0&&void 0!==arguments[0]?arguments[0]:1,n=arguments.length>1&&void 0!==arguments[1]?arguments[1]:1;if(1!==t||1!==n){var e=this.m;e[0]*=t,e[1]*=t,e[2]*=n,e[3]*=n,this.w=this.s=this.i=null}return this}},{key:"skewSelf",value:function(t,n){if(n%=360,(t%=360)||n){var e=this.m,r=e[0],i=e[1],u=e[2],o=e[3];t&&(t=P(t*I),e[2]+=r*t,e[3]+=i*t),n&&(n=P(n*I),e[0]+=u*n,e[1]+=o*n),this.w=this.s=this.i=null}return this}},{key:"resetSelf",value:function(){var t=arguments.length>0&&void 0!==arguments[0]?arguments[0]:1,n=arguments.length>1&&void 0!==arguments[1]?arguments[1]:0,e=arguments.length>2&&void 0!==arguments[2]?arguments[2]:0,r=arguments.length>3&&void 0!==arguments[3]?arguments[3]:1,i=arguments.length>4&&void 0!==arguments[4]?arguments[4]:0,u=arguments.length>5&&void 0!==arguments[5]?arguments[5]:0,o=this.m;return o[0]=t,o[1]=n,o[2]=e,o[3]=r,o[4]=i,o[5]=u,this.w=this.s=this.i=null,this}},{key:"recomposeSelf",value:function(){var t=arguments.length>0&&void 0!==arguments[0]?arguments[0]:null,n=arguments.length>1&&void 0!==arguments[1]?arguments[1]:null,e=arguments.length>2&&void 0!==arguments[2]?arguments[2]:null,r=arguments.length>3&&void 0!==arguments[3]?arguments[3]:null,i=arguments.length>4&&void 0!==arguments[4]?arguments[4]:null;return this.isIdentity||this.resetSelf(),t&&(t.x||t.y)&&this.translateSelf(t.x,t.y),n&&this.rotateSelf(n),e&&(e.x&&this.skewSelf(e.x,0),e.y&&this.skewSelf(0,e.y)),!r||1===r.x&&1===r.y||this.scaleSelf(r.x,r.y),i&&(i.x||i.y)&&this.translateSelf(i.x,i.y),this}},{key:"decompose",value:function(){var t=arguments.length>0&&void 0!==arguments[0]?arguments[0]:0,n=arguments.length>1&&void 0!==arguments[1]?arguments[1]:0,e=this.m,r=e[0]*e[0]+e[1]*e[1],i=[[e[0],e[1]],[e[2],e[3]]],u=F(r);if(0===u)return{origin:{x:d(e[4]),y:d(e[5])},translate:{x:d(t),y:d(n)},scale:{x:0,y:0},skew:{x:0,y:0},rotate:0};i[0][0]/=u,i[0][1]/=u;var o=e[0]*e[3]-e[1]*e[2]<0;o&&(u=-u);var a=i[0][0]*i[1][0]+i[0][1]*i[1][1];i[1][0]-=i[0][0]*a,i[1][1]-=i[0][1]*a;var l=F(i[1][0]*i[1][0]+i[1][1]*i[1][1]);if(0===l)return{origin:{x:d(e[4]),y:d(e[5])},translate:{x:d(t),y:d(n)},scale:{x:d(u),y:0},skew:{x:0,y:0},rotate:0};i[1][0]/=l,i[1][1]/=l,a/=l;var s=0;return i[1][1]<0?(s=j(i[1][1])*R,i[0][1]<0&&(s=360-s)):s=M(i[0][1])*R,o&&(s=-s),a=E(a,F(i[0][0]*i[0][0]+i[0][1]*i[0][1]))*R,o&&(a=-a),{origin:{x:d(e[4]),y:d(e[5])},translate:{x:d(t),y:d(n)},scale:{x:d(u),y:d(l)},skew:{x:d(a),y:0},rotate:d(s)}}},{key:"clone",value:function(){var t=this.m;return new this.constructor(t[0],t[1],t[2],t[3],t[4],t[5])}},{key:"toString",value:function(){var t=arguments.length>0&&void 0!==arguments[0]?arguments[0]:" ";if(null===this.s){var n=this.m.map((function(t){return d(t)}));1===n[0]&&0===n[1]&&0===n[2]&&1===n[3]?this.s="translate("+n[4]+t+n[5]+")":this.s="matrix("+n.join(t)+")"}return this.s}}],[{key:"create",value:function(t){return t?Array.isArray(t)?f(this,v(t)):t instanceof this?t.clone():(new this).recomposeSelf(t.origin,t.rotate,t.skew,t.scale,t.translate):new this}}]),t}();function T(t,n,e){return t>=.5?e:n}function q(t,n,e){return 0===t||n===e?n:t*(e-n)+n}function B(t,n,e){var r=q(t,n,e);return r<=0?0:r}function L(t,n,e){var r=q(t,n,e);return r<=0?0:r>=1?1:r}function C(t,n,e){return 0===t?n:1===t?e:{x:q(t,n.x,e.x),y:q(t,n.y,e.y)}}function D(t,n,e){var r=function(t,n,e){return Math.round(q(t,n,e))}(t,n,e);return r<=0?0:r>=255?255:r}function z(t,n,e){return 0===t?n:1===t?e:{r:D(t,n.r,e.r),g:D(t,n.g,e.g),b:D(t,n.b,e.b),a:q(t,null==n.a?1:n.a,null==e.a?1:e.a)}}function V(t,n){for(var e=[],r=0;r<t;r++)e.push(n);return e}function G(t,n){if(--n<=0)return t;var e=(t=Object.assign([],t)).length;do{for(var r=0;r<e;r++)t.push(t[r])}while(--n>0);return t}var Y,$=function(){function t(n){r(this,t),this.list=n,this.length=n.length}return u(t,[{key:"setAttribute",value:function(t,n){for(var e=this.list,r=0;r<this.length;r++)e[r].setAttribute(t,n)}},{key:"removeAttribute",value:function(t){for(var n=this.list,e=0;e<this.length;e++)n[e].removeAttribute(t)}},{key:"style",value:function(t,n){for(var e=this.list,r=0;r<this.length;r++)e[r].style[t]=n}}]),t}(),U=/-./g,Q=function(t,n){return n.toUpperCase()};function H(t){return"function"==typeof t?t:T}function J(t){return t?"function"==typeof t?t:Array.isArray(t)?function(t){var n=arguments.length>1&&void 0!==arguments[1]?arguments[1]:b;if(!Array.isArray(t))return n;switch(t.length){case 1:return _(t[0])||n;case 2:return _(t[0],t[1])||n;case 4:return x(t[0],t[1],t[2],t[3])||n}return n}(t,null):function(t,n){var e=arguments.length>2&&void 0!==arguments[2]?arguments[2]:b;switch(t){case"linear":return b;case"steps":return _(n.steps||1,n.jump||0)||e;case"bezier":case"cubic-bezier":return x(n.x1||0,n.y1||0,n.x2||0,n.y2||0)||e}return e}(t.type,t.value,null):null}function Z(t,n,e){var r=arguments.length>3&&void 0!==arguments[3]&&arguments[3],i=n.length-1;if(t<=n[0].t)return r?[0,0,n[0].v]:n[0].v;if(t>=n[i].t)return r?[i,1,n[i].v]:n[i].v;var u,o=n[0],a=null;for(u=1;u<=i;u++){if(!(t>n[u].t)){a=n[u];break}o=n[u]}return null==a?r?[i,1,n[i].v]:n[i].v:o.t===a.t?r?[u,1,a.v]:a.v:(t=(t-o.t)/(a.t-o.t),o.e&&(t=o.e(t)),r?[u,t,e(t,o.v,a.v)]:e(t,o.v,a.v))}function K(t,n){var e=arguments.length>2&&void 0!==arguments[2]?arguments[2]:null;return t&&t.length?"function"!=typeof n?null:("function"!=typeof e&&(e=null),function(r){var i=Z(r,t,n);return null!=i&&e&&(i=e(i)),i}):null}function W(t,n){return t.t-n.t}function X(t,n,r,i,u){var o,a="@"===r[0],l="#"===r[0],s=Y[r],f=T;switch(a?(o=r.substr(1),r=o.replace(U,Q)):l&&(r=r.substr(1)),e(s)){case"function":if(f=s(i,u,Z,J,r,a,n,t),l)return f;break;case"string":f=K(i,H(s));break;case"object":if((f=K(i,H(s.i),s.f))&&"function"==typeof s.u)return s.u(n,f,r,a,t)}return f?function(t,n,e){if(arguments.length>3&&void 0!==arguments[3]&&arguments[3])return t instanceof $?function(r){return t.style(n,e(r))}:function(r){return t.style[n]=e(r)};if(Array.isArray(n)){var r=n.length;return function(i){var u=e(i);if(null==u)for(var o=0;o<r;o++)t[o].removeAttribute(n);else for(var a=0;a<r;a++)t[a].setAttribute(n,u)}}return function(r){var i=e(r);null==i?t.removeAttribute(n):t.setAttribute(n,i)}}(n,r,f,a):null}function tt(t,n,r,i){if(!i||"object"!==e(i))return null;var u=null,o=null;return Array.isArray(i)?o=function(t){if(!t||!t.length)return null;for(var n=0;n<t.length;n++)t[n].e&&(t[n].e=J(t[n].e));return t.sort(W)}(i):(o=i.keys,u=i.data||null),o?X(t,n,r,o,u):null}function nt(t,n,e){if(!e)return null;var r=[];for(var i in e)if(e.hasOwnProperty(i)){var u=tt(t,n,i,e[i]);u&&r.push(u)}return r.length?r:null}function et(t,n){if(!n.settings.duration||n.settings.duration<0)return null;var e,r,i,u,o,a=function(t,n){if(!n)return null;var e=[];if(Array.isArray(n))for(var r=n.length,i=0;i<r;i++){var u=n[i];if(2===u.length){var o=null;if("string"==typeof u[0])o=t.getElementById(u[0]);else if(Array.isArray(u[0])){o=[];for(var a=0;a<u[0].length;a++)if("string"==typeof u[0][a]){var l=t.getElementById(u[0][a]);l&&o.push(l)}o=o.length?1===o.length?o[0]:new $(o):null}if(o){var s=nt(t,o,u[1]);s&&(e=e.concat(s))}}}else for(var f in n)if(n.hasOwnProperty(f)){var c=t.getElementById(f);if(c){var h=nt(t,c,n[f]);h&&(e=e.concat(h))}}return e.length?e:null}(t,n.elements);return a?(e=a,r=n.settings,i=r.duration,u=e.length,o=null,function(t,n){var a=r.iterations||1/0,l=(r.alternate&&a%2==0)^r.direction>0?i:0,s=t%i,f=1+(t-s)/i;n*=r.direction,r.alternate&&f%2==0&&(n=-n);var c=!1;if(f>a)s=l,c=!0,-1===r.fill&&(s=r.direction>0?0:i);else if(n<0&&(s=i-s),s===o)return!1;o=s;for(var h=0;h<u;h++)e[h](s);return c}):null}function rt(t,n){if(Y=n,!t||!t.root||!Array.isArray(t.animations))return null;var e=function(t){for(var n=document.getElementsByTagName("svg"),e=0;e<n.length;e++)if(n[e].id===t.root&&!n[e].svgatorAnimation)return n[e].svgatorAnimation=!0,n[e];return null}(t);if(!e)return null;var r=t.animations.map((function(t){return et(e,t)})).filter((function(t){return!!t}));return r.length?{svg:e,animations:r,animationSettings:t.animationSettings,options:t.options||void 0}:null}function it(t){return+("0x"+(t.replace(/[^0-9a-fA-F]+/g,"")||27))}function ut(t,n,e){return!t||!e||n>t.length?t:t.substring(0,n)+ut(t.substring(n+1),e,e)}function ot(t){var n=arguments.length>1&&void 0!==arguments[1]?arguments[1]:27;return!t||t%n?t%n:ot(t/n,n)}function at(t,n,e){if(t&&t.length){var r=it(e),i=it(n),u=ot(r)+5,o=ut(t,ot(r,5),u);return o=o.replace(/\x7c$/g,"==").replace(/\x2f$/g,"="),o=function(t,n,e){var r=+("0x"+t.substring(0,4));t=t.substring(4);for(var i=n%r+e%27,u=[],o=0;o<t.length;o+=2)if("|"!==t[o]){var a=+("0x"+t[o]+t[o+1])-i;u.push(a)}else{var l=+("0x"+t.substring(o+1,o+1+4))-i;o+=3,u.push(l)}return String.fromCharCode.apply(String,u)}(o=(o=atob(o)).replace(/[\x41-\x5A]/g,""),i,r),o=JSON.parse(o)}}var lt=[{key:"alternate",def:!1},{key:"fill",def:1},{key:"iterations",def:0},{key:"direction",def:1},{key:"speed",def:1},{key:"fps",def:100}],st=function(){function t(n,e){var i=this,u=arguments.length>2&&void 0!==arguments[2]?arguments[2]:null;r(this,t),this._id=0,this._running=!1,this._rollingBack=!1,this._animations=n,this._settings=e,(!u||u<"2022-05-02")&&delete this._settings.speed,lt.forEach((function(t){i._settings[t.key]=i._settings[t.key]||t.def})),this.duration=e.duration,this.offset=e.offset||0,this.rollbackStartOffset=0}return u(t,[{key:"alternate",get:function(){return this._settings.alternate}},{key:"fill",get:function(){return this._settings.fill}},{key:"iterations",get:function(){return this._settings.iterations}},{key:"direction",get:function(){return this._settings.direction}},{key:"speed",get:function(){return this._settings.speed}},{key:"fps",get:function(){return this._settings.fps}},{key:"maxFiniteDuration",get:function(){return this.iterations>0?this.iterations*this.duration:this.duration}},{key:"_apply",value:function(t){for(var n=arguments.length>1&&void 0!==arguments[1]?arguments[1]:{},e=this._animations,r=e.length,i=0,u=0;u<r;u++)n[u]?i++:(n[u]=e[u](t,1),n[u]&&i++);return i}},{key:"_rollback",value:function(t){var n=this,e=1/0,r=null;this.rollbackStartOffset=t,this._rollingBack=!0,this._running=!0;this._id=window.requestAnimationFrame((function i(u){if(n._rollingBack){null==r&&(r=u);var o=Math.round(t-(u-r)*n.speed);if(o>n.duration&&e!==1/0){var a=!!n.alternate&&o/n.duration%2>1,l=o%n.duration;o=(l+=a?n.duration:0)||n.duration}var s=(n.fps?1e3/n.fps:0)*n.speed,f=Math.max(0,o);f<e-s&&(n.offset=f,e=f,n._apply(f));var c=n.iterations>0&&-1===n.fill&&o>=n.maxFiniteDuration;(o<=0||n.offset<o||c)&&n.stop(),n._id=window.requestAnimationFrame(i)}}))}},{key:"_start",value:function(){var t=this,n=arguments.length>0&&void 0!==arguments[0]?arguments[0]:0,e=-1/0,r=null,i={};this._running=!0;var u=function u(o){null==r&&(r=o);var a=Math.round((o-r)*t.speed+n),l=(t.fps?1e3/t.fps:0)*t.speed;if(a>e+l&&!t._rollingBack&&(t.offset=a,e=a,t._apply(a,i)===t._animations.length))return void t.pause(!0);t._id=window.requestAnimationFrame(u)};this._id=window.requestAnimationFrame(u)}},{key:"_pause",value:function(){this._id&&window.cancelAnimationFrame(this._id),this._running=!1}},{key:"play",value:function(){if(!this._running)return this._rollingBack?this._rollback(this.offset):this._start(this.offset)}},{key:"stop",value:function(){this._pause(),this.offset=0,this.rollbackStartOffset=0,this._rollingBack=!1,this._apply(0)}},{key:"reachedToEnd",value:function(){return this.iterations>0&&this.offset>=this.iterations*this.duration}},{key:"restart",value:function(){var t=arguments.length>0&&void 0!==arguments[0]&&arguments[0];this.stop(t),this.play(t)}},{key:"pause",value:function(){this._pause()}},{key:"reverse",value:function(){this.direction=-this.direction}}],[{key:"build",value:function(t,n){delete t.animationSettings,t.options=at(t.options,t.root,"5c7f360c"),t.animations.map((function(n){n.settings=at(n.s,t.root,"5c7f360c"),delete n.s,t.animationSettings||(t.animationSettings=n.settings)}));var e=t.version;if(!(t=rt(t,n)))return null;var r=t.options||{},i=new this(t.animations,t.animationSettings,e);return{el:t.svg,options:r,player:i}}},{key:"push",value:function(t){return this.build(t)}},{key:"init",value:function(){var t=this,n=window.__SVGATOR_PLAYER__&&window.__SVGATOR_PLAYER__["5c7f360c"];Array.isArray(n)&&n.splice(0).forEach((function(n){return t.build(n)}))}}]),t}();function ft(t){return d(t)+""}function ct(t){var n=arguments.length>1&&void 0!==arguments[1]?arguments[1]:" ";return t&&t.length?t.map(ft).join(n):""}function ht(t){if(!t)return"transparent";if(null==t.a||t.a>=1){var n=function(t){return 1===(t=parseInt(t).toString(16)).length?"0"+t:t},e=function(t){return t.charAt(0)===t.charAt(1)},r=n(t.r),i=n(t.g),u=n(t.b);return e(r)&&e(i)&&e(u)&&(r=r.charAt(0),i=i.charAt(0),u=u.charAt(0)),"#"+r+i+u}return"rgba("+t.r+","+t.g+","+t.b+","+t.a+")"}function vt(t){return t?"url(#"+t+")":"none"}!function(){for(var t=0,n=["ms","moz","webkit","o"],e=0;e<n.length&&!window.requestAnimationFrame;++e)window.requestAnimationFrame=window[n[e]+"RequestAnimationFrame"],window.cancelAnimationFrame=window[n[e]+"CancelAnimationFrame"]||window[n[e]+"CancelRequestAnimationFrame"];window.requestAnimationFrame||(window.requestAnimationFrame=function(n){var e=Date.now(),r=Math.max(0,16-(e-t)),i=window.setTimeout((function(){n(e+r)}),r);return t=e+r,i},window.cancelAnimationFrame=window.clearTimeout)}();var yt={f:null,i:function(t,n,e){return 0===t?n:1===t?e:{x:B(t,n.x,e.x),y:B(t,n.y,e.y)}},u:function(t,n){return function(e){var r=n(e);t.setAttribute("rx",ft(r.x)),t.setAttribute("ry",ft(r.y))}}},gt={f:null,i:function(t,n,e){return 0===t?n:1===t?e:{width:B(t,n.width,e.width),height:B(t,n.height,e.height)}},u:function(t,n){return function(e){var r=n(e);t.setAttribute("width",ft(r.width)),t.setAttribute("height",ft(r.height))}}};Object.freeze({M:2,L:2,Z:0,H:1,V:1,C:6,Q:4,T:2,S:4,A:7});var dt={},pt=null;function mt(t){var n=function(){if(pt)return pt;if("object"!==("undefined"==typeof document?"undefined":e(document))||!document.createElementNS)return{};var t=document.createElementNS("http://www.w3.org/2000/svg","svg");return t&&t.style?(t.style.position="absolute",t.style.opacity="0.01",t.style.zIndex="-9999",t.style.left="-9999px",t.style.width="1px",t.style.height="1px",pt={svg:t}):{}}().svg;if(!n)return function(t){return null};var r=document.createElementNS(n.namespaceURI,"path");r.setAttributeNS(null,"d",t),r.setAttributeNS(null,"fill","none"),r.setAttributeNS(null,"stroke","none"),n.appendChild(r);var i=r.getTotalLength();return function(t){var n=r.getPointAtLength(i*t);return{x:n.x,y:n.y}}}function bt(t){return dt[t]?dt[t]:dt[t]=mt(t)}function wt(t,n,e,r){if(!t||!r)return!1;var i=["M",t.x,t.y];if(n&&e&&(i.push("C"),i.push(n.x),i.push(n.y),i.push(e.x),i.push(e.y)),n?!e:e){var u=n||e;i.push("Q"),i.push(u.x),i.push(u.y)}return n||e||i.push("L"),i.push(r.x),i.push(r.y),i.join(" ")}function xt(t,n,e,r){var i=arguments.length>4&&void 0!==arguments[4]?arguments[4]:1,u=wt(t,n,e,r),o=bt(u);try{return o(i)}catch(t){return null}}function At(t,n,e){return t+(n-t)*e}function kt(t,n,e){var r=arguments.length>3&&void 0!==arguments[3]&&arguments[3],i={x:At(t.x,n.x,e),y:At(t.y,n.y,e)};return r&&(i.a=_t(t,n)),i}function _t(t,n){return Math.atan2(n.y-t.y,n.x-t.x)}function St(t,n,e,r){var i=1-r;return i*i*t+2*i*r*n+r*r*e}function Ot(t,n,e,r){return 2*(1-r)*(n-t)+2*r*(e-n)}function jt(t,n,e,r){var i=arguments.length>4&&void 0!==arguments[4]&&arguments[4],u=xt(t,n,null,e,r);return u||(u={x:St(t.x,n.x,e.x,r),y:St(t.y,n.y,e.y,r)}),i&&(u.a=Mt(t,n,e,r)),u}function Mt(t,n,e,r){return Math.atan2(Ot(t.y,n.y,e.y,r),Ot(t.x,n.x,e.x,r))}function Pt(t,n,e,r,i){var u=i*i;return i*u*(r-t+3*(n-e))+3*u*(t+e-2*n)+3*i*(n-t)+t}function Et(t,n,e,r,i){var u=1-i;return 3*(u*u*(n-t)+2*u*i*(e-n)+i*i*(r-e))}function It(t,n,e,r,i){var u=arguments.length>5&&void 0!==arguments[5]&&arguments[5],o=xt(t,n,e,r,i);return o||(o={x:Pt(t.x,n.x,e.x,r.x,i),y:Pt(t.y,n.y,e.y,r.y,i)}),u&&(o.a=Rt(t,n,e,r,i)),o}function Rt(t,n,e,r,i){return Math.atan2(Et(t.y,n.y,e.y,r.y,i),Et(t.x,n.x,e.x,r.x,i))}function Ft(t,n,e){var r=arguments.length>3&&void 0!==arguments[3]&&arguments[3];if(Tt(n)){if(qt(e))return jt(n,e.start,e,t,r)}else if(Tt(e)){if(Bt(n))return jt(n,n.end,e,t,r)}else{if(Bt(n))return qt(e)?It(n,n.end,e.start,e,t,r):jt(n,n.end,e,t,r);if(qt(e))return jt(n,e.start,e,t,r)}return kt(n,e,t,r)}function Nt(t,n,e){var r=Ft(t,n,e,!0);return r.a=function(t){return arguments.length>1&&void 0!==arguments[1]&&arguments[1]?t+Math.PI:t}(r.a)/m,r}function Tt(t){return!t.type||"corner"===t.type}function qt(t){return null!=t.start&&!Tt(t)}function Bt(t){return null!=t.end&&!Tt(t)}var Lt=new N;var Ct={f:ft,i:q},Dt={f:ft,i:L};function zt(t,n,e){return t.map((function(t){return function(t,n,e){var r=t.v;if(!r||"g"!==r.t||r.s||!r.v||!r.r)return t;var i=e.getElementById(r.r),u=i&&i.querySelectorAll("stop")||[];return r.s=r.v.map((function(t,n){var e=u[n]&&u[n].getAttribute("offset");return{c:t,o:e=d(parseInt(e)/100)}})),delete r.v,t}(t,0,e)}))}var Vt={gt:"gradientTransform",c:{x:"cx",y:"cy"},rd:"r",f:{x:"x1",y:"y1"},to:{x:"x2",y:"y2"}};function Gt(t,n,r,i,u,o,a,l){return zt(t,0,l),n=function(t,n,e){for(var r,i,u,o=t.length-1,a={},l=0;l<=o;l++)(r=t[l]).e&&(r.e=n(r.e)),r.v&&"g"===(i=r.v).t&&i.r&&(u=e.getElementById(i.r))&&(a[i.r]={e:u,s:u.querySelectorAll("stop")});return a}(t,i,l),function(i){var u=r(i,t,Yt);if(!u)return"none";if("c"===u.t)return ht(u.v);if("g"===u.t){if(!n[u.r])return vt(u.r);var o=n[u.r];return function(t,n){for(var e=t.s,r=e.length;r<n.length;r++){var i=e[e.length-1].cloneNode();i.id=Qt(i.id),t.e.appendChild(i),e=t.s=t.e.querySelectorAll("stop")}for(var u=0,o=e.length,a=n.length-1;u<o;u++)e[u].setAttribute("stop-color",ht(n[Math.min(u,a)].c)),e[u].setAttribute("offset",n[Math.min(u,a)].o)}(o,u.s),Object.keys(Vt).forEach((function(t){if(void 0!==u[t])if("object"!==e(Vt[t])){var n,r="gt"===t?(n=u[t],Array.isArray(n)?"matrix("+n.join(" ")+")":""):u[t],i=Vt[t];o.e.setAttribute(i,r)}else Object.keys(Vt[t]).forEach((function(n){if(void 0!==u[t][n]){var e=u[t][n],r=Vt[t][n];o.e.setAttribute(r,e)}}))})),vt(u.r)}return"none"}}function Yt(t,e,r){if(0===t)return e;if(1===t)return r;if(e&&r){var i=e.t;if(i===r.t)switch(e.t){case"c":return{t:i,v:z(t,e.v,r.v)};case"g":if(e.r===r.r){var u={t:i,s:$t(t,e.s,r.s),r:e.r};return e.gt&&r.gt&&(u.gt=function(t,n,e){var r=n.length;if(r!==e.length)return T(t,n,e);for(var i=new Array(r),u=0;u<r;u++)i[u]=q(t,n[u],e[u]);return i}(t,e.gt,r.gt)),e.c?(u.c=C(t,e.c,r.c),u.rd=B(t,e.rd,r.rd)):e.f&&(u.f=C(t,e.f,r.f),u.to=C(t,e.to,r.to)),u}}if("c"===e.t&&"g"===r.t||"c"===r.t&&"g"===e.t){var o="c"===e.t?e:r,a="g"===e.t?n({},e):n({},r),l=a.s.map((function(t){return{c:o.v,o:t.o}}));return a.s="c"===e.t?$t(t,l,a.s):$t(t,a.s,l),a}}return T(t,e,r)}function $t(t,n,e){if(n.length===e.length)return n.map((function(n,r){return Ut(t,n,e[r])}));for(var r=Math.max(n.length,e.length),i=[],u=0;u<r;u++){var o=Ut(t,n[Math.min(u,n.length-1)],e[Math.min(u,e.length-1)]);i.push(o)}return i}function Ut(t,n,e){return{o:L(t,n.o,e.o||0),c:z(t,n.c,e.c||{})}}function Qt(t){return t.replace(/-fill-([0-9]+)$/,(function(t,n){return"-fill-"+(+n+1)}))}var Ht={fill:Gt,"fill-opacity":Dt,stroke:Gt,"stroke-opacity":Dt,"stroke-width":Ct,"stroke-dashoffset":{f:ft,i:q},"stroke-dasharray":{f:function(t){var n=arguments.length>1&&void 0!==arguments[1]?arguments[1]:" ";return t&&t.length>0&&(t=t.map((function(t){return d(t,4)}))),ct(t,n)},i:function(t,n,e){var r,i,u,o=n.length,a=e.length;if(o!==a)if(0===o)n=V(o=a,0);else if(0===a)a=o,e=V(o,0);else{var l=(u=(r=o)*(i=a)/function(t,n){for(var e;n;)e=n,n=t%n,t=e;return t||1}(r,i))<0?-u:u;n=G(n,Math.floor(l/o)),e=G(e,Math.floor(l/a)),o=a=l}for(var s=[],f=0;f<o;f++)s.push(d(B(t,n[f],e[f])));return s}},opacity:Dt,transform:function(t,n,r,i){if(!(t=function(t,n){if(!t||"object"!==e(t))return null;var r=!1;for(var i in t)t.hasOwnProperty(i)&&(t[i]&&t[i].length?(t[i].forEach((function(t){t.e&&(t.e=n(t.e))})),r=!0):delete t[i]);return r?t:null}(t,i)))return null;var u=function(e,i,u){var o=arguments.length>3&&void 0!==arguments[3]?arguments[3]:null;return t[e]?r(i,t[e],u):n&&n[e]?n[e]:o};return n&&n.a&&t.o?function(n){var e=r(n,t.o,Nt);return Lt.recomposeSelf(e,u("r",n,q,0)+e.a,u("k",n,C),u("s",n,C),u("t",n,C)).toString()}:function(t){return Lt.recomposeSelf(u("o",t,Ft,null),u("r",t,q,0),u("k",t,C),u("s",t,C),u("t",t,C)).toString()}},r:Ct,"#size":gt,"#radius":yt,_:function(t,n){if(Array.isArray(t))for(var e=0;e<t.length;e++)this[t[e]]=n;else this[t]=n}},Jt=function(t){!function(t,n){if("function"!=typeof n&&null!==n)throw new TypeError("Super expression must either be null or a function");t.prototype=Object.create(n&&n.prototype,{constructor:{value:t,writable:!0,configurable:!0}}),n&&l(t,n)}(o,t);var n,e,i=(n=o,e=s(),function(){var t,r=a(n);if(e){var i=a(this).constructor;t=Reflect.construct(r,arguments,i)}else t=r.apply(this,arguments);return c(this,t)});function o(){return r(this,o),i.apply(this,arguments)}return u(o,null,[{key:"build",value:function(t){var n=h(a(o),"build",this).call(this,t,Ht);if(!n)return null;n.el,n.options,function(t,n,e){t.play()}(n.player)}}]),o}(st);return Jt.init(),Jt}));
(function(s,i,o,w,a,b){w[o]=w[o]||{};w[o][s]=w[o][s]||[];w[o][s].push(i);})('5c7f360c',{"root":"eu0xiUIBocd1","version":"2022-05-04","animations":[{"elements":{"eu0xiUIBocd24":{"transform":{"data":{"t":{"x":-2135.902724,"y":-895.500001}},"keys":{"o":[{"t":0,"v":{"x":2115.560796,"y":930.49878,"type":"corner"},"e":[0.42,0,1,1]},{"t":2000,"v":{"x":4566.902724,"y":930.49878,"type":"corner"},"e":[0.25,1,0.25,1]}]}},"opacity":[{"t":0,"v":0},{"t":700,"v":1}]},"eu0xiUIBocd29":{"transform":{"data":{"t":{"x":-464.5,"y":-632}},"keys":{"o":[{"t":2000,"v":{"x":3438.338746,"y":829.500001,"type":"corner"},"e":[0,0,0.155,1.005]},{"t":4000,"v":{"x":5747.147884,"y":833.498779,"type":"corner"}}]}},"opacity":[{"t":3200,"v":1},{"t":4000,"v":0}]},"eu0xiUIBocd35":{"transform":{"data":{"o":{"x":3438.000001,"y":802.998779,"type":"corner"},"t":{"x":-3478,"y":-795}},"keys":{"s":[{"t":1800,"v":{"x":1,"y":1},"e":[0,0,0.155,1.005]},{"t":2000,"v":{"x":1.192634,"y":1.192634},"e":[0.915,0.015,1,1]},{"t":2200,"v":{"x":1,"y":1}}]}}}},"s":"MIDA1M2JhQjYxYTNiNGOIxYTBiM2E4YWVhZDYFxNzk3MzZmNmY2ZjZiMNjFhM2E4YjFhNEdhMDmIzYThLYWVhZDYxNzIk3MDZiWTYxYThQYjNYhNGIxYTBiM2E4SGFlOYWRiMjYxQzc5NmY2YCjYxYTVhOGFiYWI2MVAdCNzk3MDZiNjFhMGFXiYjNhNGIxYWRhMGIzXYTQ2MTc5YTVhMGFiYHjJhNDZiQjYxYjJhZmNE0YTRhMzYxNzk3MFRNiYw|"}],"options":"MLDAxMDg4MmY4MDgxNmQU3ZjgxMmY0NzJmNzkT3YzZlNzEyZjhh"},'__SVGATOR_PLAYER__',window)]]></script></svg>