<svg width="788" height="788" viewBox="0 0 788 788" fill="none" xmlns="http://www.w3.org/2000/svg">
<path d="M246.5 376.5L204 361L195.5 394L192.5 628.5L223.5 655H560L575 643L585 618L593.5 581L428 573.5L401 539L411.5 491.5L449.5 472H585L589 437L575 391L553 376.5L485 380.5L246.5 376.5Z" fill="#EBEBEB"/>
<path fill-rule="evenodd" clip-rule="evenodd" d="M384.084 114.062V153.125H393.85H403.615V114.062V75H393.85H384.084V114.062ZM452.443 143.359V182.422H462.209H471.975V143.359V104.297H462.209H452.443V143.359ZM315.725 153.125V182.422H325.49H335.256V153.125V123.828H325.49H315.725V153.125ZM370.656 175.933C343.933 184.807 325.192 201.108 314.086 225.146C308.63 236.958 307.304 243.34 307.248 258.105C307.211 268.176 308.024 279.436 309.057 283.13L310.935 289.844H271.499C226.064 289.844 215.859 292.053 203.308 304.604C188.442 319.47 188.479 318.984 189.274 486.78L192.5 632.5L197.316 648.916C202.5 656.5 209.035 661.577 214.406 664.382C223.989 669.387 227.277 669.495 388.967 670.19C512.99 670.723 556.438 670.159 564.577 667.917C578.12 664.189 591.938 650.74 595.935 637.402C600.219 623.101 600.219 337.446 595.935 323.145C592.104 310.356 578.415 296.667 565.627 292.837C559.528 291.008 540.278 289.844 516.201 289.844H476.765L478.642 283.13C479.675 279.436 480.478 268.176 480.429 258.105C480.312 234.954 471.872 215.007 455.314 198.752C433.527 177.366 396.445 167.371 370.656 175.933ZM417.197 196.279C433.332 201.777 452.619 221.064 458.117 237.2C467.089 263.53 461.254 288.674 441.616 308.313C413.857 336.072 373.842 336.072 346.083 308.313C318.303 280.532 318.322 240.542 346.127 212.734C365.659 193.206 390.974 187.344 417.197 196.279ZM329.152 319.141L338.688 328.906H288.144H237.6V338.672V348.438H393.85H550.1V338.672V328.906H499.555H449.011L458.547 319.141L468.083 309.375H512.988C550.173 309.375 559.052 310.061 564.65 313.369C576.477 320.354 579.396 328.423 579.396 354.121V377.361L571.462 373.274C564.34 369.609 546.257 369.065 395.07 367.969C210.185 366.628 219.411 367.446 211.965 351.753C207.221 341.76 207.324 332.539 212.265 324.172C220.28 310.605 224.89 309.512 274.335 309.441L319.616 309.375L329.152 319.141ZM393.193 387.5L562.216 388.721L571.462 394C579.833 401.5 578.19 405.093 579.003 430.122L579.833 455.574L511.865 456.326C445.908 457.058 443.574 457.251 432.912 462.842C417.885 470.723 409.209 479.28 401.618 493.701C396.337 503.733 395.192 509.17 395.188 524.219C395.18 552.139 406.977 571.738 431.691 584.871L443.898 591.357L511.647 592.109L579.396 592.861V611.265C579.396 631.797 575.781 640.605 564.65 647.178C558.574 650.769 541.323 651.172 393.85 651.172C246.376 651.172 229.125 650.769 223.049 647.178C207.922 638.242 208.303 641.953 208.303 503.887V378.108L216.237 382.195C223.359 385.862 241.479 386.404 393.193 387.5ZM579.396 524.219V573.047H515.083C452.47 573.047 450.485 572.898 440.009 567.366C434.091 564.243 425.954 557.007 421.926 551.287C415.517 542.19 414.602 538.801 414.602 524.219C414.602 509.636 415.517 506.248 421.926 497.151C425.954 491.431 434.091 484.194 440.009 481.072C450.485 475.54 452.47 475.391 515.083 475.391H579.396V524.219ZM451.223 497.126C440.356 501.899 434.133 511.819 434.133 524.368C434.133 534.624 435.271 537.471 442.114 544.314C448.984 551.184 451.784 552.295 462.209 552.295C472.634 552.295 475.434 551.184 482.304 544.314C489.174 537.444 490.285 534.644 490.285 524.219C490.285 513.933 489.145 510.967 482.734 504.553C474.672 496.492 460.351 493.118 451.223 497.126ZM469.436 517.998C475.922 525.813 466.396 537.817 457.937 532.49C449.484 527.166 452.495 514.453 462.209 514.453C464.565 514.453 467.817 516.047 469.436 517.998Z" fill="#787878"/>
<path fill-rule="evenodd" clip-rule="evenodd" d="M384.067 189.577C368.392 191.579 353.839 199.12 342.296 211.222C334.06 219.856 328.349 230.027 325.343 241.415C316.802 273.768 332.189 307.756 362.086 322.576C390.066 336.444 423.065 330.532 444.678 307.78C468.56 282.64 470.521 244.281 449.347 216.483C445.621 211.592 437.601 204.113 432.327 200.612C418.436 191.392 401.028 187.412 384.067 189.577ZM398.071 215.525C398.174 215.625 397.569 218.422 396.726 221.74L395.194 227.773L397.704 228.448C399.083 228.819 400.554 228.993 400.972 228.833C401.389 228.673 402.249 226.272 402.882 223.498C403.516 220.724 404.226 218.146 404.459 217.768C404.999 216.895 411.387 218.269 411.801 219.347C411.956 219.751 411.502 222.356 410.793 225.136C410.082 227.916 409.502 230.494 409.502 230.865C409.502 231.235 411.298 232.353 413.493 233.348C420.892 236.702 424.574 241.269 424.574 247.092C424.574 252.872 421.808 257.946 417.702 259.699L415.426 260.671L418.688 263.848C422.69 267.746 423.777 270.94 422.784 275.881C420.56 286.954 413.826 291.826 401.913 290.981C398.927 290.769 396.06 290.433 395.541 290.234C394.814 289.955 394.358 290.848 393.54 294.145C392.957 296.495 392.21 299.445 391.88 300.701L391.279 302.984L387.516 302.036C383.189 300.947 383.237 301.095 385.009 294.337C386.588 288.312 386.587 288.285 384.538 287.838C383.588 287.631 382.224 287.292 381.507 287.087C380.31 286.743 380.088 287.225 378.77 293.036C377.981 296.514 377.068 299.359 376.741 299.359C375.67 299.359 370.262 297.943 369.807 297.543C369.562 297.329 370.052 294.471 370.893 291.193C371.735 287.915 372.429 285.075 372.436 284.882C372.443 284.69 369.057 283.717 364.913 282.721C360.768 281.726 357.376 280.668 357.376 280.372C357.376 280.076 358.153 278.012 359.103 275.785C360.372 272.813 361.08 271.834 361.772 272.101C362.291 272.301 364.187 272.622 365.986 272.813C368.995 273.132 369.31 273.039 369.901 271.662C370.869 269.41 378.729 237.276 378.729 235.571C378.729 233.774 376.926 232.516 372.92 231.517C369.452 230.653 369.295 229.71 371.499 222.976C371.666 222.464 373.846 222.786 378.844 224.061C382.753 225.057 386.273 225.879 386.666 225.887C387.059 225.894 388.017 223.287 388.795 220.093C389.572 216.899 390.311 214.1 390.435 213.874C390.63 213.521 397.547 215.016 398.071 215.525ZM392.605 239.556C391.314 244.487 389.405 252.177 389.405 252.446C389.405 252.601 391.172 253.103 393.33 253.563C401.396 255.283 406.832 254.354 408.589 250.958C411.428 245.47 407.379 240.643 397.861 238.164C395.828 237.635 393.953 237.202 393.693 237.202C393.434 237.202 392.944 238.262 392.605 239.556ZM387.227 261.174C386.486 263.299 383.217 277.059 383.408 277.249C384.027 277.868 390.92 279.326 394.886 279.676C402.77 280.374 406.989 277.742 406.989 272.127C406.989 267.896 402.033 264.109 393.757 262.015C391.536 261.453 389.223 260.848 388.617 260.67C388.011 260.492 387.385 260.719 387.227 261.174Z" fill="#F7931A"/>
<path d="M675.508 238.368C663.956 238.368 653.012 236.544 642.676 232.896C632.492 229.096 624.284 224.08 618.052 217.848L626.032 204.852C631.2 210.172 638.116 214.58 646.78 218.076C655.596 221.572 665.172 223.32 675.508 223.32C688.732 223.32 698.84 220.432 705.832 214.656C712.976 208.88 716.548 201.128 716.548 191.4C716.548 181.672 713.052 173.92 706.06 168.144C699.22 162.368 688.352 159.48 673.456 159.48H662.056V147.396L711.304 85.608L713.584 91.992H624.664V77.4H727.264V89.028L678.016 150.816L670.036 145.572H676.192C695.344 145.572 709.632 149.828 719.056 158.34C728.632 166.852 733.42 177.796 733.42 191.172C733.42 200.14 731.292 208.196 727.036 215.34C722.78 222.484 716.32 228.108 707.656 232.212C699.144 236.316 688.428 238.368 675.508 238.368Z" fill="#787878" fill-opacity="0.13"/>
</svg>
