<svg width="788" height="788" viewBox="0 0 788 788" fill="none" xmlns="http://www.w3.org/2000/svg">
<path d="M248 127H233L222 166L216 565L233 584H454L473 570L480 182L464 127L441 118L404 153H270V127H248Z" fill="#EBEBEB" stroke="black"/>
<rect x="251" y="205" width="197" height="193" fill="white"/>
<path fill-rule="evenodd" clip-rule="evenodd" d="M216.435 127.71C219.861 123.207 226.314 117.612 230.776 115.278L238.885 111.034L349.085 111.002C453.413 110.974 459.688 111.163 466.885 114.574C476.495 119.126 482.643 125.201 486.679 134.125C489.376 140.084 489.851 153.353 489.851 222.59V304.043L497.533 304.085C509.008 304.147 521.585 310.225 527.492 318.563C530.315 322.549 537.827 341.995 544.184 361.775C550.542 381.555 564.428 421.511 575.04 450.567L594.335 503.392L594.359 542.37C594.384 583.553 595.828 592.996 604.496 608.662C607.049 613.276 626.09 639.394 646.808 666.702C667.527 694.012 684.477 716.844 684.477 717.44C684.477 718.888 668.18 728.803 667.373 727.845C657.086 715.644 589.127 623.676 585.468 617.005C575.732 599.256 573.848 587.78 573.848 546.256V507.928L548.343 435.797C534.316 396.126 520.475 356.269 517.586 347.223C511.827 329.195 506.216 322.971 495.72 322.971H489.851L489.9 357.516C489.927 376.515 490.76 395.042 491.752 398.686C492.744 402.329 500.131 426.086 508.168 451.477C516.205 476.87 522.468 498.509 522.087 499.565C520.95 502.719 504.104 506.678 503.018 504.049C502.52 502.838 499.42 493.328 496.132 482.918L490.152 463.989L489.957 516.989C489.736 576.873 489.04 580.178 474.309 591.397C466.752 597.153 466.453 597.817 466.905 607.834C467.567 622.434 474.15 637.272 484.842 648.258L493.954 657.622L486.331 664.666L478.71 671.707L470.005 662.491C457.256 648.993 449.252 632.716 446.49 614.677L444.14 599.328H382.999C349.371 599.328 321.857 599.858 321.857 600.505C321.857 601.153 332.597 615.419 345.723 632.211C370.135 663.439 384.791 679.148 397.891 688.114C401.962 690.902 411.138 698.07 418.281 704.044L431.272 714.906L423.711 721.892L416.149 728.877L407.417 721.196C402.613 716.971 391.546 708.214 382.823 701.739C364.395 688.061 359.066 682.197 321.857 634.662L294.2 599.328H266.952C238.33 599.328 232.235 597.973 222.004 589.33C218.099 586.033 216.632 585.783 212.176 587.659C198.437 593.441 180.233 588.192 172.292 576.158C166.756 567.77 166.619 543.112 172.046 532.075C175.685 524.672 175.683 524.254 172.001 517.909C167.148 509.55 166.615 477.792 171.159 467.744C173.923 461.634 173.837 461.032 169.84 458.445C163.31 454.22 157.992 445.695 157.949 439.382C157.912 434.019 165.046 409.102 171.591 391.737C173.341 387.092 178.381 380.592 183.834 375.949C188.929 371.608 192.799 367.807 192.433 367.505C192.066 367.2 185.166 363.899 177.1 360.168C159.266 351.919 153.47 345.173 152.217 331.2C151.114 318.921 154.128 311.561 163.308 304.113C174.207 295.271 183.867 293.736 204.506 297.564L209.052 298.408L209.627 217.153L210.203 135.901L216.435 127.71ZM272.527 157.004C269.728 153.928 264.701 146.575 261.355 140.661C254.9 129.246 250.81 127.578 240.53 132.166C239.177 132.77 237.992 133.182 236.954 133.83C229.352 138.576 229.666 156.003 229.666 354.84C229.666 480.05 230.432 564.982 231.59 567.791C232.647 570.362 235.587 574.25 238.121 576.432C242.677 580.352 243.958 580.399 347.757 580.399C418.906 580.399 454.355 579.737 457.662 578.346C460.345 577.216 464.076 573.89 465.953 570.954C469.081 566.063 469.364 548.124 469.364 355.237C469.364 156.393 469.762 138.429 462.141 133.87C461.001 133.188 459.681 132.805 458.153 132.162C449.198 128.392 443.661 129.336 440.883 135.106C433.739 149.94 425.114 160.398 417.044 164.008C409.282 167.479 404.287 167.758 349.826 167.758C285.599 167.758 281.846 167.235 272.527 157.004ZM408.03 146.874C410.208 145.797 413.852 141.538 416.132 137.409L420.279 129.9H349.515H278.751L282.897 137.409C285.177 141.538 288.822 145.797 291 146.874C293.438 148.079 315.883 148.829 349.515 148.829C383.146 148.829 405.592 148.079 408.03 146.874ZM250.153 264.293V234.954V205.615H280.883H311.614V215.011V224.407L291.639 224.948L271.664 225.49L271.08 244.891L270.496 264.293H260.325H250.153ZM385.359 225.49L385.363 215.552L385.367 205.615H416.098H446.828V234.954V264.293H436.585H426.341V244.293V224.291L405.85 224.891L385.359 225.49ZM209.179 317.789L201.496 316.615C187.778 314.52 180.661 315.249 176.4 319.186C170.919 324.249 171.155 332.695 176.912 337.579C180.995 341.043 205.29 353.257 208.095 353.257C208.691 353.257 209.179 345.277 209.179 335.523V317.789ZM250.153 398.686V369.346V340.007H260.396H270.64V359.882V379.757H291.127H311.614V389.221V398.686H280.883H250.153ZM426.341 379.757V359.882V340.007H436.585H446.828V369.346V398.686H416.098H385.367V389.221V379.757H405.854H426.341ZM182.603 442.645C188.341 446.938 199.263 446.963 204.926 442.694C209.111 439.539 209.291 438.055 208.736 411.476L208.154 383.571L201.47 387.328C193.789 391.648 191.23 396.522 183.611 421.351L178.108 439.282L182.603 442.645ZM270.64 455.471V446.007V436.543H348.49H426.341V446.007V455.471H348.49H270.64ZM204.057 511.484C209.048 508.463 209.179 507.807 209.179 485.713C209.179 473.245 208.486 463.158 207.642 463.3C199.124 464.729 196.803 465.67 193.514 469.022C190.523 472.073 189.567 476.639 189.011 490.525C188.325 507.727 188.436 508.229 193.621 511.369C198.558 514.356 199.3 514.365 204.057 511.484ZM270.64 533.078V523.614V514.15H333.125H426.341V523.614V533.078H333.125H270.64ZM198.935 570.935C206.944 570.935 209.179 565.947 209.179 548.087C209.179 538.791 208.486 531.312 207.642 531.469C206.798 531.624 203.561 532.109 200.453 532.542C192.912 533.597 188.692 541.516 188.692 554.617C188.692 565.665 192 570.935 198.935 570.935Z" fill="#787878"/>
<path fill-rule="evenodd" clip-rule="evenodd" d="M272.826 271.767L272 272.534V281.934V291.333H273.249H274.497V283.186V275.038L275.263 274.271L276.029 273.503H284.003H291.976V272.251V271H282.814H273.652L272.826 271.767ZM279.875 281.22C279.656 281.308 279.27 281.782 279.016 282.274C278.624 283.034 278.555 285.952 278.555 301.655V320.141L279.321 320.909L280.087 321.677H292.118H304.149V316.834V311.991L296.58 311.907L289.011 311.823L288.93 296.417L288.849 281.01L284.56 281.035C282.201 281.048 280.093 281.132 279.875 281.22ZM293.849 286.01V291.009L301.418 291.093L308.987 291.177L309.071 298.763L309.154 306.349H314.143H319.131V294.328V282.307L318.309 281.659C317.51 281.029 317.152 281.01 305.668 281.01H293.849V286.01ZM323.501 285.703V290.395H338.327H353.153V293.367V296.338H338.327H323.501V309.008V321.677H328.183H332.865V313.82V305.963L334.191 307.147C334.921 307.798 338.187 310.889 341.448 314.016C344.71 317.143 347.889 320.146 348.512 320.689L349.646 321.677L356.784 321.67L363.921 321.663L362.358 320.184C361.499 319.371 358.69 316.735 356.116 314.326C353.542 311.918 350.453 308.999 349.251 307.841L347.067 305.734L355.572 305.728L364.078 305.723V293.367V281.01H343.789H323.501V285.703ZM368.135 301.344V321.677H373.129H378.123V301.344V281.01H373.129H368.135V301.344ZM382.493 293.679V306.349H395.758H409.024V308.851V311.354H395.758H382.493V316.359V321.364H402.469H422.445V308.695V296.026H409.011H395.576L395.667 293.601L395.758 291.177L409.102 291.095L422.445 291.014V286.012V281.01H402.469H382.493V293.679ZM293.849 301.187V306.349H298.843H303.837V301.187V296.026H298.843H293.849V301.187ZM301.028 301.187V303.221H298.999H296.97V301.187V299.154H298.999H301.028V301.187ZM309.143 321.677V332H314.137H319.131V321.677V311.354H314.137H309.143V321.677ZM426.756 319.479C426.661 327.453 426.646 327.617 425.949 328.316C425.251 329.015 425.09 329.03 417.131 329.121L409.024 329.214V330.464V331.713L418.416 331.622L427.807 331.531L428.404 330.792C428.961 330.102 429 329.441 429 320.704V311.354H427.927H426.854L426.756 319.479Z" fill="#787878"/>
<path d="M282.988 496V470.8H293.896C296.152 470.8 298.096 471.172 299.728 471.916C301.36 472.636 302.62 473.68 303.508 475.048C304.396 476.416 304.84 478.048 304.84 479.944C304.84 481.816 304.396 483.436 303.508 484.804C302.62 486.148 301.36 487.18 299.728 487.9C298.096 488.62 296.152 488.98 293.896 488.98H286.228L288.82 486.424V496H282.988ZM299.008 496L292.708 486.856H298.936L305.308 496H299.008ZM288.82 487.072L286.228 484.336H293.572C295.372 484.336 296.716 483.952 297.604 483.184C298.492 482.392 298.936 481.312 298.936 479.944C298.936 478.552 298.492 477.472 297.604 476.704C296.716 475.936 295.372 475.552 293.572 475.552H286.228L288.82 472.78V487.072ZM320.513 496.288C318.881 496.288 317.453 495.928 316.229 495.208C315.005 494.488 314.045 493.396 313.349 491.932C312.677 490.444 312.341 488.572 312.341 486.316C312.341 484.036 312.665 482.164 313.313 480.7C313.961 479.236 314.897 478.144 316.121 477.424C317.345 476.704 318.809 476.344 320.513 476.344C322.337 476.344 323.969 476.764 325.409 477.604C326.873 478.42 328.025 479.572 328.865 481.06C329.729 482.548 330.161 484.3 330.161 486.316C330.161 488.356 329.729 490.12 328.865 491.608C328.025 493.096 326.873 494.248 325.409 495.064C323.969 495.88 322.337 496.288 320.513 496.288ZM309.065 502.984V476.632H314.429V480.592L314.321 486.352L314.681 492.076V502.984H309.065ZM319.541 491.68C320.477 491.68 321.305 491.464 322.025 491.032C322.769 490.6 323.357 489.988 323.789 489.196C324.245 488.38 324.473 487.42 324.473 486.316C324.473 485.188 324.245 484.228 323.789 483.436C323.357 482.644 322.769 482.032 322.025 481.6C321.305 481.168 320.477 480.952 319.541 480.952C318.605 480.952 317.765 481.168 317.021 481.6C316.277 482.032 315.689 482.644 315.257 483.436C314.825 484.228 314.609 485.188 314.609 486.316C314.609 487.42 314.825 488.38 315.257 489.196C315.689 489.988 316.277 490.6 317.021 491.032C317.765 491.464 318.605 491.68 319.541 491.68ZM335.776 496V472.96L338.296 475.48H330.736V470.8H341.608V496H335.776ZM354.554 496.432C352.802 496.432 351.062 496.204 349.334 495.748C347.63 495.268 346.166 494.596 344.942 493.732L347.246 489.268C348.206 489.964 349.31 490.516 350.558 490.924C351.83 491.332 353.114 491.536 354.41 491.536C355.874 491.536 357.026 491.248 357.866 490.672C358.706 490.096 359.126 489.292 359.126 488.26C359.126 487.612 358.958 487.036 358.622 486.532C358.286 486.028 357.686 485.644 356.822 485.38C355.982 485.116 354.794 484.984 353.258 484.984H346.814L348.11 470.8H363.482V475.48H350.198L353.222 472.816L352.322 482.932L349.298 480.268H354.626C357.122 480.268 359.126 480.616 360.638 481.312C362.174 481.984 363.29 482.908 363.986 484.084C364.682 485.26 365.03 486.592 365.03 488.08C365.03 489.568 364.658 490.948 363.914 492.22C363.17 493.468 362.018 494.488 360.458 495.28C358.922 496.048 356.954 496.432 354.554 496.432ZM378.196 496.432C376.132 496.432 374.284 495.928 372.652 494.92C371.02 493.888 369.736 492.4 368.8 490.456C367.864 488.512 367.396 486.16 367.396 483.4C367.396 480.64 367.864 478.288 368.8 476.344C369.736 474.4 371.02 472.924 372.652 471.916C374.284 470.884 376.132 470.368 378.196 470.368C380.284 470.368 382.132 470.884 383.74 471.916C385.372 472.924 386.656 474.4 387.592 476.344C388.528 478.288 388.996 480.64 388.996 483.4C388.996 486.16 388.528 488.512 387.592 490.456C386.656 492.4 385.372 493.888 383.74 494.92C382.132 495.928 380.284 496.432 378.196 496.432ZM378.196 491.5C379.18 491.5 380.032 491.224 380.752 490.672C381.496 490.12 382.072 489.244 382.48 488.044C382.912 486.844 383.128 485.296 383.128 483.4C383.128 481.504 382.912 479.956 382.48 478.756C382.072 477.556 381.496 476.68 380.752 476.128C380.032 475.576 379.18 475.3 378.196 475.3C377.236 475.3 376.384 475.576 375.64 476.128C374.92 476.68 374.344 477.556 373.912 478.756C373.504 479.956 373.3 481.504 373.3 483.4C373.3 485.296 373.504 486.844 373.912 488.044C374.344 489.244 374.92 490.12 375.64 490.672C376.384 491.224 377.236 491.5 378.196 491.5ZM402.63 496.432C400.566 496.432 398.718 495.928 397.086 494.92C395.454 493.888 394.17 492.4 393.234 490.456C392.298 488.512 391.83 486.16 391.83 483.4C391.83 480.64 392.298 478.288 393.234 476.344C394.17 474.4 395.454 472.924 397.086 471.916C398.718 470.884 400.566 470.368 402.63 470.368C404.718 470.368 406.566 470.884 408.174 471.916C409.806 472.924 411.09 474.4 412.026 476.344C412.962 478.288 413.43 480.64 413.43 483.4C413.43 486.16 412.962 488.512 412.026 490.456C411.09 492.4 409.806 493.888 408.174 494.92C406.566 495.928 404.718 496.432 402.63 496.432ZM402.63 491.5C403.614 491.5 404.466 491.224 405.186 490.672C405.93 490.12 406.506 489.244 406.914 488.044C407.346 486.844 407.562 485.296 407.562 483.4C407.562 481.504 407.346 479.956 406.914 478.756C406.506 477.556 405.93 476.68 405.186 476.128C404.466 475.576 403.614 475.3 402.63 475.3C401.67 475.3 400.818 475.576 400.074 476.128C399.354 476.68 398.778 477.556 398.346 478.756C397.938 479.956 397.734 481.504 397.734 483.4C397.734 485.296 397.938 486.844 398.346 488.044C398.778 489.244 399.354 490.12 400.074 490.672C400.818 491.224 401.67 491.5 402.63 491.5Z" fill="#F7931A"/>
<path d="M704.672 237V84.24L711.968 91.992H667.052V77.4H721.088V237H704.672Z" fill="#787878" fill-opacity="0.13"/>
</svg>
