<svg width="788" height="788" viewBox="0 0 788 788" fill="none" xmlns="http://www.w3.org/2000/svg">
<path d="M248 127H233L222 166L216 565L233 584H454L473 570L480 182L464 127L441 118L404 153H270V127H248Z" fill="#EBEBEB" stroke="black"/>
<rect x="251" y="205" width="197" height="193" fill="white"/>
<path fill-rule="evenodd" clip-rule="evenodd" d="M216.435 127.71C219.861 123.207 226.314 117.612 230.776 115.278L238.885 111.034L349.085 111.002C453.413 110.974 459.688 111.163 466.885 114.574C476.495 119.126 482.643 125.201 486.679 134.125C489.376 140.084 489.851 153.353 489.851 222.59V304.043L497.533 304.085C509.008 304.147 521.585 310.225 527.492 318.563C530.315 322.549 537.827 341.995 544.184 361.775C550.542 381.555 564.428 421.511 575.04 450.567L594.335 503.392L594.359 542.37C594.384 583.553 595.828 592.996 604.496 608.662C607.049 613.276 626.09 639.394 646.808 666.702C667.527 694.012 684.477 716.844 684.477 717.44C684.477 718.888 668.18 728.803 667.373 727.845C657.086 715.644 589.127 623.676 585.468 617.005C575.732 599.256 573.848 587.78 573.848 546.256V507.928L548.343 435.797C534.316 396.126 520.475 356.269 517.586 347.223C511.827 329.195 506.216 322.971 495.72 322.971H489.851L489.9 357.516C489.927 376.515 490.76 395.042 491.752 398.686C492.744 402.329 500.131 426.086 508.168 451.477C516.205 476.87 522.468 498.509 522.087 499.565C520.95 502.719 504.104 506.678 503.018 504.049C502.52 502.838 499.42 493.328 496.132 482.918L490.152 463.989L489.957 516.989C489.736 576.873 489.04 580.178 474.309 591.397C466.752 597.153 466.453 597.817 466.905 607.834C467.567 622.434 474.15 637.272 484.842 648.258L493.954 657.622L486.331 664.666L478.71 671.707L470.005 662.491C457.256 648.993 449.252 632.716 446.49 614.677L444.14 599.328H382.999C349.371 599.328 321.857 599.858 321.857 600.505C321.857 601.153 332.597 615.419 345.723 632.211C370.135 663.439 384.791 679.148 397.891 688.114C401.962 690.902 411.138 698.07 418.281 704.044L431.272 714.906L423.711 721.892L416.149 728.877L407.417 721.196C402.613 716.971 391.546 708.214 382.823 701.739C364.395 688.061 359.066 682.197 321.857 634.662L294.2 599.328H266.952C238.33 599.328 232.235 597.973 222.004 589.33C218.099 586.033 216.632 585.783 212.176 587.659C198.437 593.441 180.233 588.192 172.292 576.158C166.756 567.77 166.619 543.112 172.046 532.075C175.685 524.672 175.683 524.254 172.001 517.909C167.148 509.55 166.615 477.792 171.159 467.744C173.923 461.634 173.837 461.032 169.84 458.445C163.31 454.22 157.992 445.695 157.949 439.382C157.912 434.019 165.046 409.102 171.591 391.737C173.341 387.092 178.381 380.592 183.834 375.949C188.929 371.608 192.799 367.807 192.433 367.505C192.066 367.2 185.166 363.899 177.1 360.168C159.266 351.919 153.47 345.173 152.217 331.2C151.114 318.921 154.128 311.561 163.308 304.113C174.207 295.271 183.867 293.736 204.506 297.564L209.052 298.408L209.627 217.153L210.203 135.901L216.435 127.71ZM272.527 157.004C269.728 153.928 264.701 146.575 261.355 140.661C254.9 129.246 250.81 127.578 240.53 132.166C239.177 132.77 237.992 133.182 236.954 133.83C229.352 138.576 229.666 156.003 229.666 354.84C229.666 480.05 230.432 564.982 231.59 567.791C232.647 570.362 235.587 574.25 238.121 576.432C242.677 580.352 243.958 580.399 347.757 580.399C418.906 580.399 454.355 579.737 457.662 578.346C460.345 577.216 464.076 573.89 465.953 570.954C469.081 566.063 469.364 548.124 469.364 355.237C469.364 156.393 469.762 138.429 462.141 133.87C461.001 133.188 459.681 132.805 458.153 132.162C449.198 128.392 443.661 129.336 440.883 135.106C433.739 149.94 425.114 160.398 417.044 164.008C409.282 167.479 404.287 167.758 349.826 167.758C285.599 167.758 281.846 167.235 272.527 157.004ZM408.03 146.874C410.208 145.797 413.852 141.538 416.132 137.409L420.279 129.9H349.515H278.751L282.897 137.409C285.177 141.538 288.822 145.797 291 146.874C293.438 148.079 315.883 148.829 349.515 148.829C383.146 148.829 405.592 148.079 408.03 146.874ZM250.153 264.293V234.954V205.615H280.883H311.614V215.011V224.407L291.639 224.948L271.664 225.49L271.08 244.891L270.496 264.293H260.325H250.153ZM385.359 225.49L385.363 215.552L385.367 205.615H416.098H446.828V234.954V264.293H436.585H426.341V244.293V224.291L405.85 224.891L385.359 225.49ZM209.179 317.789L201.496 316.615C187.778 314.52 180.661 315.249 176.4 319.186C170.919 324.249 171.155 332.695 176.912 337.579C180.995 341.043 205.29 353.257 208.095 353.257C208.691 353.257 209.179 345.277 209.179 335.523V317.789ZM250.153 398.686V369.346V340.007H260.396H270.64V359.882V379.757H291.127H311.614V389.221V398.686H280.883H250.153ZM426.341 379.757V359.882V340.007H436.585H446.828V369.346V398.686H416.098H385.367V389.221V379.757H405.854H426.341ZM182.603 442.645C188.341 446.938 199.263 446.963 204.926 442.694C209.111 439.539 209.291 438.055 208.736 411.476L208.154 383.571L201.47 387.328C193.789 391.648 191.23 396.522 183.611 421.351L178.108 439.282L182.603 442.645ZM270.64 455.471V446.007V436.543H348.49H426.341V446.007V455.471H348.49H270.64ZM204.057 511.484C209.048 508.463 209.179 507.807 209.179 485.713C209.179 473.245 208.486 463.158 207.642 463.3C199.124 464.729 196.803 465.67 193.514 469.022C190.523 472.073 189.567 476.639 189.011 490.525C188.325 507.727 188.436 508.229 193.621 511.369C198.558 514.356 199.3 514.365 204.057 511.484ZM270.64 495.221V484.81V474.4H286.005H301.37V484.81V495.221H286.005H270.64ZM322.232 486.978C321.876 482.963 322.064 478.524 322.652 477.11C323.511 475.041 333.75 474.527 375.029 474.47L426.341 474.402V484.896V495.391L374.611 494.833L322.882 494.275L322.232 486.978ZM270.64 533.078V523.614V514.15H333.125H395.611V523.614V533.078H333.125H270.64ZM198.935 570.935C206.944 570.935 209.179 565.947 209.179 548.087C209.179 538.791 208.486 531.312 207.642 531.469C206.798 531.624 203.561 532.109 200.453 532.542C192.912 533.597 188.692 541.516 188.692 554.617C188.692 565.665 192 570.935 198.935 570.935Z" fill="#787878"/>
<path fill-rule="evenodd" clip-rule="evenodd" d="M343.412 256.373C333.296 257.664 323.903 262.531 316.453 270.342C311.138 275.914 307.452 282.479 305.512 289.828C300 310.709 309.931 332.644 329.226 342.208C347.284 351.159 368.581 347.344 382.53 332.659C397.943 316.435 399.209 291.678 385.543 273.737C383.138 270.58 377.963 265.754 374.558 263.495C365.593 257.544 354.358 254.975 343.412 256.373ZM352.45 273.119C352.517 273.184 352.126 274.988 351.582 277.13L350.593 281.024L352.213 281.46C353.103 281.699 354.053 281.811 354.322 281.708C354.591 281.604 355.146 280.055 355.555 278.265C355.964 276.474 356.422 274.81 356.573 274.567C356.922 274.003 361.044 274.89 361.311 275.586C361.412 275.847 361.119 277.528 360.661 279.322C360.202 281.116 359.827 282.78 359.827 283.019C359.827 283.258 360.986 283.98 362.403 284.622C367.178 286.786 369.555 289.734 369.555 293.492C369.555 297.222 367.77 300.497 365.12 301.629L363.651 302.256L365.756 304.306C368.339 306.822 369.04 308.883 368.4 312.072C366.964 319.219 362.618 322.363 354.93 321.817C353.003 321.68 351.152 321.464 350.818 321.335C350.348 321.155 350.053 321.732 349.526 323.86C349.15 325.376 348.668 327.28 348.455 328.09L348.067 329.564L345.638 328.952C342.845 328.249 342.877 328.345 344.02 323.983C345.039 320.095 345.038 320.078 343.716 319.789C343.103 319.655 342.223 319.437 341.76 319.304C340.987 319.083 340.844 319.393 339.993 323.144C339.484 325.388 338.895 327.225 338.684 327.225C337.993 327.225 334.502 326.311 334.209 326.053C334.051 325.914 334.367 324.07 334.91 321.954C335.453 319.839 335.901 318.006 335.906 317.882C335.91 317.757 333.725 317.129 331.05 316.487C328.375 315.844 326.186 315.162 326.186 314.971C326.186 314.78 326.688 313.447 327.301 312.01C328.12 310.092 328.577 309.46 329.023 309.633C329.358 309.762 330.581 309.969 331.743 310.092C333.684 310.298 333.888 310.238 334.27 309.349C334.894 307.896 339.967 287.157 339.967 286.057C339.967 284.897 338.804 284.085 336.218 283.44C333.98 282.883 333.879 282.274 335.301 277.928C335.409 277.598 336.816 277.805 340.041 278.628C342.564 279.271 344.835 279.801 345.089 279.806C345.343 279.811 345.961 278.128 346.463 276.067C346.965 274.006 347.442 272.199 347.522 272.053C347.648 271.825 352.112 272.791 352.45 273.119ZM348.923 288.629C348.089 291.811 346.857 296.774 346.857 296.948C346.857 297.047 347.997 297.371 349.39 297.668C354.596 298.778 358.104 298.179 359.238 295.987C361.07 292.445 358.458 289.33 352.315 287.73C351.003 287.389 349.792 287.109 349.625 287.109C349.457 287.109 349.141 287.793 348.923 288.629ZM345.451 302.58C344.973 303.952 342.864 312.832 342.986 312.955C343.386 313.355 347.835 314.295 350.394 314.522C355.483 314.972 358.206 313.273 358.206 309.649C358.206 306.919 355.007 304.474 349.666 303.123C348.232 302.761 346.74 302.37 346.349 302.255C345.957 302.14 345.553 302.287 345.451 302.58Z" fill="#F7931A"/>
<path d="M627.892 237V225.372L694.24 160.392C700.32 154.464 704.88 149.296 707.92 144.888C710.96 140.328 713.012 136.072 714.076 132.12C715.14 128.168 715.672 124.444 715.672 120.948C715.672 111.676 712.48 104.38 706.096 99.06C699.864 93.74 690.592 91.08 678.28 91.08C668.856 91.08 660.496 92.524 653.2 95.412C646.056 98.3 639.9 102.784 634.732 108.864L623.104 98.832C629.336 91.536 637.316 85.912 647.044 81.96C656.772 78.008 667.64 76.032 679.648 76.032C690.44 76.032 699.788 77.78 707.692 81.276C715.596 84.62 721.676 89.56 725.932 96.096C730.34 102.632 732.544 110.308 732.544 119.124C732.544 124.292 731.784 129.384 730.264 134.4C728.896 139.416 726.312 144.736 722.512 150.36C718.864 155.832 713.468 162.064 706.324 169.056L645.448 228.792L640.888 222.408H739.84V237H627.892Z" fill="#787878" fill-opacity="0.13"/>
</svg>
